%TF.GenerationSoftware,KiCad,Pcbnew,8.0.4*%
%TF.CreationDate,2024-09-01T22:04:34-05:00*%
%TF.ProjectId,CNC-BOT ESP32,434e432d-424f-4542-9045-535033322e6b,rev?*%
%TF.SameCoordinates,Original*%
%TF.FileFunction,Legend,Top*%
%TF.FilePolarity,Positive*%
%FSLAX46Y46*%
G04 Gerber Fmt 4.6, Leading zero omitted, Abs format (unit mm)*
G04 Created by KiCad (PCBNEW 8.0.4) date 2024-09-01 22:04:34*
%MOMM*%
%LPD*%
G01*
G04 APERTURE LIST*
%ADD10C,0.150000*%
%ADD11C,0.120000*%
%ADD12C,0.127000*%
%ADD13C,0.200000*%
G04 APERTURE END LIST*
D10*
X178364819Y-66374166D02*
X177888628Y-66707499D01*
X178364819Y-66945594D02*
X177364819Y-66945594D01*
X177364819Y-66945594D02*
X177364819Y-66564642D01*
X177364819Y-66564642D02*
X177412438Y-66469404D01*
X177412438Y-66469404D02*
X177460057Y-66421785D01*
X177460057Y-66421785D02*
X177555295Y-66374166D01*
X177555295Y-66374166D02*
X177698152Y-66374166D01*
X177698152Y-66374166D02*
X177793390Y-66421785D01*
X177793390Y-66421785D02*
X177841009Y-66469404D01*
X177841009Y-66469404D02*
X177888628Y-66564642D01*
X177888628Y-66564642D02*
X177888628Y-66945594D01*
X178364819Y-65421785D02*
X178364819Y-65993213D01*
X178364819Y-65707499D02*
X177364819Y-65707499D01*
X177364819Y-65707499D02*
X177507676Y-65802737D01*
X177507676Y-65802737D02*
X177602914Y-65897975D01*
X177602914Y-65897975D02*
X177650533Y-65993213D01*
X97916666Y-130754819D02*
X97583333Y-130278628D01*
X97345238Y-130754819D02*
X97345238Y-129754819D01*
X97345238Y-129754819D02*
X97726190Y-129754819D01*
X97726190Y-129754819D02*
X97821428Y-129802438D01*
X97821428Y-129802438D02*
X97869047Y-129850057D01*
X97869047Y-129850057D02*
X97916666Y-129945295D01*
X97916666Y-129945295D02*
X97916666Y-130088152D01*
X97916666Y-130088152D02*
X97869047Y-130183390D01*
X97869047Y-130183390D02*
X97821428Y-130231009D01*
X97821428Y-130231009D02*
X97726190Y-130278628D01*
X97726190Y-130278628D02*
X97345238Y-130278628D01*
X98345238Y-130231009D02*
X98678571Y-130231009D01*
X98821428Y-130754819D02*
X98345238Y-130754819D01*
X98345238Y-130754819D02*
X98345238Y-129754819D01*
X98345238Y-129754819D02*
X98821428Y-129754819D01*
X99583333Y-130231009D02*
X99250000Y-130231009D01*
X99250000Y-130754819D02*
X99250000Y-129754819D01*
X99250000Y-129754819D02*
X99726190Y-129754819D01*
X100250000Y-129754819D02*
X100250000Y-129992914D01*
X100011905Y-129897676D02*
X100250000Y-129992914D01*
X100250000Y-129992914D02*
X100488095Y-129897676D01*
X100107143Y-130183390D02*
X100250000Y-129992914D01*
X100250000Y-129992914D02*
X100392857Y-130183390D01*
X101011905Y-129754819D02*
X101011905Y-129992914D01*
X100773810Y-129897676D02*
X101011905Y-129992914D01*
X101011905Y-129992914D02*
X101250000Y-129897676D01*
X100869048Y-130183390D02*
X101011905Y-129992914D01*
X101011905Y-129992914D02*
X101154762Y-130183390D01*
X102049819Y-72308333D02*
X102764104Y-72308333D01*
X102764104Y-72308333D02*
X102906961Y-72355952D01*
X102906961Y-72355952D02*
X103002200Y-72451190D01*
X103002200Y-72451190D02*
X103049819Y-72594047D01*
X103049819Y-72594047D02*
X103049819Y-72689285D01*
X102049819Y-71927380D02*
X102049819Y-71260714D01*
X102049819Y-71260714D02*
X103049819Y-71689285D01*
X166281905Y-60187319D02*
X166281905Y-59187319D01*
X166281905Y-59187319D02*
X166520000Y-59187319D01*
X166520000Y-59187319D02*
X166662857Y-59234938D01*
X166662857Y-59234938D02*
X166758095Y-59330176D01*
X166758095Y-59330176D02*
X166805714Y-59425414D01*
X166805714Y-59425414D02*
X166853333Y-59615890D01*
X166853333Y-59615890D02*
X166853333Y-59758747D01*
X166853333Y-59758747D02*
X166805714Y-59949223D01*
X166805714Y-59949223D02*
X166758095Y-60044461D01*
X166758095Y-60044461D02*
X166662857Y-60139700D01*
X166662857Y-60139700D02*
X166520000Y-60187319D01*
X166520000Y-60187319D02*
X166281905Y-60187319D01*
X167234286Y-59282557D02*
X167281905Y-59234938D01*
X167281905Y-59234938D02*
X167377143Y-59187319D01*
X167377143Y-59187319D02*
X167615238Y-59187319D01*
X167615238Y-59187319D02*
X167710476Y-59234938D01*
X167710476Y-59234938D02*
X167758095Y-59282557D01*
X167758095Y-59282557D02*
X167805714Y-59377795D01*
X167805714Y-59377795D02*
X167805714Y-59473033D01*
X167805714Y-59473033D02*
X167758095Y-59615890D01*
X167758095Y-59615890D02*
X167186667Y-60187319D01*
X167186667Y-60187319D02*
X167805714Y-60187319D01*
X125359580Y-59666666D02*
X125407200Y-59714285D01*
X125407200Y-59714285D02*
X125454819Y-59857142D01*
X125454819Y-59857142D02*
X125454819Y-59952380D01*
X125454819Y-59952380D02*
X125407200Y-60095237D01*
X125407200Y-60095237D02*
X125311961Y-60190475D01*
X125311961Y-60190475D02*
X125216723Y-60238094D01*
X125216723Y-60238094D02*
X125026247Y-60285713D01*
X125026247Y-60285713D02*
X124883390Y-60285713D01*
X124883390Y-60285713D02*
X124692914Y-60238094D01*
X124692914Y-60238094D02*
X124597676Y-60190475D01*
X124597676Y-60190475D02*
X124502438Y-60095237D01*
X124502438Y-60095237D02*
X124454819Y-59952380D01*
X124454819Y-59952380D02*
X124454819Y-59857142D01*
X124454819Y-59857142D02*
X124502438Y-59714285D01*
X124502438Y-59714285D02*
X124550057Y-59666666D01*
X125454819Y-58714285D02*
X125454819Y-59285713D01*
X125454819Y-58999999D02*
X124454819Y-58999999D01*
X124454819Y-58999999D02*
X124597676Y-59095237D01*
X124597676Y-59095237D02*
X124692914Y-59190475D01*
X124692914Y-59190475D02*
X124740533Y-59285713D01*
X164843095Y-137814819D02*
X164843095Y-138624342D01*
X164843095Y-138624342D02*
X164890714Y-138719580D01*
X164890714Y-138719580D02*
X164938333Y-138767200D01*
X164938333Y-138767200D02*
X165033571Y-138814819D01*
X165033571Y-138814819D02*
X165224047Y-138814819D01*
X165224047Y-138814819D02*
X165319285Y-138767200D01*
X165319285Y-138767200D02*
X165366904Y-138719580D01*
X165366904Y-138719580D02*
X165414523Y-138624342D01*
X165414523Y-138624342D02*
X165414523Y-137814819D01*
X166414523Y-138814819D02*
X165843095Y-138814819D01*
X166128809Y-138814819D02*
X166128809Y-137814819D01*
X166128809Y-137814819D02*
X166033571Y-137957676D01*
X166033571Y-137957676D02*
X165938333Y-138052914D01*
X165938333Y-138052914D02*
X165843095Y-138100533D01*
X171364819Y-66494166D02*
X170888628Y-66827499D01*
X171364819Y-67065594D02*
X170364819Y-67065594D01*
X170364819Y-67065594D02*
X170364819Y-66684642D01*
X170364819Y-66684642D02*
X170412438Y-66589404D01*
X170412438Y-66589404D02*
X170460057Y-66541785D01*
X170460057Y-66541785D02*
X170555295Y-66494166D01*
X170555295Y-66494166D02*
X170698152Y-66494166D01*
X170698152Y-66494166D02*
X170793390Y-66541785D01*
X170793390Y-66541785D02*
X170841009Y-66589404D01*
X170841009Y-66589404D02*
X170888628Y-66684642D01*
X170888628Y-66684642D02*
X170888628Y-67065594D01*
X170460057Y-66113213D02*
X170412438Y-66065594D01*
X170412438Y-66065594D02*
X170364819Y-65970356D01*
X170364819Y-65970356D02*
X170364819Y-65732261D01*
X170364819Y-65732261D02*
X170412438Y-65637023D01*
X170412438Y-65637023D02*
X170460057Y-65589404D01*
X170460057Y-65589404D02*
X170555295Y-65541785D01*
X170555295Y-65541785D02*
X170650533Y-65541785D01*
X170650533Y-65541785D02*
X170793390Y-65589404D01*
X170793390Y-65589404D02*
X171364819Y-66160832D01*
X171364819Y-66160832D02*
X171364819Y-65541785D01*
X105951010Y-103609580D02*
X105903391Y-103657200D01*
X105903391Y-103657200D02*
X105760534Y-103704819D01*
X105760534Y-103704819D02*
X105665296Y-103704819D01*
X105665296Y-103704819D02*
X105522439Y-103657200D01*
X105522439Y-103657200D02*
X105427201Y-103561961D01*
X105427201Y-103561961D02*
X105379582Y-103466723D01*
X105379582Y-103466723D02*
X105331963Y-103276247D01*
X105331963Y-103276247D02*
X105331963Y-103133390D01*
X105331963Y-103133390D02*
X105379582Y-102942914D01*
X105379582Y-102942914D02*
X105427201Y-102847676D01*
X105427201Y-102847676D02*
X105522439Y-102752438D01*
X105522439Y-102752438D02*
X105665296Y-102704819D01*
X105665296Y-102704819D02*
X105760534Y-102704819D01*
X105760534Y-102704819D02*
X105903391Y-102752438D01*
X105903391Y-102752438D02*
X105951010Y-102800057D01*
X106284344Y-102704819D02*
X106903391Y-102704819D01*
X106903391Y-102704819D02*
X106570058Y-103085771D01*
X106570058Y-103085771D02*
X106712915Y-103085771D01*
X106712915Y-103085771D02*
X106808153Y-103133390D01*
X106808153Y-103133390D02*
X106855772Y-103181009D01*
X106855772Y-103181009D02*
X106903391Y-103276247D01*
X106903391Y-103276247D02*
X106903391Y-103514342D01*
X106903391Y-103514342D02*
X106855772Y-103609580D01*
X106855772Y-103609580D02*
X106808153Y-103657200D01*
X106808153Y-103657200D02*
X106712915Y-103704819D01*
X106712915Y-103704819D02*
X106427201Y-103704819D01*
X106427201Y-103704819D02*
X106331963Y-103657200D01*
X106331963Y-103657200D02*
X106284344Y-103609580D01*
X102024819Y-84308333D02*
X102739104Y-84308333D01*
X102739104Y-84308333D02*
X102881961Y-84355952D01*
X102881961Y-84355952D02*
X102977200Y-84451190D01*
X102977200Y-84451190D02*
X103024819Y-84594047D01*
X103024819Y-84594047D02*
X103024819Y-84689285D01*
X102024819Y-83355952D02*
X102024819Y-83832142D01*
X102024819Y-83832142D02*
X102501009Y-83879761D01*
X102501009Y-83879761D02*
X102453390Y-83832142D01*
X102453390Y-83832142D02*
X102405771Y-83736904D01*
X102405771Y-83736904D02*
X102405771Y-83498809D01*
X102405771Y-83498809D02*
X102453390Y-83403571D01*
X102453390Y-83403571D02*
X102501009Y-83355952D01*
X102501009Y-83355952D02*
X102596247Y-83308333D01*
X102596247Y-83308333D02*
X102834342Y-83308333D01*
X102834342Y-83308333D02*
X102929580Y-83355952D01*
X102929580Y-83355952D02*
X102977200Y-83403571D01*
X102977200Y-83403571D02*
X103024819Y-83498809D01*
X103024819Y-83498809D02*
X103024819Y-83736904D01*
X103024819Y-83736904D02*
X102977200Y-83832142D01*
X102977200Y-83832142D02*
X102929580Y-83879761D01*
X159181905Y-60187319D02*
X159181905Y-59187319D01*
X159181905Y-59187319D02*
X159420000Y-59187319D01*
X159420000Y-59187319D02*
X159562857Y-59234938D01*
X159562857Y-59234938D02*
X159658095Y-59330176D01*
X159658095Y-59330176D02*
X159705714Y-59425414D01*
X159705714Y-59425414D02*
X159753333Y-59615890D01*
X159753333Y-59615890D02*
X159753333Y-59758747D01*
X159753333Y-59758747D02*
X159705714Y-59949223D01*
X159705714Y-59949223D02*
X159658095Y-60044461D01*
X159658095Y-60044461D02*
X159562857Y-60139700D01*
X159562857Y-60139700D02*
X159420000Y-60187319D01*
X159420000Y-60187319D02*
X159181905Y-60187319D01*
X160086667Y-59187319D02*
X160705714Y-59187319D01*
X160705714Y-59187319D02*
X160372381Y-59568271D01*
X160372381Y-59568271D02*
X160515238Y-59568271D01*
X160515238Y-59568271D02*
X160610476Y-59615890D01*
X160610476Y-59615890D02*
X160658095Y-59663509D01*
X160658095Y-59663509D02*
X160705714Y-59758747D01*
X160705714Y-59758747D02*
X160705714Y-59996842D01*
X160705714Y-59996842D02*
X160658095Y-60092080D01*
X160658095Y-60092080D02*
X160610476Y-60139700D01*
X160610476Y-60139700D02*
X160515238Y-60187319D01*
X160515238Y-60187319D02*
X160229524Y-60187319D01*
X160229524Y-60187319D02*
X160134286Y-60139700D01*
X160134286Y-60139700D02*
X160086667Y-60092080D01*
X173281905Y-60187319D02*
X173281905Y-59187319D01*
X173281905Y-59187319D02*
X173520000Y-59187319D01*
X173520000Y-59187319D02*
X173662857Y-59234938D01*
X173662857Y-59234938D02*
X173758095Y-59330176D01*
X173758095Y-59330176D02*
X173805714Y-59425414D01*
X173805714Y-59425414D02*
X173853333Y-59615890D01*
X173853333Y-59615890D02*
X173853333Y-59758747D01*
X173853333Y-59758747D02*
X173805714Y-59949223D01*
X173805714Y-59949223D02*
X173758095Y-60044461D01*
X173758095Y-60044461D02*
X173662857Y-60139700D01*
X173662857Y-60139700D02*
X173520000Y-60187319D01*
X173520000Y-60187319D02*
X173281905Y-60187319D01*
X174805714Y-60187319D02*
X174234286Y-60187319D01*
X174520000Y-60187319D02*
X174520000Y-59187319D01*
X174520000Y-59187319D02*
X174424762Y-59330176D01*
X174424762Y-59330176D02*
X174329524Y-59425414D01*
X174329524Y-59425414D02*
X174234286Y-59473033D01*
X102009819Y-68308333D02*
X102724104Y-68308333D01*
X102724104Y-68308333D02*
X102866961Y-68355952D01*
X102866961Y-68355952D02*
X102962200Y-68451190D01*
X102962200Y-68451190D02*
X103009819Y-68594047D01*
X103009819Y-68594047D02*
X103009819Y-68689285D01*
X102438390Y-67689285D02*
X102390771Y-67784523D01*
X102390771Y-67784523D02*
X102343152Y-67832142D01*
X102343152Y-67832142D02*
X102247914Y-67879761D01*
X102247914Y-67879761D02*
X102200295Y-67879761D01*
X102200295Y-67879761D02*
X102105057Y-67832142D01*
X102105057Y-67832142D02*
X102057438Y-67784523D01*
X102057438Y-67784523D02*
X102009819Y-67689285D01*
X102009819Y-67689285D02*
X102009819Y-67498809D01*
X102009819Y-67498809D02*
X102057438Y-67403571D01*
X102057438Y-67403571D02*
X102105057Y-67355952D01*
X102105057Y-67355952D02*
X102200295Y-67308333D01*
X102200295Y-67308333D02*
X102247914Y-67308333D01*
X102247914Y-67308333D02*
X102343152Y-67355952D01*
X102343152Y-67355952D02*
X102390771Y-67403571D01*
X102390771Y-67403571D02*
X102438390Y-67498809D01*
X102438390Y-67498809D02*
X102438390Y-67689285D01*
X102438390Y-67689285D02*
X102486009Y-67784523D01*
X102486009Y-67784523D02*
X102533628Y-67832142D01*
X102533628Y-67832142D02*
X102628866Y-67879761D01*
X102628866Y-67879761D02*
X102819342Y-67879761D01*
X102819342Y-67879761D02*
X102914580Y-67832142D01*
X102914580Y-67832142D02*
X102962200Y-67784523D01*
X102962200Y-67784523D02*
X103009819Y-67689285D01*
X103009819Y-67689285D02*
X103009819Y-67498809D01*
X103009819Y-67498809D02*
X102962200Y-67403571D01*
X102962200Y-67403571D02*
X102914580Y-67355952D01*
X102914580Y-67355952D02*
X102819342Y-67308333D01*
X102819342Y-67308333D02*
X102628866Y-67308333D01*
X102628866Y-67308333D02*
X102533628Y-67355952D01*
X102533628Y-67355952D02*
X102486009Y-67403571D01*
X102486009Y-67403571D02*
X102438390Y-67498809D01*
X102049819Y-76308333D02*
X102764104Y-76308333D01*
X102764104Y-76308333D02*
X102906961Y-76355952D01*
X102906961Y-76355952D02*
X103002200Y-76451190D01*
X103002200Y-76451190D02*
X103049819Y-76594047D01*
X103049819Y-76594047D02*
X103049819Y-76689285D01*
X102049819Y-75403571D02*
X102049819Y-75594047D01*
X102049819Y-75594047D02*
X102097438Y-75689285D01*
X102097438Y-75689285D02*
X102145057Y-75736904D01*
X102145057Y-75736904D02*
X102287914Y-75832142D01*
X102287914Y-75832142D02*
X102478390Y-75879761D01*
X102478390Y-75879761D02*
X102859342Y-75879761D01*
X102859342Y-75879761D02*
X102954580Y-75832142D01*
X102954580Y-75832142D02*
X103002200Y-75784523D01*
X103002200Y-75784523D02*
X103049819Y-75689285D01*
X103049819Y-75689285D02*
X103049819Y-75498809D01*
X103049819Y-75498809D02*
X103002200Y-75403571D01*
X103002200Y-75403571D02*
X102954580Y-75355952D01*
X102954580Y-75355952D02*
X102859342Y-75308333D01*
X102859342Y-75308333D02*
X102621247Y-75308333D01*
X102621247Y-75308333D02*
X102526009Y-75355952D01*
X102526009Y-75355952D02*
X102478390Y-75403571D01*
X102478390Y-75403571D02*
X102430771Y-75498809D01*
X102430771Y-75498809D02*
X102430771Y-75689285D01*
X102430771Y-75689285D02*
X102478390Y-75784523D01*
X102478390Y-75784523D02*
X102526009Y-75832142D01*
X102526009Y-75832142D02*
X102621247Y-75879761D01*
X102054819Y-88784523D02*
X102769104Y-88784523D01*
X102769104Y-88784523D02*
X102911961Y-88832142D01*
X102911961Y-88832142D02*
X103007200Y-88927380D01*
X103007200Y-88927380D02*
X103054819Y-89070237D01*
X103054819Y-89070237D02*
X103054819Y-89165475D01*
X103054819Y-87784523D02*
X103054819Y-88355951D01*
X103054819Y-88070237D02*
X102054819Y-88070237D01*
X102054819Y-88070237D02*
X102197676Y-88165475D01*
X102197676Y-88165475D02*
X102292914Y-88260713D01*
X102292914Y-88260713D02*
X102340533Y-88355951D01*
X102054819Y-87165475D02*
X102054819Y-87070237D01*
X102054819Y-87070237D02*
X102102438Y-86974999D01*
X102102438Y-86974999D02*
X102150057Y-86927380D01*
X102150057Y-86927380D02*
X102245295Y-86879761D01*
X102245295Y-86879761D02*
X102435771Y-86832142D01*
X102435771Y-86832142D02*
X102673866Y-86832142D01*
X102673866Y-86832142D02*
X102864342Y-86879761D01*
X102864342Y-86879761D02*
X102959580Y-86927380D01*
X102959580Y-86927380D02*
X103007200Y-86974999D01*
X103007200Y-86974999D02*
X103054819Y-87070237D01*
X103054819Y-87070237D02*
X103054819Y-87165475D01*
X103054819Y-87165475D02*
X103007200Y-87260713D01*
X103007200Y-87260713D02*
X102959580Y-87308332D01*
X102959580Y-87308332D02*
X102864342Y-87355951D01*
X102864342Y-87355951D02*
X102673866Y-87403570D01*
X102673866Y-87403570D02*
X102435771Y-87403570D01*
X102435771Y-87403570D02*
X102245295Y-87355951D01*
X102245295Y-87355951D02*
X102150057Y-87308332D01*
X102150057Y-87308332D02*
X102102438Y-87260713D01*
X102102438Y-87260713D02*
X102054819Y-87165475D01*
X163864819Y-66684166D02*
X163388628Y-67017499D01*
X163864819Y-67255594D02*
X162864819Y-67255594D01*
X162864819Y-67255594D02*
X162864819Y-66874642D01*
X162864819Y-66874642D02*
X162912438Y-66779404D01*
X162912438Y-66779404D02*
X162960057Y-66731785D01*
X162960057Y-66731785D02*
X163055295Y-66684166D01*
X163055295Y-66684166D02*
X163198152Y-66684166D01*
X163198152Y-66684166D02*
X163293390Y-66731785D01*
X163293390Y-66731785D02*
X163341009Y-66779404D01*
X163341009Y-66779404D02*
X163388628Y-66874642D01*
X163388628Y-66874642D02*
X163388628Y-67255594D01*
X162864819Y-66350832D02*
X162864819Y-65731785D01*
X162864819Y-65731785D02*
X163245771Y-66065118D01*
X163245771Y-66065118D02*
X163245771Y-65922261D01*
X163245771Y-65922261D02*
X163293390Y-65827023D01*
X163293390Y-65827023D02*
X163341009Y-65779404D01*
X163341009Y-65779404D02*
X163436247Y-65731785D01*
X163436247Y-65731785D02*
X163674342Y-65731785D01*
X163674342Y-65731785D02*
X163769580Y-65779404D01*
X163769580Y-65779404D02*
X163817200Y-65827023D01*
X163817200Y-65827023D02*
X163864819Y-65922261D01*
X163864819Y-65922261D02*
X163864819Y-66207975D01*
X163864819Y-66207975D02*
X163817200Y-66303213D01*
X163817200Y-66303213D02*
X163769580Y-66350832D01*
X110359580Y-59666666D02*
X110407200Y-59714285D01*
X110407200Y-59714285D02*
X110454819Y-59857142D01*
X110454819Y-59857142D02*
X110454819Y-59952380D01*
X110454819Y-59952380D02*
X110407200Y-60095237D01*
X110407200Y-60095237D02*
X110311961Y-60190475D01*
X110311961Y-60190475D02*
X110216723Y-60238094D01*
X110216723Y-60238094D02*
X110026247Y-60285713D01*
X110026247Y-60285713D02*
X109883390Y-60285713D01*
X109883390Y-60285713D02*
X109692914Y-60238094D01*
X109692914Y-60238094D02*
X109597676Y-60190475D01*
X109597676Y-60190475D02*
X109502438Y-60095237D01*
X109502438Y-60095237D02*
X109454819Y-59952380D01*
X109454819Y-59952380D02*
X109454819Y-59857142D01*
X109454819Y-59857142D02*
X109502438Y-59714285D01*
X109502438Y-59714285D02*
X109550057Y-59666666D01*
X109550057Y-59285713D02*
X109502438Y-59238094D01*
X109502438Y-59238094D02*
X109454819Y-59142856D01*
X109454819Y-59142856D02*
X109454819Y-58904761D01*
X109454819Y-58904761D02*
X109502438Y-58809523D01*
X109502438Y-58809523D02*
X109550057Y-58761904D01*
X109550057Y-58761904D02*
X109645295Y-58714285D01*
X109645295Y-58714285D02*
X109740533Y-58714285D01*
X109740533Y-58714285D02*
X109883390Y-58761904D01*
X109883390Y-58761904D02*
X110454819Y-59333332D01*
X110454819Y-59333332D02*
X110454819Y-58714285D01*
X127954819Y-135283333D02*
X128669104Y-135283333D01*
X128669104Y-135283333D02*
X128811961Y-135330952D01*
X128811961Y-135330952D02*
X128907200Y-135426190D01*
X128907200Y-135426190D02*
X128954819Y-135569047D01*
X128954819Y-135569047D02*
X128954819Y-135664285D01*
X128050057Y-134854761D02*
X128002438Y-134807142D01*
X128002438Y-134807142D02*
X127954819Y-134711904D01*
X127954819Y-134711904D02*
X127954819Y-134473809D01*
X127954819Y-134473809D02*
X128002438Y-134378571D01*
X128002438Y-134378571D02*
X128050057Y-134330952D01*
X128050057Y-134330952D02*
X128145295Y-134283333D01*
X128145295Y-134283333D02*
X128240533Y-134283333D01*
X128240533Y-134283333D02*
X128383390Y-134330952D01*
X128383390Y-134330952D02*
X128954819Y-134902380D01*
X128954819Y-134902380D02*
X128954819Y-134283333D01*
X102049819Y-80308333D02*
X102764104Y-80308333D01*
X102764104Y-80308333D02*
X102906961Y-80355952D01*
X102906961Y-80355952D02*
X103002200Y-80451190D01*
X103002200Y-80451190D02*
X103049819Y-80594047D01*
X103049819Y-80594047D02*
X103049819Y-80689285D01*
X103049819Y-79784523D02*
X103049819Y-79594047D01*
X103049819Y-79594047D02*
X103002200Y-79498809D01*
X103002200Y-79498809D02*
X102954580Y-79451190D01*
X102954580Y-79451190D02*
X102811723Y-79355952D01*
X102811723Y-79355952D02*
X102621247Y-79308333D01*
X102621247Y-79308333D02*
X102240295Y-79308333D01*
X102240295Y-79308333D02*
X102145057Y-79355952D01*
X102145057Y-79355952D02*
X102097438Y-79403571D01*
X102097438Y-79403571D02*
X102049819Y-79498809D01*
X102049819Y-79498809D02*
X102049819Y-79689285D01*
X102049819Y-79689285D02*
X102097438Y-79784523D01*
X102097438Y-79784523D02*
X102145057Y-79832142D01*
X102145057Y-79832142D02*
X102240295Y-79879761D01*
X102240295Y-79879761D02*
X102478390Y-79879761D01*
X102478390Y-79879761D02*
X102573628Y-79832142D01*
X102573628Y-79832142D02*
X102621247Y-79784523D01*
X102621247Y-79784523D02*
X102668866Y-79689285D01*
X102668866Y-79689285D02*
X102668866Y-79498809D01*
X102668866Y-79498809D02*
X102621247Y-79403571D01*
X102621247Y-79403571D02*
X102573628Y-79355952D01*
X102573628Y-79355952D02*
X102478390Y-79308333D01*
X187916666Y-130754819D02*
X187583333Y-130278628D01*
X187345238Y-130754819D02*
X187345238Y-129754819D01*
X187345238Y-129754819D02*
X187726190Y-129754819D01*
X187726190Y-129754819D02*
X187821428Y-129802438D01*
X187821428Y-129802438D02*
X187869047Y-129850057D01*
X187869047Y-129850057D02*
X187916666Y-129945295D01*
X187916666Y-129945295D02*
X187916666Y-130088152D01*
X187916666Y-130088152D02*
X187869047Y-130183390D01*
X187869047Y-130183390D02*
X187821428Y-130231009D01*
X187821428Y-130231009D02*
X187726190Y-130278628D01*
X187726190Y-130278628D02*
X187345238Y-130278628D01*
X188345238Y-130231009D02*
X188678571Y-130231009D01*
X188821428Y-130754819D02*
X188345238Y-130754819D01*
X188345238Y-130754819D02*
X188345238Y-129754819D01*
X188345238Y-129754819D02*
X188821428Y-129754819D01*
X189583333Y-130231009D02*
X189250000Y-130231009D01*
X189250000Y-130754819D02*
X189250000Y-129754819D01*
X189250000Y-129754819D02*
X189726190Y-129754819D01*
X190250000Y-129754819D02*
X190250000Y-129992914D01*
X190011905Y-129897676D02*
X190250000Y-129992914D01*
X190250000Y-129992914D02*
X190488095Y-129897676D01*
X190107143Y-130183390D02*
X190250000Y-129992914D01*
X190250000Y-129992914D02*
X190392857Y-130183390D01*
X191011905Y-129754819D02*
X191011905Y-129992914D01*
X190773810Y-129897676D02*
X191011905Y-129992914D01*
X191011905Y-129992914D02*
X191250000Y-129897676D01*
X190869048Y-130183390D02*
X191011905Y-129992914D01*
X191011905Y-129992914D02*
X191154762Y-130183390D01*
D11*
%TO.C,R1*%
X174170000Y-62937500D02*
X174170000Y-69477500D01*
X174170000Y-69477500D02*
X174500000Y-69477500D01*
X174500000Y-62937500D02*
X174170000Y-62937500D01*
X176580000Y-62937500D02*
X176910000Y-62937500D01*
X176910000Y-62937500D02*
X176910000Y-69477500D01*
X176910000Y-69477500D02*
X176580000Y-69477500D01*
%TO.C,J7*%
X103595000Y-73305000D02*
X103595000Y-71975000D01*
X104925000Y-73305000D02*
X103595000Y-73305000D01*
X106195000Y-70645000D02*
X111335000Y-70645000D01*
X106195000Y-73305000D02*
X106195000Y-70645000D01*
X106195000Y-73305000D02*
X111335000Y-73305000D01*
X111335000Y-73305000D02*
X111335000Y-70645000D01*
%TO.C,D2*%
X170310000Y-52172500D02*
X170710000Y-52172500D01*
X170310000Y-53292500D02*
X170310000Y-52172500D01*
X170710000Y-52172500D02*
X170710000Y-53292500D01*
X170710000Y-53292500D02*
X170310000Y-53292500D01*
X170710000Y-53292500D02*
X170710000Y-49432500D01*
X171000000Y-53292500D02*
X171000000Y-53292500D01*
X171000000Y-53292500D02*
X171000000Y-58502500D01*
X171000000Y-58502500D02*
X171000000Y-53292500D01*
X171000000Y-58502500D02*
X171000000Y-58502500D01*
X173540000Y-53292500D02*
X173540000Y-53292500D01*
X173540000Y-53292500D02*
X173540000Y-58502500D01*
X173540000Y-58502500D02*
X173540000Y-53292500D01*
X173540000Y-58502500D02*
X173540000Y-58502500D01*
X173830000Y-53292500D02*
X170710000Y-53292500D01*
X173830000Y-53292500D02*
X173830000Y-49432500D01*
X170710000Y-49432500D02*
G75*
G02*
X173830000Y-49432500I1560000J0D01*
G01*
%TO.C,C1*%
X126170000Y-59420000D02*
X136330000Y-59420000D01*
X126170000Y-59460000D02*
X136330000Y-59460000D01*
X126170000Y-59500000D02*
X136330000Y-59500000D01*
X126171000Y-59380000D02*
X136329000Y-59380000D01*
X126172000Y-59340000D02*
X136328000Y-59340000D01*
X126173000Y-59300000D02*
X136327000Y-59300000D01*
X126175000Y-59260000D02*
X136325000Y-59260000D01*
X126177000Y-59220000D02*
X136323000Y-59220000D01*
X126180000Y-59180000D02*
X136320000Y-59180000D01*
X126182000Y-59140000D02*
X136318000Y-59140000D01*
X126185000Y-59100000D02*
X136315000Y-59100000D01*
X126188000Y-59060000D02*
X136312000Y-59060000D01*
X126192000Y-59020000D02*
X136308000Y-59020000D01*
X126196000Y-58980000D02*
X136304000Y-58980000D01*
X126200000Y-58940000D02*
X136300000Y-58940000D01*
X126205000Y-58900000D02*
X136295000Y-58900000D01*
X126210000Y-58860000D02*
X136290000Y-58860000D01*
X126215000Y-58820000D02*
X136285000Y-58820000D01*
X126220000Y-58779000D02*
X136280000Y-58779000D01*
X126226000Y-58739000D02*
X136274000Y-58739000D01*
X126232000Y-58699000D02*
X136268000Y-58699000D01*
X126239000Y-58659000D02*
X136261000Y-58659000D01*
X126246000Y-58619000D02*
X136254000Y-58619000D01*
X126253000Y-58579000D02*
X136247000Y-58579000D01*
X126260000Y-58539000D02*
X136240000Y-58539000D01*
X126268000Y-58499000D02*
X136232000Y-58499000D01*
X126276000Y-58459000D02*
X136224000Y-58459000D01*
X126285000Y-58419000D02*
X136215000Y-58419000D01*
X126294000Y-58379000D02*
X136206000Y-58379000D01*
X126303000Y-58339000D02*
X136197000Y-58339000D01*
X126312000Y-58299000D02*
X136188000Y-58299000D01*
X126322000Y-58259000D02*
X136178000Y-58259000D01*
X126332000Y-58219000D02*
X130009000Y-58219000D01*
X126343000Y-58179000D02*
X130009000Y-58179000D01*
X126353000Y-58139000D02*
X130009000Y-58139000D01*
X126365000Y-58099000D02*
X130009000Y-58099000D01*
X126376000Y-58059000D02*
X130009000Y-58059000D01*
X126388000Y-58019000D02*
X130009000Y-58019000D01*
X126400000Y-57979000D02*
X130009000Y-57979000D01*
X126413000Y-57939000D02*
X130009000Y-57939000D01*
X126426000Y-57899000D02*
X130009000Y-57899000D01*
X126439000Y-57859000D02*
X130009000Y-57859000D01*
X126453000Y-57819000D02*
X130009000Y-57819000D01*
X126467000Y-57779000D02*
X130009000Y-57779000D01*
X126482000Y-57739000D02*
X130009000Y-57739000D01*
X126496000Y-57699000D02*
X130009000Y-57699000D01*
X126512000Y-57659000D02*
X130009000Y-57659000D01*
X126527000Y-57619000D02*
X130009000Y-57619000D01*
X126543000Y-57579000D02*
X130009000Y-57579000D01*
X126560000Y-57539000D02*
X130009000Y-57539000D01*
X126576000Y-57499000D02*
X130009000Y-57499000D01*
X126593000Y-57459000D02*
X130009000Y-57459000D01*
X126611000Y-57419000D02*
X130009000Y-57419000D01*
X126629000Y-57379000D02*
X130009000Y-57379000D01*
X126647000Y-57339000D02*
X130009000Y-57339000D01*
X126666000Y-57299000D02*
X130009000Y-57299000D01*
X126686000Y-57259000D02*
X130009000Y-57259000D01*
X126705000Y-57219000D02*
X130009000Y-57219000D01*
X126725000Y-57179000D02*
X130009000Y-57179000D01*
X126746000Y-57139000D02*
X130009000Y-57139000D01*
X126767000Y-57099000D02*
X130009000Y-57099000D01*
X126788000Y-57059000D02*
X130009000Y-57059000D01*
X126810000Y-57019000D02*
X130009000Y-57019000D01*
X126833000Y-56979000D02*
X130009000Y-56979000D01*
X126855000Y-56939000D02*
X130009000Y-56939000D01*
X126879000Y-56899000D02*
X130009000Y-56899000D01*
X126903000Y-56859000D02*
X130009000Y-56859000D01*
X126927000Y-56819000D02*
X130009000Y-56819000D01*
X126952000Y-56779000D02*
X130009000Y-56779000D01*
X126977000Y-56739000D02*
X130009000Y-56739000D01*
X127003000Y-56699000D02*
X130009000Y-56699000D01*
X127029000Y-56659000D02*
X130009000Y-56659000D01*
X127056000Y-56619000D02*
X130009000Y-56619000D01*
X127084000Y-56579000D02*
X130009000Y-56579000D01*
X127112000Y-56539000D02*
X130009000Y-56539000D01*
X127140000Y-56499000D02*
X130009000Y-56499000D01*
X127170000Y-56459000D02*
X130009000Y-56459000D01*
X127200000Y-56419000D02*
X130009000Y-56419000D01*
X127230000Y-56379000D02*
X130009000Y-56379000D01*
X127261000Y-56339000D02*
X130009000Y-56339000D01*
X127293000Y-56299000D02*
X130009000Y-56299000D01*
X127325000Y-56259000D02*
X130009000Y-56259000D01*
X127358000Y-56219000D02*
X130009000Y-56219000D01*
X127392000Y-56179000D02*
X130009000Y-56179000D01*
X127426000Y-56139000D02*
X130009000Y-56139000D01*
X127461000Y-56099000D02*
X130009000Y-56099000D01*
X127497000Y-56059000D02*
X130009000Y-56059000D01*
X127534000Y-56019000D02*
X130009000Y-56019000D01*
X127571000Y-55979000D02*
X130009000Y-55979000D01*
X127610000Y-55939000D02*
X130009000Y-55939000D01*
X127649000Y-55899000D02*
X130009000Y-55899000D01*
X127689000Y-55859000D02*
X130009000Y-55859000D01*
X127730000Y-55819000D02*
X130009000Y-55819000D01*
X127772000Y-55779000D02*
X130009000Y-55779000D01*
X127814000Y-55739000D02*
X134686000Y-55739000D01*
X127858000Y-55699000D02*
X134642000Y-55699000D01*
X127875000Y-64479646D02*
X128875000Y-64479646D01*
X127903000Y-55659000D02*
X134597000Y-55659000D01*
X127949000Y-55619000D02*
X134551000Y-55619000D01*
X127996000Y-55579000D02*
X134504000Y-55579000D01*
X128044000Y-55539000D02*
X134456000Y-55539000D01*
X128094000Y-55499000D02*
X134406000Y-55499000D01*
X128144000Y-55459000D02*
X134356000Y-55459000D01*
X128196000Y-55419000D02*
X134304000Y-55419000D01*
X128250000Y-55379000D02*
X134250000Y-55379000D01*
X128305000Y-55339000D02*
X134195000Y-55339000D01*
X128361000Y-55299000D02*
X134139000Y-55299000D01*
X128375000Y-64979646D02*
X128375000Y-63979646D01*
X128420000Y-55259000D02*
X134080000Y-55259000D01*
X128480000Y-55219000D02*
X134020000Y-55219000D01*
X128541000Y-55179000D02*
X133959000Y-55179000D01*
X128605000Y-55139000D02*
X133895000Y-55139000D01*
X128671000Y-55099000D02*
X133829000Y-55099000D01*
X128740000Y-55059000D02*
X133760000Y-55059000D01*
X128811000Y-55019000D02*
X133689000Y-55019000D01*
X128885000Y-54979000D02*
X133615000Y-54979000D01*
X128961000Y-54939000D02*
X133539000Y-54939000D01*
X129041000Y-54899000D02*
X133459000Y-54899000D01*
X129125000Y-54859000D02*
X133375000Y-54859000D01*
X129213000Y-54819000D02*
X133287000Y-54819000D01*
X129306000Y-54779000D02*
X133194000Y-54779000D01*
X129404000Y-54739000D02*
X133096000Y-54739000D01*
X129508000Y-54699000D02*
X132992000Y-54699000D01*
X129620000Y-54659000D02*
X132880000Y-54659000D01*
X129740000Y-54619000D02*
X132760000Y-54619000D01*
X129872000Y-54579000D02*
X132628000Y-54579000D01*
X130020000Y-54539000D02*
X132480000Y-54539000D01*
X130188000Y-54499000D02*
X132312000Y-54499000D01*
X130388000Y-54459000D02*
X132112000Y-54459000D01*
X130651000Y-54419000D02*
X131849000Y-54419000D01*
X132491000Y-55779000D02*
X134728000Y-55779000D01*
X132491000Y-55819000D02*
X134770000Y-55819000D01*
X132491000Y-55859000D02*
X134811000Y-55859000D01*
X132491000Y-55899000D02*
X134851000Y-55899000D01*
X132491000Y-55939000D02*
X134890000Y-55939000D01*
X132491000Y-55979000D02*
X134929000Y-55979000D01*
X132491000Y-56019000D02*
X134966000Y-56019000D01*
X132491000Y-56059000D02*
X135003000Y-56059000D01*
X132491000Y-56099000D02*
X135039000Y-56099000D01*
X132491000Y-56139000D02*
X135074000Y-56139000D01*
X132491000Y-56179000D02*
X135108000Y-56179000D01*
X132491000Y-56219000D02*
X135142000Y-56219000D01*
X132491000Y-56259000D02*
X135175000Y-56259000D01*
X132491000Y-56299000D02*
X135207000Y-56299000D01*
X132491000Y-56339000D02*
X135239000Y-56339000D01*
X132491000Y-56379000D02*
X135270000Y-56379000D01*
X132491000Y-56419000D02*
X135300000Y-56419000D01*
X132491000Y-56459000D02*
X135330000Y-56459000D01*
X132491000Y-56499000D02*
X135360000Y-56499000D01*
X132491000Y-56539000D02*
X135388000Y-56539000D01*
X132491000Y-56579000D02*
X135416000Y-56579000D01*
X132491000Y-56619000D02*
X135444000Y-56619000D01*
X132491000Y-56659000D02*
X135471000Y-56659000D01*
X132491000Y-56699000D02*
X135497000Y-56699000D01*
X132491000Y-56739000D02*
X135523000Y-56739000D01*
X132491000Y-56779000D02*
X135548000Y-56779000D01*
X132491000Y-56819000D02*
X135573000Y-56819000D01*
X132491000Y-56859000D02*
X135597000Y-56859000D01*
X132491000Y-56899000D02*
X135621000Y-56899000D01*
X132491000Y-56939000D02*
X135645000Y-56939000D01*
X132491000Y-56979000D02*
X135667000Y-56979000D01*
X132491000Y-57019000D02*
X135690000Y-57019000D01*
X132491000Y-57059000D02*
X135712000Y-57059000D01*
X132491000Y-57099000D02*
X135733000Y-57099000D01*
X132491000Y-57139000D02*
X135754000Y-57139000D01*
X132491000Y-57179000D02*
X135775000Y-57179000D01*
X132491000Y-57219000D02*
X135795000Y-57219000D01*
X132491000Y-57259000D02*
X135814000Y-57259000D01*
X132491000Y-57299000D02*
X135834000Y-57299000D01*
X132491000Y-57339000D02*
X135853000Y-57339000D01*
X132491000Y-57379000D02*
X135871000Y-57379000D01*
X132491000Y-57419000D02*
X135889000Y-57419000D01*
X132491000Y-57459000D02*
X135907000Y-57459000D01*
X132491000Y-57499000D02*
X135924000Y-57499000D01*
X132491000Y-57539000D02*
X135940000Y-57539000D01*
X132491000Y-57579000D02*
X135957000Y-57579000D01*
X132491000Y-57619000D02*
X135973000Y-57619000D01*
X132491000Y-57659000D02*
X135988000Y-57659000D01*
X132491000Y-57699000D02*
X136004000Y-57699000D01*
X132491000Y-57739000D02*
X136018000Y-57739000D01*
X132491000Y-57779000D02*
X136033000Y-57779000D01*
X132491000Y-57819000D02*
X136047000Y-57819000D01*
X132491000Y-57859000D02*
X136061000Y-57859000D01*
X132491000Y-57899000D02*
X136074000Y-57899000D01*
X132491000Y-57939000D02*
X136087000Y-57939000D01*
X132491000Y-57979000D02*
X136100000Y-57979000D01*
X132491000Y-58019000D02*
X136112000Y-58019000D01*
X132491000Y-58059000D02*
X136124000Y-58059000D01*
X132491000Y-58099000D02*
X136135000Y-58099000D01*
X132491000Y-58139000D02*
X136147000Y-58139000D01*
X132491000Y-58179000D02*
X136157000Y-58179000D01*
X132491000Y-58219000D02*
X136168000Y-58219000D01*
X136370000Y-59500000D02*
G75*
G02*
X126130000Y-59500000I-5120000J0D01*
G01*
X126130000Y-59500000D02*
G75*
G02*
X136370000Y-59500000I5120000J0D01*
G01*
D12*
%TO.C,U1*%
X140020000Y-85525000D02*
X168530000Y-85525000D01*
X140020000Y-136475000D02*
X140020000Y-85525000D01*
X140020000Y-136475000D02*
X140020000Y-85525000D01*
X145470000Y-85525000D02*
X140020000Y-85525000D01*
X150750000Y-136475000D02*
X140020000Y-136475000D01*
X157461000Y-136475000D02*
X150750000Y-136475000D01*
X163160000Y-85525000D02*
X145470000Y-85525000D01*
X168530000Y-85525000D02*
X163160000Y-85525000D01*
X168530000Y-85525000D02*
X168530000Y-136475000D01*
X168530000Y-85525000D02*
X168530000Y-136475000D01*
X168530000Y-136475000D02*
X140020000Y-136475000D01*
X168530000Y-136475000D02*
X157461000Y-136475000D01*
D13*
X169200000Y-126515000D02*
G75*
G02*
X169000000Y-126515000I-100000J0D01*
G01*
X169000000Y-126515000D02*
G75*
G02*
X169200000Y-126515000I100000J0D01*
G01*
D11*
%TO.C,R2*%
X167170000Y-63057500D02*
X167170000Y-69597500D01*
X167170000Y-69597500D02*
X167500000Y-69597500D01*
X167500000Y-63057500D02*
X167170000Y-63057500D01*
X169580000Y-63057500D02*
X169910000Y-63057500D01*
X169910000Y-63057500D02*
X169910000Y-69597500D01*
X169910000Y-69597500D02*
X169580000Y-69597500D01*
%TO.C,C3*%
X101036677Y-97599000D02*
X101036677Y-96401000D01*
X101076677Y-97862000D02*
X101076677Y-96138000D01*
X101116677Y-98062000D02*
X101116677Y-95938000D01*
X101156677Y-98230000D02*
X101156677Y-95770000D01*
X101196677Y-98378000D02*
X101196677Y-95622000D01*
X101236677Y-98510000D02*
X101236677Y-95490000D01*
X101276677Y-98630000D02*
X101276677Y-95370000D01*
X101316677Y-98742000D02*
X101316677Y-95258000D01*
X101356677Y-98846000D02*
X101356677Y-95154000D01*
X101396677Y-98944000D02*
X101396677Y-95056000D01*
X101436677Y-99037000D02*
X101436677Y-94963000D01*
X101476677Y-99125000D02*
X101476677Y-94875000D01*
X101516677Y-99209000D02*
X101516677Y-94791000D01*
X101556677Y-99289000D02*
X101556677Y-94711000D01*
X101596677Y-99365000D02*
X101596677Y-94635000D01*
X101636677Y-99439000D02*
X101636677Y-94561000D01*
X101676677Y-99510000D02*
X101676677Y-94490000D01*
X101716677Y-99579000D02*
X101716677Y-94421000D01*
X101756677Y-99645000D02*
X101756677Y-94355000D01*
X101796677Y-99709000D02*
X101796677Y-94291000D01*
X101836677Y-99770000D02*
X101836677Y-94230000D01*
X101876677Y-99830000D02*
X101876677Y-94170000D01*
X101916677Y-99889000D02*
X101916677Y-94111000D01*
X101956677Y-99945000D02*
X101956677Y-94055000D01*
X101996677Y-100000000D02*
X101996677Y-94000000D01*
X102036677Y-100054000D02*
X102036677Y-93946000D01*
X102076677Y-100106000D02*
X102076677Y-93894000D01*
X102116677Y-100156000D02*
X102116677Y-93844000D01*
X102156677Y-100206000D02*
X102156677Y-93794000D01*
X102196677Y-100254000D02*
X102196677Y-93746000D01*
X102236677Y-100301000D02*
X102236677Y-93699000D01*
X102276677Y-100347000D02*
X102276677Y-93653000D01*
X102316677Y-100392000D02*
X102316677Y-93608000D01*
X102356677Y-100436000D02*
X102356677Y-93564000D01*
X102396677Y-95759000D02*
X102396677Y-93522000D01*
X102396677Y-100478000D02*
X102396677Y-98241000D01*
X102436677Y-95759000D02*
X102436677Y-93480000D01*
X102436677Y-100520000D02*
X102436677Y-98241000D01*
X102476677Y-95759000D02*
X102476677Y-93439000D01*
X102476677Y-100561000D02*
X102476677Y-98241000D01*
X102516677Y-95759000D02*
X102516677Y-93399000D01*
X102516677Y-100601000D02*
X102516677Y-98241000D01*
X102556677Y-95759000D02*
X102556677Y-93360000D01*
X102556677Y-100640000D02*
X102556677Y-98241000D01*
X102596677Y-95759000D02*
X102596677Y-93321000D01*
X102596677Y-100679000D02*
X102596677Y-98241000D01*
X102636677Y-95759000D02*
X102636677Y-93284000D01*
X102636677Y-100716000D02*
X102636677Y-98241000D01*
X102676677Y-95759000D02*
X102676677Y-93247000D01*
X102676677Y-100753000D02*
X102676677Y-98241000D01*
X102716677Y-95759000D02*
X102716677Y-93211000D01*
X102716677Y-100789000D02*
X102716677Y-98241000D01*
X102756677Y-95759000D02*
X102756677Y-93176000D01*
X102756677Y-100824000D02*
X102756677Y-98241000D01*
X102796677Y-95759000D02*
X102796677Y-93142000D01*
X102796677Y-100858000D02*
X102796677Y-98241000D01*
X102836677Y-95759000D02*
X102836677Y-93108000D01*
X102836677Y-100892000D02*
X102836677Y-98241000D01*
X102876677Y-95759000D02*
X102876677Y-93075000D01*
X102876677Y-100925000D02*
X102876677Y-98241000D01*
X102916677Y-95759000D02*
X102916677Y-93043000D01*
X102916677Y-100957000D02*
X102916677Y-98241000D01*
X102956677Y-95759000D02*
X102956677Y-93011000D01*
X102956677Y-100989000D02*
X102956677Y-98241000D01*
X102996677Y-95759000D02*
X102996677Y-92980000D01*
X102996677Y-101020000D02*
X102996677Y-98241000D01*
X103036677Y-95759000D02*
X103036677Y-92950000D01*
X103036677Y-101050000D02*
X103036677Y-98241000D01*
X103076677Y-95759000D02*
X103076677Y-92920000D01*
X103076677Y-101080000D02*
X103076677Y-98241000D01*
X103116677Y-95759000D02*
X103116677Y-92890000D01*
X103116677Y-101110000D02*
X103116677Y-98241000D01*
X103156677Y-95759000D02*
X103156677Y-92862000D01*
X103156677Y-101138000D02*
X103156677Y-98241000D01*
X103196677Y-95759000D02*
X103196677Y-92834000D01*
X103196677Y-101166000D02*
X103196677Y-98241000D01*
X103236677Y-95759000D02*
X103236677Y-92806000D01*
X103236677Y-101194000D02*
X103236677Y-98241000D01*
X103276677Y-95759000D02*
X103276677Y-92779000D01*
X103276677Y-101221000D02*
X103276677Y-98241000D01*
X103316677Y-95759000D02*
X103316677Y-92753000D01*
X103316677Y-101247000D02*
X103316677Y-98241000D01*
X103356677Y-95759000D02*
X103356677Y-92727000D01*
X103356677Y-101273000D02*
X103356677Y-98241000D01*
X103396677Y-95759000D02*
X103396677Y-92702000D01*
X103396677Y-101298000D02*
X103396677Y-98241000D01*
X103436677Y-95759000D02*
X103436677Y-92677000D01*
X103436677Y-101323000D02*
X103436677Y-98241000D01*
X103476677Y-95759000D02*
X103476677Y-92653000D01*
X103476677Y-101347000D02*
X103476677Y-98241000D01*
X103516677Y-95759000D02*
X103516677Y-92629000D01*
X103516677Y-101371000D02*
X103516677Y-98241000D01*
X103556677Y-95759000D02*
X103556677Y-92605000D01*
X103556677Y-101395000D02*
X103556677Y-98241000D01*
X103596677Y-95759000D02*
X103596677Y-92583000D01*
X103596677Y-101417000D02*
X103596677Y-98241000D01*
X103636677Y-95759000D02*
X103636677Y-92560000D01*
X103636677Y-101440000D02*
X103636677Y-98241000D01*
X103676677Y-95759000D02*
X103676677Y-92538000D01*
X103676677Y-101462000D02*
X103676677Y-98241000D01*
X103716677Y-95759000D02*
X103716677Y-92517000D01*
X103716677Y-101483000D02*
X103716677Y-98241000D01*
X103756677Y-95759000D02*
X103756677Y-92496000D01*
X103756677Y-101504000D02*
X103756677Y-98241000D01*
X103796677Y-95759000D02*
X103796677Y-92475000D01*
X103796677Y-101525000D02*
X103796677Y-98241000D01*
X103836677Y-95759000D02*
X103836677Y-92455000D01*
X103836677Y-101545000D02*
X103836677Y-98241000D01*
X103876677Y-95759000D02*
X103876677Y-92436000D01*
X103876677Y-101564000D02*
X103876677Y-98241000D01*
X103916677Y-95759000D02*
X103916677Y-92416000D01*
X103916677Y-101584000D02*
X103916677Y-98241000D01*
X103956677Y-95759000D02*
X103956677Y-92397000D01*
X103956677Y-101603000D02*
X103956677Y-98241000D01*
X103996677Y-95759000D02*
X103996677Y-92379000D01*
X103996677Y-101621000D02*
X103996677Y-98241000D01*
X104036677Y-95759000D02*
X104036677Y-92361000D01*
X104036677Y-101639000D02*
X104036677Y-98241000D01*
X104076677Y-95759000D02*
X104076677Y-92343000D01*
X104076677Y-101657000D02*
X104076677Y-98241000D01*
X104116677Y-95759000D02*
X104116677Y-92326000D01*
X104116677Y-101674000D02*
X104116677Y-98241000D01*
X104156677Y-95759000D02*
X104156677Y-92310000D01*
X104156677Y-101690000D02*
X104156677Y-98241000D01*
X104196677Y-95759000D02*
X104196677Y-92293000D01*
X104196677Y-101707000D02*
X104196677Y-98241000D01*
X104236677Y-95759000D02*
X104236677Y-92277000D01*
X104236677Y-101723000D02*
X104236677Y-98241000D01*
X104276677Y-95759000D02*
X104276677Y-92262000D01*
X104276677Y-101738000D02*
X104276677Y-98241000D01*
X104316677Y-95759000D02*
X104316677Y-92246000D01*
X104316677Y-101754000D02*
X104316677Y-98241000D01*
X104356677Y-95759000D02*
X104356677Y-92232000D01*
X104356677Y-101768000D02*
X104356677Y-98241000D01*
X104396677Y-95759000D02*
X104396677Y-92217000D01*
X104396677Y-101783000D02*
X104396677Y-98241000D01*
X104436677Y-95759000D02*
X104436677Y-92203000D01*
X104436677Y-101797000D02*
X104436677Y-98241000D01*
X104476677Y-95759000D02*
X104476677Y-92189000D01*
X104476677Y-101811000D02*
X104476677Y-98241000D01*
X104516677Y-95759000D02*
X104516677Y-92176000D01*
X104516677Y-101824000D02*
X104516677Y-98241000D01*
X104556677Y-95759000D02*
X104556677Y-92163000D01*
X104556677Y-101837000D02*
X104556677Y-98241000D01*
X104596677Y-95759000D02*
X104596677Y-92150000D01*
X104596677Y-101850000D02*
X104596677Y-98241000D01*
X104636677Y-95759000D02*
X104636677Y-92138000D01*
X104636677Y-101862000D02*
X104636677Y-98241000D01*
X104676677Y-95759000D02*
X104676677Y-92126000D01*
X104676677Y-101874000D02*
X104676677Y-98241000D01*
X104716677Y-95759000D02*
X104716677Y-92115000D01*
X104716677Y-101885000D02*
X104716677Y-98241000D01*
X104756677Y-95759000D02*
X104756677Y-92103000D01*
X104756677Y-101897000D02*
X104756677Y-98241000D01*
X104796677Y-95759000D02*
X104796677Y-92093000D01*
X104796677Y-101907000D02*
X104796677Y-98241000D01*
X104836677Y-95759000D02*
X104836677Y-92082000D01*
X104836677Y-101918000D02*
X104836677Y-98241000D01*
X104876677Y-101928000D02*
X104876677Y-92072000D01*
X104916677Y-101938000D02*
X104916677Y-92062000D01*
X104956677Y-101947000D02*
X104956677Y-92053000D01*
X104996677Y-101956000D02*
X104996677Y-92044000D01*
X105036677Y-101965000D02*
X105036677Y-92035000D01*
X105076677Y-101974000D02*
X105076677Y-92026000D01*
X105116677Y-101982000D02*
X105116677Y-92018000D01*
X105156677Y-101990000D02*
X105156677Y-92010000D01*
X105196677Y-101997000D02*
X105196677Y-92003000D01*
X105236677Y-102004000D02*
X105236677Y-91996000D01*
X105276677Y-102011000D02*
X105276677Y-91989000D01*
X105316677Y-102018000D02*
X105316677Y-91982000D01*
X105356677Y-102024000D02*
X105356677Y-91976000D01*
X105396677Y-102030000D02*
X105396677Y-91970000D01*
X105437677Y-102035000D02*
X105437677Y-91965000D01*
X105477677Y-102040000D02*
X105477677Y-91960000D01*
X105517677Y-102045000D02*
X105517677Y-91955000D01*
X105557677Y-102050000D02*
X105557677Y-91950000D01*
X105597677Y-102054000D02*
X105597677Y-91946000D01*
X105637677Y-102058000D02*
X105637677Y-91942000D01*
X105677677Y-102062000D02*
X105677677Y-91938000D01*
X105717677Y-102065000D02*
X105717677Y-91935000D01*
X105757677Y-102068000D02*
X105757677Y-91932000D01*
X105797677Y-102070000D02*
X105797677Y-91930000D01*
X105837677Y-102073000D02*
X105837677Y-91927000D01*
X105877677Y-102075000D02*
X105877677Y-91925000D01*
X105917677Y-102077000D02*
X105917677Y-91923000D01*
X105957677Y-102078000D02*
X105957677Y-91922000D01*
X105997677Y-102079000D02*
X105997677Y-91921000D01*
X106037677Y-102080000D02*
X106037677Y-91920000D01*
X106077677Y-102080000D02*
X106077677Y-91920000D01*
X106117677Y-102080000D02*
X106117677Y-91920000D01*
X111097323Y-100375000D02*
X111097323Y-99375000D01*
X111597323Y-99875000D02*
X110597323Y-99875000D01*
X111237677Y-97000000D02*
G75*
G02*
X100997677Y-97000000I-5120000J0D01*
G01*
X100997677Y-97000000D02*
G75*
G02*
X111237677Y-97000000I5120000J0D01*
G01*
%TO.C,J5*%
X103570000Y-85305000D02*
X103570000Y-83975000D01*
X104900000Y-85305000D02*
X103570000Y-85305000D01*
X106170000Y-82645000D02*
X111310000Y-82645000D01*
X106170000Y-85305000D02*
X106170000Y-82645000D01*
X106170000Y-85305000D02*
X111310000Y-85305000D01*
X111310000Y-85305000D02*
X111310000Y-82645000D01*
%TO.C,D3*%
X163210000Y-52172500D02*
X163610000Y-52172500D01*
X163210000Y-53292500D02*
X163210000Y-52172500D01*
X163610000Y-52172500D02*
X163610000Y-53292500D01*
X163610000Y-53292500D02*
X163210000Y-53292500D01*
X163610000Y-53292500D02*
X163610000Y-49432500D01*
X163900000Y-53292500D02*
X163900000Y-53292500D01*
X163900000Y-53292500D02*
X163900000Y-58502500D01*
X163900000Y-58502500D02*
X163900000Y-53292500D01*
X163900000Y-58502500D02*
X163900000Y-58502500D01*
X166440000Y-53292500D02*
X166440000Y-53292500D01*
X166440000Y-53292500D02*
X166440000Y-58502500D01*
X166440000Y-58502500D02*
X166440000Y-53292500D01*
X166440000Y-58502500D02*
X166440000Y-58502500D01*
X166730000Y-53292500D02*
X163610000Y-53292500D01*
X166730000Y-53292500D02*
X166730000Y-49432500D01*
X163610000Y-49432500D02*
G75*
G02*
X166730000Y-49432500I1560000J0D01*
G01*
%TO.C,D1*%
X177310000Y-52172500D02*
X177710000Y-52172500D01*
X177310000Y-53292500D02*
X177310000Y-52172500D01*
X177710000Y-52172500D02*
X177710000Y-53292500D01*
X177710000Y-53292500D02*
X177310000Y-53292500D01*
X177710000Y-53292500D02*
X177710000Y-49432500D01*
X178000000Y-53292500D02*
X178000000Y-53292500D01*
X178000000Y-53292500D02*
X178000000Y-58502500D01*
X178000000Y-58502500D02*
X178000000Y-53292500D01*
X178000000Y-58502500D02*
X178000000Y-58502500D01*
X180540000Y-53292500D02*
X180540000Y-53292500D01*
X180540000Y-53292500D02*
X180540000Y-58502500D01*
X180540000Y-58502500D02*
X180540000Y-53292500D01*
X180540000Y-58502500D02*
X180540000Y-58502500D01*
X180830000Y-53292500D02*
X177710000Y-53292500D01*
X180830000Y-53292500D02*
X180830000Y-49432500D01*
X177710000Y-49432500D02*
G75*
G02*
X180830000Y-49432500I1560000J0D01*
G01*
%TO.C,J8*%
X103555000Y-69305000D02*
X103555000Y-67975000D01*
X104885000Y-69305000D02*
X103555000Y-69305000D01*
X106155000Y-66645000D02*
X111295000Y-66645000D01*
X106155000Y-69305000D02*
X106155000Y-66645000D01*
X106155000Y-69305000D02*
X111295000Y-69305000D01*
X111295000Y-69305000D02*
X111295000Y-66645000D01*
%TO.C,J6*%
X103595000Y-77305000D02*
X103595000Y-75975000D01*
X104925000Y-77305000D02*
X103595000Y-77305000D01*
X106195000Y-74645000D02*
X111335000Y-74645000D01*
X106195000Y-77305000D02*
X106195000Y-74645000D01*
X106195000Y-77305000D02*
X111335000Y-77305000D01*
X111335000Y-77305000D02*
X111335000Y-74645000D01*
%TO.C,J10*%
X103600000Y-89305000D02*
X103600000Y-87975000D01*
X104930000Y-89305000D02*
X103600000Y-89305000D01*
X106200000Y-86645000D02*
X111340000Y-86645000D01*
X106200000Y-89305000D02*
X106200000Y-86645000D01*
X106200000Y-89305000D02*
X111340000Y-89305000D01*
X111340000Y-89305000D02*
X111340000Y-86645000D01*
%TO.C,R3*%
X159670000Y-63247500D02*
X159670000Y-69787500D01*
X159670000Y-69787500D02*
X160000000Y-69787500D01*
X160000000Y-63247500D02*
X159670000Y-63247500D01*
X162080000Y-63247500D02*
X162410000Y-63247500D01*
X162410000Y-63247500D02*
X162410000Y-69787500D01*
X162410000Y-69787500D02*
X162080000Y-69787500D01*
%TO.C,C2*%
X111170000Y-59420000D02*
X121330000Y-59420000D01*
X111170000Y-59460000D02*
X121330000Y-59460000D01*
X111170000Y-59500000D02*
X121330000Y-59500000D01*
X111171000Y-59380000D02*
X121329000Y-59380000D01*
X111172000Y-59340000D02*
X121328000Y-59340000D01*
X111173000Y-59300000D02*
X121327000Y-59300000D01*
X111175000Y-59260000D02*
X121325000Y-59260000D01*
X111177000Y-59220000D02*
X121323000Y-59220000D01*
X111180000Y-59180000D02*
X121320000Y-59180000D01*
X111182000Y-59140000D02*
X121318000Y-59140000D01*
X111185000Y-59100000D02*
X121315000Y-59100000D01*
X111188000Y-59060000D02*
X121312000Y-59060000D01*
X111192000Y-59020000D02*
X121308000Y-59020000D01*
X111196000Y-58980000D02*
X121304000Y-58980000D01*
X111200000Y-58940000D02*
X121300000Y-58940000D01*
X111205000Y-58900000D02*
X121295000Y-58900000D01*
X111210000Y-58860000D02*
X121290000Y-58860000D01*
X111215000Y-58820000D02*
X121285000Y-58820000D01*
X111220000Y-58779000D02*
X121280000Y-58779000D01*
X111226000Y-58739000D02*
X121274000Y-58739000D01*
X111232000Y-58699000D02*
X121268000Y-58699000D01*
X111239000Y-58659000D02*
X121261000Y-58659000D01*
X111246000Y-58619000D02*
X121254000Y-58619000D01*
X111253000Y-58579000D02*
X121247000Y-58579000D01*
X111260000Y-58539000D02*
X121240000Y-58539000D01*
X111268000Y-58499000D02*
X121232000Y-58499000D01*
X111276000Y-58459000D02*
X121224000Y-58459000D01*
X111285000Y-58419000D02*
X121215000Y-58419000D01*
X111294000Y-58379000D02*
X121206000Y-58379000D01*
X111303000Y-58339000D02*
X121197000Y-58339000D01*
X111312000Y-58299000D02*
X121188000Y-58299000D01*
X111322000Y-58259000D02*
X121178000Y-58259000D01*
X111332000Y-58219000D02*
X115009000Y-58219000D01*
X111343000Y-58179000D02*
X115009000Y-58179000D01*
X111353000Y-58139000D02*
X115009000Y-58139000D01*
X111365000Y-58099000D02*
X115009000Y-58099000D01*
X111376000Y-58059000D02*
X115009000Y-58059000D01*
X111388000Y-58019000D02*
X115009000Y-58019000D01*
X111400000Y-57979000D02*
X115009000Y-57979000D01*
X111413000Y-57939000D02*
X115009000Y-57939000D01*
X111426000Y-57899000D02*
X115009000Y-57899000D01*
X111439000Y-57859000D02*
X115009000Y-57859000D01*
X111453000Y-57819000D02*
X115009000Y-57819000D01*
X111467000Y-57779000D02*
X115009000Y-57779000D01*
X111482000Y-57739000D02*
X115009000Y-57739000D01*
X111496000Y-57699000D02*
X115009000Y-57699000D01*
X111512000Y-57659000D02*
X115009000Y-57659000D01*
X111527000Y-57619000D02*
X115009000Y-57619000D01*
X111543000Y-57579000D02*
X115009000Y-57579000D01*
X111560000Y-57539000D02*
X115009000Y-57539000D01*
X111576000Y-57499000D02*
X115009000Y-57499000D01*
X111593000Y-57459000D02*
X115009000Y-57459000D01*
X111611000Y-57419000D02*
X115009000Y-57419000D01*
X111629000Y-57379000D02*
X115009000Y-57379000D01*
X111647000Y-57339000D02*
X115009000Y-57339000D01*
X111666000Y-57299000D02*
X115009000Y-57299000D01*
X111686000Y-57259000D02*
X115009000Y-57259000D01*
X111705000Y-57219000D02*
X115009000Y-57219000D01*
X111725000Y-57179000D02*
X115009000Y-57179000D01*
X111746000Y-57139000D02*
X115009000Y-57139000D01*
X111767000Y-57099000D02*
X115009000Y-57099000D01*
X111788000Y-57059000D02*
X115009000Y-57059000D01*
X111810000Y-57019000D02*
X115009000Y-57019000D01*
X111833000Y-56979000D02*
X115009000Y-56979000D01*
X111855000Y-56939000D02*
X115009000Y-56939000D01*
X111879000Y-56899000D02*
X115009000Y-56899000D01*
X111903000Y-56859000D02*
X115009000Y-56859000D01*
X111927000Y-56819000D02*
X115009000Y-56819000D01*
X111952000Y-56779000D02*
X115009000Y-56779000D01*
X111977000Y-56739000D02*
X115009000Y-56739000D01*
X112003000Y-56699000D02*
X115009000Y-56699000D01*
X112029000Y-56659000D02*
X115009000Y-56659000D01*
X112056000Y-56619000D02*
X115009000Y-56619000D01*
X112084000Y-56579000D02*
X115009000Y-56579000D01*
X112112000Y-56539000D02*
X115009000Y-56539000D01*
X112140000Y-56499000D02*
X115009000Y-56499000D01*
X112170000Y-56459000D02*
X115009000Y-56459000D01*
X112200000Y-56419000D02*
X115009000Y-56419000D01*
X112230000Y-56379000D02*
X115009000Y-56379000D01*
X112261000Y-56339000D02*
X115009000Y-56339000D01*
X112293000Y-56299000D02*
X115009000Y-56299000D01*
X112325000Y-56259000D02*
X115009000Y-56259000D01*
X112358000Y-56219000D02*
X115009000Y-56219000D01*
X112392000Y-56179000D02*
X115009000Y-56179000D01*
X112426000Y-56139000D02*
X115009000Y-56139000D01*
X112461000Y-56099000D02*
X115009000Y-56099000D01*
X112497000Y-56059000D02*
X115009000Y-56059000D01*
X112534000Y-56019000D02*
X115009000Y-56019000D01*
X112571000Y-55979000D02*
X115009000Y-55979000D01*
X112610000Y-55939000D02*
X115009000Y-55939000D01*
X112649000Y-55899000D02*
X115009000Y-55899000D01*
X112689000Y-55859000D02*
X115009000Y-55859000D01*
X112730000Y-55819000D02*
X115009000Y-55819000D01*
X112772000Y-55779000D02*
X115009000Y-55779000D01*
X112814000Y-55739000D02*
X119686000Y-55739000D01*
X112858000Y-55699000D02*
X119642000Y-55699000D01*
X112875000Y-64479646D02*
X113875000Y-64479646D01*
X112903000Y-55659000D02*
X119597000Y-55659000D01*
X112949000Y-55619000D02*
X119551000Y-55619000D01*
X112996000Y-55579000D02*
X119504000Y-55579000D01*
X113044000Y-55539000D02*
X119456000Y-55539000D01*
X113094000Y-55499000D02*
X119406000Y-55499000D01*
X113144000Y-55459000D02*
X119356000Y-55459000D01*
X113196000Y-55419000D02*
X119304000Y-55419000D01*
X113250000Y-55379000D02*
X119250000Y-55379000D01*
X113305000Y-55339000D02*
X119195000Y-55339000D01*
X113361000Y-55299000D02*
X119139000Y-55299000D01*
X113375000Y-64979646D02*
X113375000Y-63979646D01*
X113420000Y-55259000D02*
X119080000Y-55259000D01*
X113480000Y-55219000D02*
X119020000Y-55219000D01*
X113541000Y-55179000D02*
X118959000Y-55179000D01*
X113605000Y-55139000D02*
X118895000Y-55139000D01*
X113671000Y-55099000D02*
X118829000Y-55099000D01*
X113740000Y-55059000D02*
X118760000Y-55059000D01*
X113811000Y-55019000D02*
X118689000Y-55019000D01*
X113885000Y-54979000D02*
X118615000Y-54979000D01*
X113961000Y-54939000D02*
X118539000Y-54939000D01*
X114041000Y-54899000D02*
X118459000Y-54899000D01*
X114125000Y-54859000D02*
X118375000Y-54859000D01*
X114213000Y-54819000D02*
X118287000Y-54819000D01*
X114306000Y-54779000D02*
X118194000Y-54779000D01*
X114404000Y-54739000D02*
X118096000Y-54739000D01*
X114508000Y-54699000D02*
X117992000Y-54699000D01*
X114620000Y-54659000D02*
X117880000Y-54659000D01*
X114740000Y-54619000D02*
X117760000Y-54619000D01*
X114872000Y-54579000D02*
X117628000Y-54579000D01*
X115020000Y-54539000D02*
X117480000Y-54539000D01*
X115188000Y-54499000D02*
X117312000Y-54499000D01*
X115388000Y-54459000D02*
X117112000Y-54459000D01*
X115651000Y-54419000D02*
X116849000Y-54419000D01*
X117491000Y-55779000D02*
X119728000Y-55779000D01*
X117491000Y-55819000D02*
X119770000Y-55819000D01*
X117491000Y-55859000D02*
X119811000Y-55859000D01*
X117491000Y-55899000D02*
X119851000Y-55899000D01*
X117491000Y-55939000D02*
X119890000Y-55939000D01*
X117491000Y-55979000D02*
X119929000Y-55979000D01*
X117491000Y-56019000D02*
X119966000Y-56019000D01*
X117491000Y-56059000D02*
X120003000Y-56059000D01*
X117491000Y-56099000D02*
X120039000Y-56099000D01*
X117491000Y-56139000D02*
X120074000Y-56139000D01*
X117491000Y-56179000D02*
X120108000Y-56179000D01*
X117491000Y-56219000D02*
X120142000Y-56219000D01*
X117491000Y-56259000D02*
X120175000Y-56259000D01*
X117491000Y-56299000D02*
X120207000Y-56299000D01*
X117491000Y-56339000D02*
X120239000Y-56339000D01*
X117491000Y-56379000D02*
X120270000Y-56379000D01*
X117491000Y-56419000D02*
X120300000Y-56419000D01*
X117491000Y-56459000D02*
X120330000Y-56459000D01*
X117491000Y-56499000D02*
X120360000Y-56499000D01*
X117491000Y-56539000D02*
X120388000Y-56539000D01*
X117491000Y-56579000D02*
X120416000Y-56579000D01*
X117491000Y-56619000D02*
X120444000Y-56619000D01*
X117491000Y-56659000D02*
X120471000Y-56659000D01*
X117491000Y-56699000D02*
X120497000Y-56699000D01*
X117491000Y-56739000D02*
X120523000Y-56739000D01*
X117491000Y-56779000D02*
X120548000Y-56779000D01*
X117491000Y-56819000D02*
X120573000Y-56819000D01*
X117491000Y-56859000D02*
X120597000Y-56859000D01*
X117491000Y-56899000D02*
X120621000Y-56899000D01*
X117491000Y-56939000D02*
X120645000Y-56939000D01*
X117491000Y-56979000D02*
X120667000Y-56979000D01*
X117491000Y-57019000D02*
X120690000Y-57019000D01*
X117491000Y-57059000D02*
X120712000Y-57059000D01*
X117491000Y-57099000D02*
X120733000Y-57099000D01*
X117491000Y-57139000D02*
X120754000Y-57139000D01*
X117491000Y-57179000D02*
X120775000Y-57179000D01*
X117491000Y-57219000D02*
X120795000Y-57219000D01*
X117491000Y-57259000D02*
X120814000Y-57259000D01*
X117491000Y-57299000D02*
X120834000Y-57299000D01*
X117491000Y-57339000D02*
X120853000Y-57339000D01*
X117491000Y-57379000D02*
X120871000Y-57379000D01*
X117491000Y-57419000D02*
X120889000Y-57419000D01*
X117491000Y-57459000D02*
X120907000Y-57459000D01*
X117491000Y-57499000D02*
X120924000Y-57499000D01*
X117491000Y-57539000D02*
X120940000Y-57539000D01*
X117491000Y-57579000D02*
X120957000Y-57579000D01*
X117491000Y-57619000D02*
X120973000Y-57619000D01*
X117491000Y-57659000D02*
X120988000Y-57659000D01*
X117491000Y-57699000D02*
X121004000Y-57699000D01*
X117491000Y-57739000D02*
X121018000Y-57739000D01*
X117491000Y-57779000D02*
X121033000Y-57779000D01*
X117491000Y-57819000D02*
X121047000Y-57819000D01*
X117491000Y-57859000D02*
X121061000Y-57859000D01*
X117491000Y-57899000D02*
X121074000Y-57899000D01*
X117491000Y-57939000D02*
X121087000Y-57939000D01*
X117491000Y-57979000D02*
X121100000Y-57979000D01*
X117491000Y-58019000D02*
X121112000Y-58019000D01*
X117491000Y-58059000D02*
X121124000Y-58059000D01*
X117491000Y-58099000D02*
X121135000Y-58099000D01*
X117491000Y-58139000D02*
X121147000Y-58139000D01*
X117491000Y-58179000D02*
X121157000Y-58179000D01*
X117491000Y-58219000D02*
X121168000Y-58219000D01*
X121370000Y-59500000D02*
G75*
G02*
X111130000Y-59500000I-5120000J0D01*
G01*
X111130000Y-59500000D02*
G75*
G02*
X121370000Y-59500000I5120000J0D01*
G01*
%TO.C,J2*%
X117950000Y-126450000D02*
X117950000Y-125400000D01*
X118150000Y-125600000D02*
X120750000Y-125600000D01*
X118150000Y-140300000D02*
X118150000Y-125600000D01*
X119000000Y-125400000D02*
X117950000Y-125400000D01*
X124650000Y-125600000D02*
X127350000Y-125600000D01*
X127350000Y-125600000D02*
X127350000Y-127500000D01*
X127350000Y-131500000D02*
X127350000Y-140300000D01*
X127350000Y-140300000D02*
X118150000Y-140300000D01*
%TO.C,J9*%
X103595000Y-81305000D02*
X103595000Y-79975000D01*
X104925000Y-81305000D02*
X103595000Y-81305000D01*
X106195000Y-78645000D02*
X111335000Y-78645000D01*
X106195000Y-81305000D02*
X106195000Y-78645000D01*
X106195000Y-81305000D02*
X111335000Y-81305000D01*
X111335000Y-81305000D02*
X111335000Y-78645000D01*
%TD*%
M02*
