%TF.GenerationSoftware,KiCad,Pcbnew,8.0.4*%
%TF.CreationDate,2024-09-01T22:04:34-05:00*%
%TF.ProjectId,CNC-BOT ESP32,434e432d-424f-4542-9045-535033322e6b,rev?*%
%TF.SameCoordinates,Original*%
%TF.FileFunction,Soldermask,Bot*%
%TF.FilePolarity,Negative*%
%FSLAX46Y46*%
G04 Gerber Fmt 4.6, Leading zero omitted, Abs format (unit mm)*
G04 Created by KiCad (PCBNEW 8.0.4) date 2024-09-01 22:04:34*
%MOMM*%
%LPD*%
G01*
G04 APERTURE LIST*
G04 Aperture macros list*
%AMRoundRect*
0 Rectangle with rounded corners*
0 $1 Rounding radius*
0 $2 $3 $4 $5 $6 $7 $8 $9 X,Y pos of 4 corners*
0 Add a 4 corners polygon primitive as box body*
4,1,4,$2,$3,$4,$5,$6,$7,$8,$9,$2,$3,0*
0 Add four circle primitives for the rounded corners*
1,1,$1+$1,$2,$3*
1,1,$1+$1,$4,$5*
1,1,$1+$1,$6,$7*
1,1,$1+$1,$8,$9*
0 Add four rect primitives between the rounded corners*
20,1,$1+$1,$2,$3,$4,$5,0*
20,1,$1+$1,$4,$5,$6,$7,0*
20,1,$1+$1,$6,$7,$8,$9,0*
20,1,$1+$1,$8,$9,$2,$3,0*%
G04 Aperture macros list end*
%ADD10C,1.600000*%
%ADD11O,1.600000X1.600000*%
%ADD12C,2.200000*%
%ADD13R,1.700000X1.700000*%
%ADD14O,1.700000X1.700000*%
%ADD15R,1.800000X1.800000*%
%ADD16C,1.800000*%
%ADD17R,2.000000X2.000000*%
%ADD18C,2.000000*%
%ADD19C,3.000000*%
%ADD20RoundRect,0.102000X1.000000X1.000000X-1.000000X1.000000X-1.000000X-1.000000X1.000000X-1.000000X0*%
%ADD21C,2.204000*%
%ADD22R,3.500000X3.500000*%
%ADD23RoundRect,0.750000X1.000000X-0.750000X1.000000X0.750000X-1.000000X0.750000X-1.000000X-0.750000X0*%
%ADD24RoundRect,0.875000X0.875000X-0.875000X0.875000X0.875000X-0.875000X0.875000X-0.875000X-0.875000X0*%
G04 APERTURE END LIST*
D10*
%TO.C,R1*%
X175540000Y-62397500D03*
D11*
X175540000Y-70017500D03*
%TD*%
D12*
%TO.C,REF\u002A\u002A*%
X99250000Y-133500000D03*
%TD*%
D13*
%TO.C,J7*%
X104925000Y-71975000D03*
D14*
X107465000Y-71975000D03*
X110005000Y-71975000D03*
%TD*%
D15*
%TO.C,D2*%
X173540000Y-59582500D03*
D16*
X171000000Y-59582500D03*
%TD*%
D17*
%TO.C,C1*%
X131250000Y-62000000D03*
D18*
X131250000Y-57000000D03*
%TD*%
D19*
%TO.C,U1*%
X166530000Y-134475000D03*
X166530000Y-87525000D03*
X142020000Y-134475000D03*
X142020000Y-87525000D03*
D20*
X166950000Y-126515000D03*
D21*
X166950000Y-123975000D03*
X166950000Y-121435000D03*
X166950000Y-118895000D03*
X166950000Y-116355000D03*
X166950000Y-113815000D03*
X166950000Y-111275000D03*
X166950000Y-108735000D03*
X166950000Y-106195000D03*
X166950000Y-103655000D03*
X166950000Y-101115000D03*
X166950000Y-98575000D03*
X166950000Y-96035000D03*
X166950000Y-93495000D03*
X166950000Y-90955000D03*
X141550000Y-90955000D03*
X141550000Y-93495000D03*
X141550000Y-96035000D03*
X141550000Y-98575000D03*
X141550000Y-101115000D03*
X141550000Y-103655000D03*
X141550000Y-106195000D03*
X141550000Y-108735000D03*
X141550000Y-111275000D03*
X141550000Y-113815000D03*
X141550000Y-116355000D03*
X141550000Y-118895000D03*
X141550000Y-121435000D03*
X141550000Y-123975000D03*
X141550000Y-126515000D03*
%TD*%
D12*
%TO.C,*%
X189250000Y-51500000D03*
%TD*%
D10*
%TO.C,R2*%
X168540000Y-62517500D03*
D11*
X168540000Y-70137500D03*
%TD*%
D17*
%TO.C,C3*%
X108617677Y-97000000D03*
D18*
X103617677Y-97000000D03*
%TD*%
D13*
%TO.C,J5*%
X104900000Y-83975000D03*
D14*
X107440000Y-83975000D03*
X109980000Y-83975000D03*
%TD*%
D15*
%TO.C,D3*%
X166440000Y-59582500D03*
D16*
X163900000Y-59582500D03*
%TD*%
D15*
%TO.C,D1*%
X180540000Y-59582500D03*
D16*
X178000000Y-59582500D03*
%TD*%
D13*
%TO.C,J8*%
X104885000Y-67975000D03*
D14*
X107425000Y-67975000D03*
X109965000Y-67975000D03*
%TD*%
D13*
%TO.C,J6*%
X104925000Y-75975000D03*
D14*
X107465000Y-75975000D03*
X110005000Y-75975000D03*
%TD*%
D13*
%TO.C,J10*%
X104930000Y-87975000D03*
D14*
X107470000Y-87975000D03*
X110010000Y-87975000D03*
%TD*%
D10*
%TO.C,R3*%
X161040000Y-62707500D03*
D11*
X161040000Y-70327500D03*
%TD*%
D17*
%TO.C,C2*%
X116250000Y-62000000D03*
D18*
X116250000Y-57000000D03*
%TD*%
D22*
%TO.C,J2*%
X122750000Y-126500000D03*
D23*
X122750000Y-132500000D03*
D24*
X127450000Y-129500000D03*
%TD*%
D12*
%TO.C,*%
X99250000Y-51500000D03*
%TD*%
D13*
%TO.C,J9*%
X104925000Y-79975000D03*
D14*
X107465000Y-79975000D03*
X110005000Y-79975000D03*
%TD*%
D12*
%TO.C,REF\u002A\u002A*%
X189250000Y-133500000D03*
%TD*%
M02*
