%TF.GenerationSoftware,KiCad,Pcbnew,8.0.4*%
%TF.CreationDate,2024-09-01T22:04:34-05:00*%
%TF.ProjectId,CNC-BOT ESP32,434e432d-424f-4542-9045-535033322e6b,rev?*%
%TF.SameCoordinates,Original*%
%TF.FileFunction,Copper,L2,Bot*%
%TF.FilePolarity,Positive*%
%FSLAX46Y46*%
G04 Gerber Fmt 4.6, Leading zero omitted, Abs format (unit mm)*
G04 Created by KiCad (PCBNEW 8.0.4) date 2024-09-01 22:04:34*
%MOMM*%
%LPD*%
G01*
G04 APERTURE LIST*
G04 Aperture macros list*
%AMRoundRect*
0 Rectangle with rounded corners*
0 $1 Rounding radius*
0 $2 $3 $4 $5 $6 $7 $8 $9 X,Y pos of 4 corners*
0 Add a 4 corners polygon primitive as box body*
4,1,4,$2,$3,$4,$5,$6,$7,$8,$9,$2,$3,0*
0 Add four circle primitives for the rounded corners*
1,1,$1+$1,$2,$3*
1,1,$1+$1,$4,$5*
1,1,$1+$1,$6,$7*
1,1,$1+$1,$8,$9*
0 Add four rect primitives between the rounded corners*
20,1,$1+$1,$2,$3,$4,$5,0*
20,1,$1+$1,$4,$5,$6,$7,0*
20,1,$1+$1,$6,$7,$8,$9,0*
20,1,$1+$1,$8,$9,$2,$3,0*%
G04 Aperture macros list end*
%TA.AperFunction,ComponentPad*%
%ADD10C,1.600000*%
%TD*%
%TA.AperFunction,ComponentPad*%
%ADD11O,1.600000X1.600000*%
%TD*%
%TA.AperFunction,ComponentPad*%
%ADD12R,1.700000X1.700000*%
%TD*%
%TA.AperFunction,ComponentPad*%
%ADD13O,1.700000X1.700000*%
%TD*%
%TA.AperFunction,ComponentPad*%
%ADD14R,1.800000X1.800000*%
%TD*%
%TA.AperFunction,ComponentPad*%
%ADD15C,1.800000*%
%TD*%
%TA.AperFunction,ComponentPad*%
%ADD16R,2.000000X2.000000*%
%TD*%
%TA.AperFunction,ComponentPad*%
%ADD17C,2.000000*%
%TD*%
%TA.AperFunction,ComponentPad*%
%ADD18R,3.500000X3.500000*%
%TD*%
%TA.AperFunction,ComponentPad*%
%ADD19RoundRect,0.750000X1.000000X-0.750000X1.000000X0.750000X-1.000000X0.750000X-1.000000X-0.750000X0*%
%TD*%
%TA.AperFunction,ComponentPad*%
%ADD20RoundRect,0.875000X0.875000X-0.875000X0.875000X0.875000X-0.875000X0.875000X-0.875000X-0.875000X0*%
%TD*%
%TA.AperFunction,ViaPad*%
%ADD21C,1.100000*%
%TD*%
%TA.AperFunction,Conductor*%
%ADD22C,1.000000*%
%TD*%
%TA.AperFunction,Conductor*%
%ADD23C,0.600000*%
%TD*%
G04 APERTURE END LIST*
D10*
%TO.P,R1,1*%
%TO.N,Net-(D1-K)*%
X175540000Y-62397500D03*
D11*
%TO.P,R1,2*%
%TO.N,/led1*%
X175540000Y-70017500D03*
%TD*%
D12*
%TO.P,J7,1,Pin_1*%
%TO.N,GND*%
X104925000Y-71975000D03*
D13*
%TO.P,J7,2,Pin_2*%
%TO.N,+5V*%
X107465000Y-71975000D03*
%TO.P,J7,3,Pin_3*%
%TO.N,/serv5*%
X110005000Y-71975000D03*
%TD*%
D14*
%TO.P,D2,1,K*%
%TO.N,Net-(D2-K)*%
X173540000Y-59582500D03*
D15*
%TO.P,D2,2,A*%
%TO.N,GND*%
X171000000Y-59582500D03*
%TD*%
D16*
%TO.P,C1,1*%
%TO.N,+5V*%
X131250000Y-62000000D03*
D17*
%TO.P,C1,2*%
%TO.N,GND*%
X131250000Y-57000000D03*
%TD*%
D16*
%TO.P,U1,1,3V3*%
%TO.N,unconnected-(U1-3V3-Pad1)*%
X166950000Y-126515000D03*
D17*
%TO.P,U1,2,GND*%
%TO.N,GND*%
X166950000Y-123975000D03*
%TO.P,U1,3,D15*%
%TO.N,/led1*%
X166950000Y-121435000D03*
%TO.P,U1,4,D2*%
%TO.N,/led2*%
X166950000Y-118895000D03*
%TO.P,U1,5,D4*%
%TO.N,/led3*%
X166950000Y-116355000D03*
%TO.P,U1,6,RX2*%
%TO.N,unconnected-(U1-RX2-Pad6)*%
X166950000Y-113815000D03*
%TO.P,U1,7,TX2*%
%TO.N,unconnected-(U1-TX2-Pad7)*%
X166950000Y-111275000D03*
%TO.P,U1,8,D5*%
%TO.N,unconnected-(U1-D5-Pad8)*%
X166950000Y-108735000D03*
%TO.P,U1,9,D18*%
%TO.N,unconnected-(U1-D18-Pad9)*%
X166950000Y-106195000D03*
%TO.P,U1,10,D19*%
%TO.N,unconnected-(U1-D19-Pad10)*%
X166950000Y-103655000D03*
%TO.P,U1,11,D21*%
%TO.N,unconnected-(U1-D21-Pad11)*%
X166950000Y-101115000D03*
%TO.P,U1,12,RX0*%
%TO.N,unconnected-(U1-RX0-Pad12)*%
X166950000Y-98575000D03*
%TO.P,U1,13,TX0*%
%TO.N,unconnected-(U1-TX0-Pad13)*%
X166950000Y-96035000D03*
%TO.P,U1,14,D22*%
%TO.N,unconnected-(U1-D22-Pad14)*%
X166950000Y-93495000D03*
%TO.P,U1,15,D23*%
%TO.N,unconnected-(U1-D23-Pad15)*%
X166950000Y-90955000D03*
%TO.P,U1,16,EN*%
%TO.N,unconnected-(U1-EN-Pad16)*%
X141550000Y-90955000D03*
%TO.P,U1,17,VP*%
%TO.N,unconnected-(U1-VP-Pad17)*%
X141550000Y-93495000D03*
%TO.P,U1,18,VN*%
%TO.N,unconnected-(U1-VN-Pad18)*%
X141550000Y-96035000D03*
%TO.P,U1,19,D34*%
%TO.N,unconnected-(U1-D34-Pad19)*%
X141550000Y-98575000D03*
%TO.P,U1,20,D35*%
%TO.N,unconnected-(U1-D35-Pad20)*%
X141550000Y-101115000D03*
%TO.P,U1,21,D32*%
%TO.N,unconnected-(U1-D32-Pad21)*%
X141550000Y-103655000D03*
%TO.P,U1,22,D33*%
%TO.N,unconnected-(U1-D33-Pad22)*%
X141550000Y-106195000D03*
%TO.P,U1,23,D25*%
%TO.N,/serv6*%
X141550000Y-108735000D03*
%TO.P,U1,24,D26*%
%TO.N,/serv5*%
X141550000Y-111275000D03*
%TO.P,U1,25,D27*%
%TO.N,/serv4*%
X141550000Y-113815000D03*
%TO.P,U1,26,D14*%
%TO.N,/serv3*%
X141550000Y-116355000D03*
%TO.P,U1,27,D12*%
%TO.N,/serv2*%
X141550000Y-118895000D03*
%TO.P,U1,28,D13*%
%TO.N,/serv1*%
X141550000Y-121435000D03*
%TO.P,U1,29,GND*%
%TO.N,GND*%
X141550000Y-123975000D03*
%TO.P,U1,30,VIN*%
%TO.N,+5V*%
X141550000Y-126515000D03*
%TD*%
D10*
%TO.P,R2,1*%
%TO.N,Net-(D2-K)*%
X168540000Y-62517500D03*
D11*
%TO.P,R2,2*%
%TO.N,/led2*%
X168540000Y-70137500D03*
%TD*%
D16*
%TO.P,C3,1*%
%TO.N,+5V*%
X108617677Y-97000000D03*
D17*
%TO.P,C3,2*%
%TO.N,GND*%
X103617677Y-97000000D03*
%TD*%
D12*
%TO.P,J5,1,Pin_1*%
%TO.N,GND*%
X104900000Y-83975000D03*
D13*
%TO.P,J5,2,Pin_2*%
%TO.N,+5V*%
X107440000Y-83975000D03*
%TO.P,J5,3,Pin_3*%
%TO.N,/serv2*%
X109980000Y-83975000D03*
%TD*%
D14*
%TO.P,D3,1,K*%
%TO.N,Net-(D3-K)*%
X166440000Y-59582500D03*
D15*
%TO.P,D3,2,A*%
%TO.N,GND*%
X163900000Y-59582500D03*
%TD*%
D14*
%TO.P,D1,1,K*%
%TO.N,Net-(D1-K)*%
X180540000Y-59582500D03*
D15*
%TO.P,D1,2,A*%
%TO.N,GND*%
X178000000Y-59582500D03*
%TD*%
D12*
%TO.P,J8,1,Pin_1*%
%TO.N,GND*%
X104885000Y-67975000D03*
D13*
%TO.P,J8,2,Pin_2*%
%TO.N,+5V*%
X107425000Y-67975000D03*
%TO.P,J8,3,Pin_3*%
%TO.N,/serv6*%
X109965000Y-67975000D03*
%TD*%
D12*
%TO.P,J6,1,Pin_1*%
%TO.N,GND*%
X104925000Y-75975000D03*
D13*
%TO.P,J6,2,Pin_2*%
%TO.N,+5V*%
X107465000Y-75975000D03*
%TO.P,J6,3,Pin_3*%
%TO.N,/serv4*%
X110005000Y-75975000D03*
%TD*%
D12*
%TO.P,J10,1,Pin_1*%
%TO.N,GND*%
X104930000Y-87975000D03*
D13*
%TO.P,J10,2,Pin_2*%
%TO.N,+5V*%
X107470000Y-87975000D03*
%TO.P,J10,3,Pin_3*%
%TO.N,/serv1*%
X110010000Y-87975000D03*
%TD*%
D10*
%TO.P,R3,1*%
%TO.N,Net-(D3-K)*%
X161040000Y-62707500D03*
D11*
%TO.P,R3,2*%
%TO.N,/led3*%
X161040000Y-70327500D03*
%TD*%
D16*
%TO.P,C2,1*%
%TO.N,+5V*%
X116250000Y-62000000D03*
D17*
%TO.P,C2,2*%
%TO.N,GND*%
X116250000Y-57000000D03*
%TD*%
D18*
%TO.P,J2,1*%
%TO.N,+5V*%
X122750000Y-126500000D03*
D19*
%TO.P,J2,2*%
%TO.N,GND*%
X122750000Y-132500000D03*
D20*
%TO.P,J2,3*%
X127450000Y-129500000D03*
%TD*%
D12*
%TO.P,J9,1,Pin_1*%
%TO.N,GND*%
X104925000Y-79975000D03*
D13*
%TO.P,J9,2,Pin_2*%
%TO.N,+5V*%
X107465000Y-79975000D03*
%TO.P,J9,3,Pin_3*%
%TO.N,/serv3*%
X110005000Y-79975000D03*
%TD*%
D21*
%TO.N,GND*%
X116000000Y-86000000D03*
X116000000Y-82000000D03*
X116000000Y-78000000D03*
X116000000Y-74000000D03*
X116000000Y-70000000D03*
X116000000Y-91500000D03*
%TD*%
D22*
%TO.N,/serv5*%
X133500000Y-71975000D02*
X110005000Y-71975000D01*
X134275000Y-111275000D02*
X133500000Y-110500000D01*
X133500000Y-110500000D02*
X133500000Y-71975000D01*
X141550000Y-111275000D02*
X134275000Y-111275000D01*
%TO.N,/serv4*%
X130500000Y-76000000D02*
X130500000Y-113025000D01*
X130500000Y-113025000D02*
X131290000Y-113815000D01*
X131290000Y-113815000D02*
X141550000Y-113815000D01*
X130475000Y-75975000D02*
X130500000Y-76000000D01*
X110005000Y-75975000D02*
X130475000Y-75975000D01*
%TO.N,/serv1*%
X127990000Y-121435000D02*
X141550000Y-121435000D01*
X127950000Y-121475000D02*
X127990000Y-121435000D01*
X119000000Y-112525000D02*
X127950000Y-121475000D01*
X119000000Y-87975000D02*
X119000000Y-112525000D01*
X110010000Y-87975000D02*
X119000000Y-87975000D01*
%TO.N,/serv3*%
X130450000Y-116475000D02*
X130570000Y-116355000D01*
X127000000Y-113025000D02*
X130450000Y-116475000D01*
X130570000Y-116355000D02*
X141550000Y-116355000D01*
X127000000Y-79975000D02*
X127000000Y-113025000D01*
X110005000Y-79975000D02*
X127000000Y-79975000D01*
%TO.N,/serv2*%
X129370000Y-118895000D02*
X141550000Y-118895000D01*
X123000000Y-112525000D02*
X129370000Y-118895000D01*
X123000000Y-83975000D02*
X123000000Y-112525000D01*
X109980000Y-83975000D02*
X123000000Y-83975000D01*
%TO.N,/serv6*%
X137500000Y-67975000D02*
X109965000Y-67975000D01*
X137500000Y-108000000D02*
X137500000Y-67975000D01*
X138235000Y-108735000D02*
X137500000Y-108000000D01*
X141550000Y-108735000D02*
X138235000Y-108735000D01*
%TO.N,GND*%
X172750000Y-54417500D02*
X171540000Y-53207500D01*
X122750000Y-132500000D02*
X124450000Y-132500000D01*
X116250000Y-57000000D02*
X131250000Y-57000000D01*
X147450000Y-129475000D02*
X147450000Y-123975000D01*
X177540000Y-53207500D02*
X192250000Y-67917500D01*
X147450000Y-123975000D02*
X166950000Y-123975000D01*
X127450000Y-129500000D02*
X147425000Y-129500000D01*
X109750000Y-57000000D02*
X116250000Y-57000000D01*
X147425000Y-129500000D02*
X147450000Y-129475000D01*
X158540000Y-57472500D02*
X158650000Y-57582500D01*
X119250000Y-132500000D02*
X103617677Y-116867677D01*
X165750000Y-53417500D02*
X165540000Y-53207500D01*
X103617677Y-97000000D02*
X103617677Y-91132323D01*
X171540000Y-53207500D02*
X177540000Y-53207500D01*
X103617677Y-91132323D02*
X104930000Y-89820000D01*
X180250000Y-124000000D02*
X179250000Y-124000000D01*
X171540000Y-53207500D02*
X166040000Y-53207500D01*
X158540000Y-54207500D02*
X158540000Y-57472500D01*
X179250000Y-124000000D02*
X179225000Y-123975000D01*
X192250000Y-112000000D02*
X180250000Y-124000000D01*
X147450000Y-123975000D02*
X141550000Y-123975000D01*
X104885000Y-67975000D02*
X104885000Y-61865000D01*
X103617677Y-116867677D02*
X103617677Y-97000000D01*
X104885000Y-87930000D02*
X104930000Y-87975000D01*
X172750000Y-57582500D02*
X172750000Y-54417500D01*
X179225000Y-123975000D02*
X166950000Y-123975000D01*
X122750000Y-132500000D02*
X119250000Y-132500000D01*
X165750000Y-57582500D02*
X165750000Y-53417500D01*
X165540000Y-53207500D02*
X159540000Y-53207500D01*
X104885000Y-61865000D02*
X109750000Y-57000000D01*
X192250000Y-67917500D02*
X192250000Y-112000000D01*
X166040000Y-53207500D02*
X165540000Y-53207500D01*
X104885000Y-67975000D02*
X104885000Y-87930000D01*
X124450000Y-132500000D02*
X127450000Y-129500000D01*
X104930000Y-89820000D02*
X104930000Y-87975000D01*
X159540000Y-53207500D02*
X158540000Y-54207500D01*
%TO.N,+5V*%
X115882323Y-61632323D02*
X116250000Y-62000000D01*
X107470000Y-90720000D02*
X107470000Y-87975000D01*
X122750000Y-126500000D02*
X141535000Y-126500000D01*
X122750000Y-126500000D02*
X118250000Y-126500000D01*
X107425000Y-87930000D02*
X107470000Y-87975000D01*
X107425000Y-67975000D02*
X107425000Y-87930000D01*
X141535000Y-126500000D02*
X141550000Y-126515000D01*
X108617677Y-97000000D02*
X108617677Y-91867677D01*
X118250000Y-126500000D02*
X108617677Y-116867677D01*
X109425000Y-62000000D02*
X116250000Y-62000000D01*
X116250000Y-62000000D02*
X131250000Y-62000000D01*
X107425000Y-67975000D02*
X107425000Y-64000000D01*
X108617677Y-116867677D02*
X108617677Y-97000000D01*
X108617677Y-91867677D02*
X107470000Y-90720000D01*
X107425000Y-64000000D02*
X109425000Y-62000000D01*
D23*
%TO.N,Net-(D1-K)*%
X175540000Y-62397500D02*
X175540000Y-57642500D01*
X175540000Y-57832500D02*
X175290000Y-57582500D01*
%TO.N,Net-(D2-K)*%
X168540000Y-57832500D02*
X168290000Y-57582500D01*
X168540000Y-62517500D02*
X168540000Y-57642500D01*
%TO.N,Net-(D3-K)*%
X161040000Y-57732500D02*
X161190000Y-57582500D01*
X161040000Y-62707500D02*
X161040000Y-57542500D01*
D22*
%TO.N,/serv1*%
X110010000Y-87975000D02*
X109950000Y-87975000D01*
D23*
%TO.N,/led1*%
X175750000Y-121500000D02*
X175685000Y-121435000D01*
X175685000Y-121435000D02*
X166950000Y-121435000D01*
X175540000Y-70017500D02*
X187750000Y-82227500D01*
X187750000Y-112000000D02*
X178250000Y-121500000D01*
X178250000Y-121500000D02*
X175750000Y-121500000D01*
X187750000Y-82227500D02*
X187750000Y-112000000D01*
%TO.N,/led2*%
X168540000Y-70137500D02*
X180750000Y-82347500D01*
X173855000Y-118895000D02*
X166950000Y-118895000D01*
X180750000Y-112000000D02*
X173855000Y-118895000D01*
X180750000Y-82347500D02*
X180750000Y-112000000D01*
%TO.N,/led3*%
X173250000Y-82537500D02*
X173250000Y-112000000D01*
X173250000Y-112000000D02*
X168895000Y-116355000D01*
X161040000Y-70327500D02*
X173250000Y-82537500D01*
X168895000Y-116355000D02*
X166950000Y-116355000D01*
%TD*%
%TA.AperFunction,Conductor*%
%TO.N,GND*%
G36*
X108824855Y-88641546D02*
G01*
X108841575Y-88660842D01*
X108971505Y-88846401D01*
X109138599Y-89013495D01*
X109192300Y-89051097D01*
X109332165Y-89149032D01*
X109332167Y-89149033D01*
X109332170Y-89149035D01*
X109546337Y-89248903D01*
X109774592Y-89310063D01*
X109945319Y-89325000D01*
X110009999Y-89330659D01*
X110010000Y-89330659D01*
X110010001Y-89330659D01*
X110074681Y-89325000D01*
X110245408Y-89310063D01*
X110473663Y-89248903D01*
X110687830Y-89149035D01*
X110881401Y-89013495D01*
X110883077Y-89011819D01*
X110883995Y-89011317D01*
X110885544Y-89010018D01*
X110885805Y-89010329D01*
X110944400Y-88978334D01*
X110970758Y-88975500D01*
X117875500Y-88975500D01*
X117942539Y-88995185D01*
X117988294Y-89047989D01*
X117999500Y-89099500D01*
X117999500Y-112623544D01*
X118037481Y-112814488D01*
X118037948Y-112816834D01*
X118037948Y-112816836D01*
X118113364Y-112998907D01*
X118113371Y-112998920D01*
X118222859Y-113162780D01*
X118222860Y-113162781D01*
X118222861Y-113162782D01*
X118362218Y-113302139D01*
X118362219Y-113302139D01*
X118369286Y-113309206D01*
X118369285Y-113309206D01*
X118369289Y-113309209D01*
X127312214Y-122252136D01*
X127312218Y-122252139D01*
X127476078Y-122361627D01*
X127476084Y-122361630D01*
X127476085Y-122361631D01*
X127658164Y-122437051D01*
X127851454Y-122475499D01*
X127851457Y-122475500D01*
X127851459Y-122475500D01*
X128048542Y-122475500D01*
X128048543Y-122475499D01*
X128089274Y-122467397D01*
X128237657Y-122437883D01*
X128261848Y-122435500D01*
X140377145Y-122435500D01*
X140444184Y-122455185D01*
X140468374Y-122475517D01*
X140530252Y-122542734D01*
X140530262Y-122542743D01*
X140633743Y-122623286D01*
X140674556Y-122679996D01*
X140681343Y-122728823D01*
X140679941Y-122751389D01*
X141412424Y-123483871D01*
X141353147Y-123499755D01*
X141236853Y-123566898D01*
X141141898Y-123661853D01*
X141074755Y-123778147D01*
X141058872Y-123837424D01*
X140326564Y-123105116D01*
X140226267Y-123258632D01*
X140126412Y-123486282D01*
X140065387Y-123727261D01*
X140065385Y-123727270D01*
X140044859Y-123974994D01*
X140044859Y-123975005D01*
X140065385Y-124222729D01*
X140065387Y-124222738D01*
X140126412Y-124463717D01*
X140226266Y-124691364D01*
X140326564Y-124844882D01*
X141058871Y-124112575D01*
X141074755Y-124171853D01*
X141141898Y-124288147D01*
X141236853Y-124383102D01*
X141353147Y-124450245D01*
X141412424Y-124466128D01*
X140679942Y-125198609D01*
X140681343Y-125221177D01*
X140665850Y-125289307D01*
X140633744Y-125326713D01*
X140530258Y-125407260D01*
X140530256Y-125407261D01*
X140530256Y-125407262D01*
X140482182Y-125459484D01*
X140422297Y-125495473D01*
X140390954Y-125499500D01*
X125124499Y-125499500D01*
X125057460Y-125479815D01*
X125011705Y-125427011D01*
X125000499Y-125375500D01*
X125000499Y-124702129D01*
X125000498Y-124702123D01*
X125000497Y-124702116D01*
X124994091Y-124642517D01*
X124943796Y-124507669D01*
X124943795Y-124507668D01*
X124943793Y-124507664D01*
X124857547Y-124392455D01*
X124857544Y-124392452D01*
X124742335Y-124306206D01*
X124742328Y-124306202D01*
X124607482Y-124255908D01*
X124607483Y-124255908D01*
X124547883Y-124249501D01*
X124547881Y-124249500D01*
X124547873Y-124249500D01*
X124547864Y-124249500D01*
X120952129Y-124249500D01*
X120952123Y-124249501D01*
X120892516Y-124255908D01*
X120757671Y-124306202D01*
X120757664Y-124306206D01*
X120642455Y-124392452D01*
X120642452Y-124392455D01*
X120556206Y-124507664D01*
X120556202Y-124507671D01*
X120505908Y-124642517D01*
X120499501Y-124702116D01*
X120499501Y-124702123D01*
X120499500Y-124702135D01*
X120499500Y-125375500D01*
X120479815Y-125442539D01*
X120427011Y-125488294D01*
X120375500Y-125499500D01*
X118715782Y-125499500D01*
X118648743Y-125479815D01*
X118628101Y-125463181D01*
X109654496Y-116489576D01*
X109621011Y-116428253D01*
X109618177Y-116401895D01*
X109618177Y-98616976D01*
X109637862Y-98549937D01*
X109690666Y-98504182D01*
X109717812Y-98496736D01*
X109717609Y-98495876D01*
X109725156Y-98494092D01*
X109725158Y-98494091D01*
X109725160Y-98494091D01*
X109860008Y-98443796D01*
X109975223Y-98357546D01*
X110061473Y-98242331D01*
X110111768Y-98107483D01*
X110118177Y-98047873D01*
X110118176Y-95952128D01*
X110111768Y-95892517D01*
X110072482Y-95787187D01*
X110061474Y-95757671D01*
X110061470Y-95757664D01*
X109975224Y-95642455D01*
X109975221Y-95642452D01*
X109860012Y-95556206D01*
X109860005Y-95556202D01*
X109725159Y-95505908D01*
X109717615Y-95504126D01*
X109718151Y-95501853D01*
X109664365Y-95479571D01*
X109624520Y-95422177D01*
X109618177Y-95383024D01*
X109618177Y-91769135D01*
X109618176Y-91769132D01*
X109585853Y-91606631D01*
X109579728Y-91575841D01*
X109520831Y-91433651D01*
X109504309Y-91393763D01*
X109504308Y-91393761D01*
X109504307Y-91393759D01*
X109394817Y-91229896D01*
X109358828Y-91193907D01*
X109255459Y-91090538D01*
X109255458Y-91090537D01*
X108506819Y-90341898D01*
X108473334Y-90280575D01*
X108470500Y-90254217D01*
X108470500Y-88935758D01*
X108490185Y-88868719D01*
X108506819Y-88848077D01*
X108508495Y-88846401D01*
X108638425Y-88660842D01*
X108693002Y-88617217D01*
X108762500Y-88610023D01*
X108824855Y-88641546D01*
G37*
%TD.AperFunction*%
%TA.AperFunction,Conductor*%
G36*
X108794855Y-84641546D02*
G01*
X108811575Y-84660842D01*
X108941505Y-84846401D01*
X109108599Y-85013495D01*
X109174999Y-85059989D01*
X109302165Y-85149032D01*
X109302167Y-85149033D01*
X109302170Y-85149035D01*
X109516337Y-85248903D01*
X109744592Y-85310063D01*
X109915319Y-85325000D01*
X109979999Y-85330659D01*
X109980000Y-85330659D01*
X109980001Y-85330659D01*
X110044681Y-85325000D01*
X110215408Y-85310063D01*
X110443663Y-85248903D01*
X110657830Y-85149035D01*
X110851401Y-85013495D01*
X110853077Y-85011819D01*
X110853995Y-85011317D01*
X110855544Y-85010018D01*
X110855805Y-85010329D01*
X110914400Y-84978334D01*
X110940758Y-84975500D01*
X121875500Y-84975500D01*
X121942539Y-84995185D01*
X121988294Y-85047989D01*
X121999500Y-85099500D01*
X121999500Y-112623544D01*
X122037481Y-112814488D01*
X122037948Y-112816834D01*
X122037948Y-112816836D01*
X122113364Y-112998907D01*
X122113371Y-112998920D01*
X122222859Y-113162780D01*
X122222860Y-113162781D01*
X122222861Y-113162782D01*
X122362218Y-113302139D01*
X122362219Y-113302139D01*
X122369286Y-113309206D01*
X122369285Y-113309206D01*
X122369288Y-113309208D01*
X128592860Y-119532781D01*
X128592861Y-119532782D01*
X128664469Y-119604390D01*
X128732219Y-119672140D01*
X128896079Y-119781628D01*
X128896092Y-119781635D01*
X128988195Y-119819785D01*
X128988196Y-119819785D01*
X129078164Y-119857051D01*
X129271454Y-119895499D01*
X129271457Y-119895500D01*
X129271459Y-119895500D01*
X129468540Y-119895500D01*
X140377145Y-119895500D01*
X140444184Y-119915185D01*
X140468374Y-119935517D01*
X140530252Y-120002734D01*
X140530256Y-120002738D01*
X140613008Y-120067147D01*
X140653821Y-120123857D01*
X140657496Y-120193630D01*
X140622864Y-120254313D01*
X140613014Y-120262848D01*
X140579182Y-120289180D01*
X140530255Y-120327262D01*
X140530252Y-120327265D01*
X140468374Y-120394483D01*
X140408487Y-120430474D01*
X140377145Y-120434500D01*
X128375783Y-120434500D01*
X128308744Y-120414815D01*
X128288102Y-120398181D01*
X120036819Y-112146898D01*
X120003334Y-112085575D01*
X120000500Y-112059217D01*
X120000500Y-87876456D01*
X119962052Y-87683170D01*
X119962051Y-87683169D01*
X119962051Y-87683165D01*
X119955767Y-87667993D01*
X119886635Y-87501092D01*
X119886628Y-87501079D01*
X119777139Y-87337218D01*
X119777136Y-87337214D01*
X119637785Y-87197863D01*
X119637781Y-87197860D01*
X119473920Y-87088371D01*
X119473907Y-87088364D01*
X119291839Y-87012950D01*
X119291829Y-87012947D01*
X119098543Y-86974500D01*
X119098541Y-86974500D01*
X110970758Y-86974500D01*
X110903719Y-86954815D01*
X110883077Y-86938181D01*
X110881402Y-86936506D01*
X110881395Y-86936501D01*
X110687834Y-86800967D01*
X110687830Y-86800965D01*
X110616727Y-86767809D01*
X110473663Y-86701097D01*
X110473659Y-86701096D01*
X110473655Y-86701094D01*
X110245413Y-86639938D01*
X110245403Y-86639936D01*
X110010001Y-86619341D01*
X110009999Y-86619341D01*
X109774596Y-86639936D01*
X109774586Y-86639938D01*
X109546344Y-86701094D01*
X109546335Y-86701098D01*
X109332171Y-86800964D01*
X109332169Y-86800965D01*
X109138597Y-86936505D01*
X108971505Y-87103597D01*
X108841575Y-87289158D01*
X108786998Y-87332783D01*
X108717500Y-87339977D01*
X108655145Y-87308454D01*
X108638425Y-87289158D01*
X108508494Y-87103597D01*
X108461819Y-87056922D01*
X108428334Y-86995599D01*
X108425500Y-86969241D01*
X108425500Y-84950758D01*
X108445185Y-84883719D01*
X108461819Y-84863077D01*
X108478495Y-84846401D01*
X108608425Y-84660842D01*
X108663002Y-84617217D01*
X108732500Y-84610023D01*
X108794855Y-84641546D01*
G37*
%TD.AperFunction*%
%TA.AperFunction,Conductor*%
G36*
X108819855Y-80641546D02*
G01*
X108836575Y-80660842D01*
X108964499Y-80843537D01*
X108966505Y-80846401D01*
X109133599Y-81013495D01*
X109230384Y-81081265D01*
X109327165Y-81149032D01*
X109327167Y-81149033D01*
X109327170Y-81149035D01*
X109541337Y-81248903D01*
X109769592Y-81310063D01*
X109940319Y-81325000D01*
X110004999Y-81330659D01*
X110005000Y-81330659D01*
X110005001Y-81330659D01*
X110069681Y-81325000D01*
X110240408Y-81310063D01*
X110468663Y-81248903D01*
X110682830Y-81149035D01*
X110876401Y-81013495D01*
X110878077Y-81011819D01*
X110878995Y-81011317D01*
X110880544Y-81010018D01*
X110880805Y-81010329D01*
X110939400Y-80978334D01*
X110965758Y-80975500D01*
X125875500Y-80975500D01*
X125942539Y-80995185D01*
X125988294Y-81047989D01*
X125999500Y-81099500D01*
X125999500Y-113123541D01*
X126007306Y-113162781D01*
X126007306Y-113162784D01*
X126037947Y-113316829D01*
X126037948Y-113316833D01*
X126037949Y-113316836D01*
X126041795Y-113326119D01*
X126046032Y-113336348D01*
X126046033Y-113336352D01*
X126113368Y-113498914D01*
X126113369Y-113498917D01*
X126222860Y-113662781D01*
X126222863Y-113662785D01*
X126366537Y-113806459D01*
X126366559Y-113806479D01*
X129812215Y-117252136D01*
X129812219Y-117252139D01*
X129976079Y-117361627D01*
X129976083Y-117361629D01*
X129976086Y-117361631D01*
X130158164Y-117437051D01*
X130351455Y-117475499D01*
X130351458Y-117475500D01*
X130351460Y-117475500D01*
X130548542Y-117475500D01*
X130548543Y-117475499D01*
X130741836Y-117437051D01*
X130915928Y-117364939D01*
X130963381Y-117355500D01*
X140377145Y-117355500D01*
X140444184Y-117375185D01*
X140468374Y-117395517D01*
X140506610Y-117437052D01*
X140530256Y-117462738D01*
X140613008Y-117527147D01*
X140653821Y-117583857D01*
X140657496Y-117653630D01*
X140622864Y-117714313D01*
X140613014Y-117722848D01*
X140579182Y-117749180D01*
X140530255Y-117787262D01*
X140530252Y-117787265D01*
X140468374Y-117854483D01*
X140408487Y-117890474D01*
X140377145Y-117894500D01*
X129835783Y-117894500D01*
X129768744Y-117874815D01*
X129748102Y-117858181D01*
X124036819Y-112146898D01*
X124003334Y-112085575D01*
X124000500Y-112059217D01*
X124000500Y-83876456D01*
X123962052Y-83683170D01*
X123962051Y-83683169D01*
X123962051Y-83683165D01*
X123917207Y-83574901D01*
X123886635Y-83501092D01*
X123886628Y-83501079D01*
X123777139Y-83337218D01*
X123777136Y-83337214D01*
X123637785Y-83197863D01*
X123637781Y-83197860D01*
X123473920Y-83088371D01*
X123473907Y-83088364D01*
X123291839Y-83012950D01*
X123291829Y-83012947D01*
X123098543Y-82974500D01*
X123098541Y-82974500D01*
X110940758Y-82974500D01*
X110873719Y-82954815D01*
X110853077Y-82938181D01*
X110851402Y-82936506D01*
X110851395Y-82936501D01*
X110657834Y-82800967D01*
X110657830Y-82800965D01*
X110586727Y-82767809D01*
X110443663Y-82701097D01*
X110443659Y-82701096D01*
X110443655Y-82701094D01*
X110215413Y-82639938D01*
X110215403Y-82639936D01*
X109980001Y-82619341D01*
X109979999Y-82619341D01*
X109744596Y-82639936D01*
X109744586Y-82639938D01*
X109516344Y-82701094D01*
X109516335Y-82701098D01*
X109302171Y-82800964D01*
X109302169Y-82800965D01*
X109108597Y-82936505D01*
X108941505Y-83103597D01*
X108811575Y-83289158D01*
X108756998Y-83332783D01*
X108687500Y-83339977D01*
X108625145Y-83308454D01*
X108608425Y-83289158D01*
X108478494Y-83103597D01*
X108461819Y-83086922D01*
X108428334Y-83025599D01*
X108425500Y-82999241D01*
X108425500Y-80975758D01*
X108445185Y-80908719D01*
X108461819Y-80888077D01*
X108477052Y-80872844D01*
X108503495Y-80846401D01*
X108633425Y-80660842D01*
X108688002Y-80617217D01*
X108757500Y-80610023D01*
X108819855Y-80641546D01*
G37*
%TD.AperFunction*%
%TA.AperFunction,Conductor*%
G36*
X108819855Y-76641546D02*
G01*
X108836575Y-76660842D01*
X108964499Y-76843537D01*
X108966505Y-76846401D01*
X109133599Y-77013495D01*
X109230384Y-77081265D01*
X109327165Y-77149032D01*
X109327167Y-77149033D01*
X109327170Y-77149035D01*
X109541337Y-77248903D01*
X109769592Y-77310063D01*
X109940319Y-77325000D01*
X110004999Y-77330659D01*
X110005000Y-77330659D01*
X110005001Y-77330659D01*
X110069681Y-77325000D01*
X110240408Y-77310063D01*
X110468663Y-77248903D01*
X110682830Y-77149035D01*
X110876401Y-77013495D01*
X110878077Y-77011819D01*
X110878995Y-77011317D01*
X110880544Y-77010018D01*
X110880805Y-77010329D01*
X110939400Y-76978334D01*
X110965758Y-76975500D01*
X129375500Y-76975500D01*
X129442539Y-76995185D01*
X129488294Y-77047989D01*
X129499500Y-77099500D01*
X129499500Y-113123541D01*
X129507306Y-113162781D01*
X129507306Y-113162784D01*
X129537947Y-113316829D01*
X129537948Y-113316833D01*
X129537949Y-113316836D01*
X129541795Y-113326119D01*
X129546032Y-113336348D01*
X129546033Y-113336352D01*
X129613368Y-113498914D01*
X129613369Y-113498917D01*
X129722859Y-113662780D01*
X129722860Y-113662781D01*
X129722861Y-113662782D01*
X129862218Y-113802139D01*
X129862219Y-113802139D01*
X129869286Y-113809206D01*
X129869285Y-113809206D01*
X129869288Y-113809208D01*
X130512860Y-114452781D01*
X130512861Y-114452782D01*
X130652218Y-114592139D01*
X130816086Y-114701632D01*
X130816088Y-114701633D01*
X130816092Y-114701635D01*
X130907123Y-114739340D01*
X130907124Y-114739341D01*
X130971501Y-114766007D01*
X130998165Y-114777052D01*
X131159389Y-114809121D01*
X131191457Y-114815499D01*
X131191458Y-114815500D01*
X131191459Y-114815500D01*
X131191460Y-114815500D01*
X131388540Y-114815500D01*
X140377145Y-114815500D01*
X140444184Y-114835185D01*
X140468374Y-114855517D01*
X140530252Y-114922734D01*
X140530256Y-114922738D01*
X140613008Y-114987147D01*
X140653821Y-115043857D01*
X140657496Y-115113630D01*
X140622864Y-115174313D01*
X140613014Y-115182848D01*
X140579182Y-115209180D01*
X140530255Y-115247262D01*
X140530252Y-115247265D01*
X140468374Y-115314483D01*
X140408487Y-115350474D01*
X140377145Y-115354500D01*
X130795782Y-115354500D01*
X130728743Y-115334815D01*
X130708101Y-115318181D01*
X128036819Y-112646899D01*
X128003334Y-112585576D01*
X128000500Y-112559218D01*
X128000500Y-79876456D01*
X127962052Y-79683170D01*
X127962051Y-79683169D01*
X127962051Y-79683165D01*
X127917207Y-79574901D01*
X127886635Y-79501092D01*
X127886628Y-79501079D01*
X127777139Y-79337218D01*
X127777136Y-79337214D01*
X127637785Y-79197863D01*
X127637781Y-79197860D01*
X127473920Y-79088371D01*
X127473907Y-79088364D01*
X127291839Y-79012950D01*
X127291829Y-79012947D01*
X127098543Y-78974500D01*
X127098541Y-78974500D01*
X110965758Y-78974500D01*
X110898719Y-78954815D01*
X110878077Y-78938181D01*
X110876402Y-78936506D01*
X110876395Y-78936501D01*
X110682834Y-78800967D01*
X110682830Y-78800965D01*
X110682828Y-78800964D01*
X110468663Y-78701097D01*
X110468659Y-78701096D01*
X110468655Y-78701094D01*
X110240413Y-78639938D01*
X110240403Y-78639936D01*
X110005001Y-78619341D01*
X110004999Y-78619341D01*
X109769596Y-78639936D01*
X109769586Y-78639938D01*
X109541344Y-78701094D01*
X109541335Y-78701098D01*
X109327171Y-78800964D01*
X109327169Y-78800965D01*
X109133597Y-78936505D01*
X108966505Y-79103597D01*
X108836575Y-79289158D01*
X108781998Y-79332783D01*
X108712500Y-79339977D01*
X108650145Y-79308454D01*
X108633425Y-79289158D01*
X108503494Y-79103597D01*
X108461819Y-79061922D01*
X108428334Y-79000599D01*
X108425500Y-78974241D01*
X108425500Y-76975758D01*
X108445185Y-76908719D01*
X108461819Y-76888077D01*
X108477052Y-76872844D01*
X108503495Y-76846401D01*
X108633425Y-76660842D01*
X108688002Y-76617217D01*
X108757500Y-76610023D01*
X108819855Y-76641546D01*
G37*
%TD.AperFunction*%
%TA.AperFunction,Conductor*%
G36*
X108819855Y-72641546D02*
G01*
X108836575Y-72660842D01*
X108964499Y-72843537D01*
X108966505Y-72846401D01*
X109133599Y-73013495D01*
X109230384Y-73081265D01*
X109327165Y-73149032D01*
X109327167Y-73149033D01*
X109327170Y-73149035D01*
X109541337Y-73248903D01*
X109769592Y-73310063D01*
X109940319Y-73325000D01*
X110004999Y-73330659D01*
X110005000Y-73330659D01*
X110005001Y-73330659D01*
X110069681Y-73325000D01*
X110240408Y-73310063D01*
X110468663Y-73248903D01*
X110682830Y-73149035D01*
X110876401Y-73013495D01*
X110878077Y-73011819D01*
X110878995Y-73011317D01*
X110880544Y-73010018D01*
X110880805Y-73010329D01*
X110939400Y-72978334D01*
X110965758Y-72975500D01*
X132375500Y-72975500D01*
X132442539Y-72995185D01*
X132488294Y-73047989D01*
X132499500Y-73099500D01*
X132499500Y-110598541D01*
X132507194Y-110637218D01*
X132507194Y-110637221D01*
X132537946Y-110791826D01*
X132537949Y-110791835D01*
X132541781Y-110801085D01*
X132541783Y-110801091D01*
X132613366Y-110973910D01*
X132613371Y-110973919D01*
X132648964Y-111027187D01*
X132722861Y-111137782D01*
X132862218Y-111277139D01*
X132862220Y-111277140D01*
X132869286Y-111284206D01*
X132869285Y-111284206D01*
X132869289Y-111284209D01*
X133637215Y-112052137D01*
X133637219Y-112052140D01*
X133801079Y-112161628D01*
X133801085Y-112161631D01*
X133801086Y-112161632D01*
X133983165Y-112237052D01*
X134176455Y-112275500D01*
X134176458Y-112275501D01*
X134176460Y-112275501D01*
X134379655Y-112275501D01*
X134379675Y-112275500D01*
X140377145Y-112275500D01*
X140444184Y-112295185D01*
X140468374Y-112315517D01*
X140526985Y-112379185D01*
X140530256Y-112382738D01*
X140613008Y-112447147D01*
X140653821Y-112503857D01*
X140657496Y-112573630D01*
X140622864Y-112634313D01*
X140613014Y-112642848D01*
X140579182Y-112669180D01*
X140530255Y-112707262D01*
X140530252Y-112707265D01*
X140468374Y-112774483D01*
X140408487Y-112810474D01*
X140377145Y-112814500D01*
X131755783Y-112814500D01*
X131688744Y-112794815D01*
X131668102Y-112778181D01*
X131536819Y-112646898D01*
X131503334Y-112585575D01*
X131500500Y-112559217D01*
X131500500Y-75901456D01*
X131462052Y-75708169D01*
X131462051Y-75708167D01*
X131462051Y-75708165D01*
X131458455Y-75699484D01*
X131451706Y-75683189D01*
X131451694Y-75683162D01*
X131430811Y-75632745D01*
X131386635Y-75526093D01*
X131386634Y-75526092D01*
X131386632Y-75526086D01*
X131371184Y-75502967D01*
X131277140Y-75362219D01*
X131212092Y-75297171D01*
X131137782Y-75222861D01*
X131112782Y-75197861D01*
X131112781Y-75197860D01*
X131112780Y-75197859D01*
X130948920Y-75088371D01*
X130948911Y-75088366D01*
X130876315Y-75058296D01*
X130820165Y-75035038D01*
X130766836Y-75012949D01*
X130766832Y-75012948D01*
X130766828Y-75012946D01*
X130670188Y-74993724D01*
X130573544Y-74974500D01*
X130573541Y-74974500D01*
X110965758Y-74974500D01*
X110898719Y-74954815D01*
X110878077Y-74938181D01*
X110876402Y-74936506D01*
X110876395Y-74936501D01*
X110682834Y-74800967D01*
X110682830Y-74800965D01*
X110682828Y-74800964D01*
X110468663Y-74701097D01*
X110468659Y-74701096D01*
X110468655Y-74701094D01*
X110240413Y-74639938D01*
X110240403Y-74639936D01*
X110005001Y-74619341D01*
X110004999Y-74619341D01*
X109769596Y-74639936D01*
X109769586Y-74639938D01*
X109541344Y-74701094D01*
X109541335Y-74701098D01*
X109327171Y-74800964D01*
X109327169Y-74800965D01*
X109133597Y-74936505D01*
X108966505Y-75103597D01*
X108836575Y-75289158D01*
X108781998Y-75332783D01*
X108712500Y-75339977D01*
X108650145Y-75308454D01*
X108633425Y-75289158D01*
X108503494Y-75103597D01*
X108461819Y-75061922D01*
X108428334Y-75000599D01*
X108425500Y-74974241D01*
X108425500Y-72975758D01*
X108445185Y-72908719D01*
X108461819Y-72888077D01*
X108477052Y-72872844D01*
X108503495Y-72846401D01*
X108633425Y-72660842D01*
X108688002Y-72617217D01*
X108757500Y-72610023D01*
X108819855Y-72641546D01*
G37*
%TD.AperFunction*%
%TA.AperFunction,Conductor*%
G36*
X108779855Y-68641546D02*
G01*
X108796575Y-68660842D01*
X108916443Y-68832032D01*
X108926505Y-68846401D01*
X109093599Y-69013495D01*
X109147300Y-69051097D01*
X109287165Y-69149032D01*
X109287167Y-69149033D01*
X109287170Y-69149035D01*
X109501337Y-69248903D01*
X109729592Y-69310063D01*
X109900319Y-69325000D01*
X109964999Y-69330659D01*
X109965000Y-69330659D01*
X109965001Y-69330659D01*
X110029681Y-69325000D01*
X110200408Y-69310063D01*
X110428663Y-69248903D01*
X110642830Y-69149035D01*
X110836401Y-69013495D01*
X110838077Y-69011819D01*
X110838995Y-69011317D01*
X110840544Y-69010018D01*
X110840805Y-69010329D01*
X110899400Y-68978334D01*
X110925758Y-68975500D01*
X136375500Y-68975500D01*
X136442539Y-68995185D01*
X136488294Y-69047989D01*
X136499500Y-69099500D01*
X136499500Y-108098544D01*
X136531831Y-108261084D01*
X136531832Y-108261084D01*
X136531832Y-108261086D01*
X136537949Y-108291835D01*
X136537950Y-108291837D01*
X136537950Y-108291839D01*
X136613364Y-108473907D01*
X136613371Y-108473920D01*
X136722860Y-108637781D01*
X136722863Y-108637785D01*
X136866537Y-108781459D01*
X136866559Y-108781479D01*
X137454735Y-109369655D01*
X137454764Y-109369686D01*
X137597214Y-109512136D01*
X137597218Y-109512139D01*
X137761079Y-109621628D01*
X137761092Y-109621635D01*
X137889833Y-109674961D01*
X137943159Y-109697049D01*
X137943164Y-109697051D01*
X137991507Y-109706667D01*
X138027745Y-109713875D01*
X138136456Y-109735500D01*
X138136459Y-109735500D01*
X138136460Y-109735500D01*
X138333540Y-109735500D01*
X140377145Y-109735500D01*
X140444184Y-109755185D01*
X140468374Y-109775517D01*
X140530252Y-109842734D01*
X140530256Y-109842738D01*
X140613008Y-109907147D01*
X140653821Y-109963857D01*
X140657496Y-110033630D01*
X140622864Y-110094313D01*
X140613014Y-110102848D01*
X140588540Y-110121898D01*
X140530255Y-110167262D01*
X140530252Y-110167265D01*
X140468374Y-110234483D01*
X140408487Y-110270474D01*
X140377145Y-110274500D01*
X134740783Y-110274500D01*
X134673744Y-110254815D01*
X134653102Y-110238181D01*
X134536819Y-110121898D01*
X134503334Y-110060575D01*
X134500500Y-110034217D01*
X134500500Y-71876456D01*
X134462052Y-71683170D01*
X134462051Y-71683169D01*
X134462051Y-71683165D01*
X134417207Y-71574901D01*
X134386635Y-71501092D01*
X134386628Y-71501079D01*
X134277139Y-71337218D01*
X134277136Y-71337214D01*
X134137785Y-71197863D01*
X134137781Y-71197860D01*
X133973920Y-71088371D01*
X133973907Y-71088364D01*
X133791839Y-71012950D01*
X133791829Y-71012947D01*
X133598543Y-70974500D01*
X133598541Y-70974500D01*
X110965758Y-70974500D01*
X110898719Y-70954815D01*
X110878077Y-70938181D01*
X110876402Y-70936506D01*
X110876395Y-70936501D01*
X110682834Y-70800967D01*
X110682830Y-70800965D01*
X110659813Y-70790232D01*
X110468663Y-70701097D01*
X110468659Y-70701096D01*
X110468655Y-70701094D01*
X110240413Y-70639938D01*
X110240403Y-70639936D01*
X110005001Y-70619341D01*
X110004999Y-70619341D01*
X109769596Y-70639936D01*
X109769586Y-70639938D01*
X109541344Y-70701094D01*
X109541335Y-70701098D01*
X109327171Y-70800964D01*
X109327169Y-70800965D01*
X109133597Y-70936505D01*
X108966505Y-71103597D01*
X108836575Y-71289158D01*
X108781998Y-71332783D01*
X108712500Y-71339977D01*
X108650145Y-71308454D01*
X108633425Y-71289158D01*
X108503494Y-71103597D01*
X108461819Y-71061922D01*
X108428334Y-71000599D01*
X108425500Y-70974241D01*
X108425500Y-68935758D01*
X108445185Y-68868719D01*
X108461819Y-68848077D01*
X108463495Y-68846401D01*
X108593425Y-68660842D01*
X108648002Y-68617217D01*
X108717500Y-68610023D01*
X108779855Y-68641546D01*
G37*
%TD.AperFunction*%
%TA.AperFunction,Conductor*%
G36*
X193892539Y-47995185D02*
G01*
X193938294Y-48047989D01*
X193949500Y-48099500D01*
X193949500Y-136350500D01*
X193929815Y-136417539D01*
X193877011Y-136463294D01*
X193825500Y-136474500D01*
X95074500Y-136474500D01*
X95007461Y-136454815D01*
X94961706Y-136402011D01*
X94950500Y-136350500D01*
X94950500Y-133393713D01*
X97899500Y-133393713D01*
X97899500Y-133606287D01*
X97932754Y-133816243D01*
X97963579Y-133911113D01*
X97998444Y-134018414D01*
X98094951Y-134207820D01*
X98219890Y-134379786D01*
X98370213Y-134530109D01*
X98542179Y-134655048D01*
X98542181Y-134655049D01*
X98542184Y-134655051D01*
X98731588Y-134751557D01*
X98933757Y-134817246D01*
X99143713Y-134850500D01*
X99143714Y-134850500D01*
X99356286Y-134850500D01*
X99356287Y-134850500D01*
X99566243Y-134817246D01*
X99768412Y-134751557D01*
X99957816Y-134655051D01*
X99979789Y-134639086D01*
X100129786Y-134530109D01*
X100129788Y-134530106D01*
X100129792Y-134530104D01*
X100280104Y-134379792D01*
X100280106Y-134379788D01*
X100280109Y-134379786D01*
X100405048Y-134207820D01*
X100405047Y-134207820D01*
X100405051Y-134207816D01*
X100501557Y-134018412D01*
X100567246Y-133816243D01*
X100600500Y-133606287D01*
X100600500Y-133393713D01*
X100567246Y-133183757D01*
X100501557Y-132981588D01*
X100405051Y-132792184D01*
X100405049Y-132792181D01*
X100405048Y-132792179D01*
X100280109Y-132620213D01*
X100129786Y-132469890D01*
X99957820Y-132344951D01*
X99768414Y-132248444D01*
X99768413Y-132248443D01*
X99768412Y-132248443D01*
X99566243Y-132182754D01*
X99566241Y-132182753D01*
X99566240Y-132182753D01*
X99404957Y-132157208D01*
X99356287Y-132149500D01*
X99143713Y-132149500D01*
X99095042Y-132157208D01*
X98933760Y-132182753D01*
X98731585Y-132248444D01*
X98542179Y-132344951D01*
X98370213Y-132469890D01*
X98219890Y-132620213D01*
X98094951Y-132792179D01*
X97998444Y-132981585D01*
X97932753Y-133183760D01*
X97911438Y-133318338D01*
X97899500Y-133393713D01*
X94950500Y-133393713D01*
X94950500Y-131685803D01*
X120500000Y-131685803D01*
X120500000Y-132250000D01*
X121316988Y-132250000D01*
X121284075Y-132307007D01*
X121250000Y-132434174D01*
X121250000Y-132565826D01*
X121284075Y-132692993D01*
X121316988Y-132750000D01*
X120500001Y-132750000D01*
X120500001Y-133314197D01*
X120510400Y-133446332D01*
X120565377Y-133664519D01*
X120658428Y-133869374D01*
X120658431Y-133869380D01*
X120786559Y-134054323D01*
X120786569Y-134054335D01*
X120945664Y-134213430D01*
X120945676Y-134213440D01*
X121130619Y-134341568D01*
X121130625Y-134341571D01*
X121335480Y-134434622D01*
X121553667Y-134489599D01*
X121685810Y-134499999D01*
X122499999Y-134499999D01*
X122500000Y-134499998D01*
X122500000Y-133000000D01*
X123000000Y-133000000D01*
X123000000Y-134499999D01*
X123814182Y-134499999D01*
X123814197Y-134499998D01*
X123946332Y-134489599D01*
X124164519Y-134434622D01*
X124328234Y-134360258D01*
X140269500Y-134360258D01*
X140269500Y-134589741D01*
X140290805Y-134751557D01*
X140299452Y-134817238D01*
X140358842Y-135038887D01*
X140446650Y-135250876D01*
X140446657Y-135250890D01*
X140561392Y-135449617D01*
X140701081Y-135631661D01*
X140701089Y-135631670D01*
X140863330Y-135793911D01*
X140863338Y-135793918D01*
X141045382Y-135933607D01*
X141045385Y-135933608D01*
X141045388Y-135933611D01*
X141244112Y-136048344D01*
X141244117Y-136048346D01*
X141244123Y-136048349D01*
X141335480Y-136086190D01*
X141456113Y-136136158D01*
X141677762Y-136195548D01*
X141905266Y-136225500D01*
X141905273Y-136225500D01*
X142134727Y-136225500D01*
X142134734Y-136225500D01*
X142362238Y-136195548D01*
X142583887Y-136136158D01*
X142795888Y-136048344D01*
X142994612Y-135933611D01*
X143176661Y-135793919D01*
X143176665Y-135793914D01*
X143176670Y-135793911D01*
X143338911Y-135631670D01*
X143338914Y-135631665D01*
X143338919Y-135631661D01*
X143478611Y-135449612D01*
X143593344Y-135250888D01*
X143681158Y-135038887D01*
X143740548Y-134817238D01*
X143770500Y-134589734D01*
X143770500Y-134360266D01*
X143770499Y-134360258D01*
X164779500Y-134360258D01*
X164779500Y-134589741D01*
X164800805Y-134751557D01*
X164809452Y-134817238D01*
X164868842Y-135038887D01*
X164956650Y-135250876D01*
X164956657Y-135250890D01*
X165071392Y-135449617D01*
X165211081Y-135631661D01*
X165211089Y-135631670D01*
X165373330Y-135793911D01*
X165373338Y-135793918D01*
X165555382Y-135933607D01*
X165555385Y-135933608D01*
X165555388Y-135933611D01*
X165754112Y-136048344D01*
X165754117Y-136048346D01*
X165754123Y-136048349D01*
X165845480Y-136086190D01*
X165966113Y-136136158D01*
X166187762Y-136195548D01*
X166415266Y-136225500D01*
X166415273Y-136225500D01*
X166644727Y-136225500D01*
X166644734Y-136225500D01*
X166872238Y-136195548D01*
X167093887Y-136136158D01*
X167305888Y-136048344D01*
X167504612Y-135933611D01*
X167686661Y-135793919D01*
X167686665Y-135793914D01*
X167686670Y-135793911D01*
X167848911Y-135631670D01*
X167848914Y-135631665D01*
X167848919Y-135631661D01*
X167988611Y-135449612D01*
X168103344Y-135250888D01*
X168191158Y-135038887D01*
X168250548Y-134817238D01*
X168280500Y-134589734D01*
X168280500Y-134360266D01*
X168250548Y-134132762D01*
X168191158Y-133911113D01*
X168103344Y-133699112D01*
X167988611Y-133500388D01*
X167988608Y-133500385D01*
X167988607Y-133500382D01*
X167906756Y-133393713D01*
X187899500Y-133393713D01*
X187899500Y-133606287D01*
X187932754Y-133816243D01*
X187963579Y-133911113D01*
X187998444Y-134018414D01*
X188094951Y-134207820D01*
X188219890Y-134379786D01*
X188370213Y-134530109D01*
X188542179Y-134655048D01*
X188542181Y-134655049D01*
X188542184Y-134655051D01*
X188731588Y-134751557D01*
X188933757Y-134817246D01*
X189143713Y-134850500D01*
X189143714Y-134850500D01*
X189356286Y-134850500D01*
X189356287Y-134850500D01*
X189566243Y-134817246D01*
X189768412Y-134751557D01*
X189957816Y-134655051D01*
X189979789Y-134639086D01*
X190129786Y-134530109D01*
X190129788Y-134530106D01*
X190129792Y-134530104D01*
X190280104Y-134379792D01*
X190280106Y-134379788D01*
X190280109Y-134379786D01*
X190405048Y-134207820D01*
X190405047Y-134207820D01*
X190405051Y-134207816D01*
X190501557Y-134018412D01*
X190567246Y-133816243D01*
X190600500Y-133606287D01*
X190600500Y-133393713D01*
X190567246Y-133183757D01*
X190501557Y-132981588D01*
X190405051Y-132792184D01*
X190405049Y-132792181D01*
X190405048Y-132792179D01*
X190280109Y-132620213D01*
X190129786Y-132469890D01*
X189957820Y-132344951D01*
X189768414Y-132248444D01*
X189768413Y-132248443D01*
X189768412Y-132248443D01*
X189566243Y-132182754D01*
X189566241Y-132182753D01*
X189566240Y-132182753D01*
X189404957Y-132157208D01*
X189356287Y-132149500D01*
X189143713Y-132149500D01*
X189095042Y-132157208D01*
X188933760Y-132182753D01*
X188731585Y-132248444D01*
X188542179Y-132344951D01*
X188370213Y-132469890D01*
X188219890Y-132620213D01*
X188094951Y-132792179D01*
X187998444Y-132981585D01*
X187932753Y-133183760D01*
X187911438Y-133318338D01*
X187899500Y-133393713D01*
X167906756Y-133393713D01*
X167848918Y-133318338D01*
X167848911Y-133318330D01*
X167686670Y-133156089D01*
X167686661Y-133156081D01*
X167504617Y-133016392D01*
X167444329Y-132981585D01*
X167305888Y-132901656D01*
X167305876Y-132901650D01*
X167093887Y-132813842D01*
X167013057Y-132792184D01*
X166872238Y-132754452D01*
X166834215Y-132749446D01*
X166644741Y-132724500D01*
X166644734Y-132724500D01*
X166415266Y-132724500D01*
X166415258Y-132724500D01*
X166198715Y-132753009D01*
X166187762Y-132754452D01*
X166094076Y-132779554D01*
X165966112Y-132813842D01*
X165754123Y-132901650D01*
X165754109Y-132901657D01*
X165555382Y-133016392D01*
X165373338Y-133156081D01*
X165211081Y-133318338D01*
X165071392Y-133500382D01*
X164956657Y-133699109D01*
X164956650Y-133699123D01*
X164868842Y-133911112D01*
X164809453Y-134132759D01*
X164809451Y-134132770D01*
X164779500Y-134360258D01*
X143770499Y-134360258D01*
X143740548Y-134132762D01*
X143681158Y-133911113D01*
X143593344Y-133699112D01*
X143478611Y-133500388D01*
X143478608Y-133500385D01*
X143478607Y-133500382D01*
X143338918Y-133318338D01*
X143338911Y-133318330D01*
X143176670Y-133156089D01*
X143176661Y-133156081D01*
X142994617Y-133016392D01*
X142934329Y-132981585D01*
X142795888Y-132901656D01*
X142795876Y-132901650D01*
X142583887Y-132813842D01*
X142503057Y-132792184D01*
X142362238Y-132754452D01*
X142324215Y-132749446D01*
X142134741Y-132724500D01*
X142134734Y-132724500D01*
X141905266Y-132724500D01*
X141905258Y-132724500D01*
X141688715Y-132753009D01*
X141677762Y-132754452D01*
X141584076Y-132779554D01*
X141456112Y-132813842D01*
X141244123Y-132901650D01*
X141244109Y-132901657D01*
X141045382Y-133016392D01*
X140863338Y-133156081D01*
X140701081Y-133318338D01*
X140561392Y-133500382D01*
X140446657Y-133699109D01*
X140446650Y-133699123D01*
X140358842Y-133911112D01*
X140299453Y-134132759D01*
X140299451Y-134132770D01*
X140269500Y-134360258D01*
X124328234Y-134360258D01*
X124369374Y-134341571D01*
X124369380Y-134341568D01*
X124554323Y-134213440D01*
X124554335Y-134213430D01*
X124713430Y-134054335D01*
X124713440Y-134054323D01*
X124841568Y-133869380D01*
X124841571Y-133869374D01*
X124934622Y-133664519D01*
X124989599Y-133446332D01*
X124999999Y-133314196D01*
X125000000Y-133314184D01*
X125000000Y-132750000D01*
X124183012Y-132750000D01*
X124215925Y-132692993D01*
X124250000Y-132565826D01*
X124250000Y-132434174D01*
X124215925Y-132307007D01*
X124183012Y-132250000D01*
X124999999Y-132250000D01*
X124999999Y-131685817D01*
X124999998Y-131685802D01*
X124989599Y-131553667D01*
X124934622Y-131335480D01*
X124841571Y-131130625D01*
X124841568Y-131130619D01*
X124713440Y-130945676D01*
X124713430Y-130945664D01*
X124554335Y-130786569D01*
X124554323Y-130786559D01*
X124369380Y-130658431D01*
X124369374Y-130658428D01*
X124164519Y-130565377D01*
X123946332Y-130510400D01*
X123814196Y-130500000D01*
X123000000Y-130500000D01*
X123000000Y-132000000D01*
X122500000Y-132000000D01*
X122500000Y-130500000D01*
X121685817Y-130500000D01*
X121685802Y-130500001D01*
X121553667Y-130510400D01*
X121335480Y-130565377D01*
X121130625Y-130658428D01*
X121130619Y-130658431D01*
X120945676Y-130786559D01*
X120945664Y-130786569D01*
X120786569Y-130945664D01*
X120786559Y-130945676D01*
X120658431Y-131130619D01*
X120658428Y-131130625D01*
X120565377Y-131335480D01*
X120510400Y-131553667D01*
X120500000Y-131685803D01*
X94950500Y-131685803D01*
X94950500Y-96999994D01*
X102112536Y-96999994D01*
X102112536Y-97000005D01*
X102133062Y-97247729D01*
X102133064Y-97247738D01*
X102194089Y-97488717D01*
X102293943Y-97716364D01*
X102394241Y-97869882D01*
X103134714Y-97129409D01*
X103151752Y-97192993D01*
X103217578Y-97307007D01*
X103310670Y-97400099D01*
X103424684Y-97465925D01*
X103488267Y-97482962D01*
X102747619Y-98223609D01*
X102794445Y-98260055D01*
X102794447Y-98260056D01*
X103013062Y-98378364D01*
X103013073Y-98378369D01*
X103248183Y-98459083D01*
X103493384Y-98500000D01*
X103741970Y-98500000D01*
X103987170Y-98459083D01*
X104222280Y-98378369D01*
X104222291Y-98378364D01*
X104440905Y-98260057D01*
X104440908Y-98260055D01*
X104487733Y-98223609D01*
X103747086Y-97482962D01*
X103810670Y-97465925D01*
X103924684Y-97400099D01*
X104017776Y-97307007D01*
X104083602Y-97192993D01*
X104100639Y-97129410D01*
X104841111Y-97869882D01*
X104941408Y-97716369D01*
X105041264Y-97488717D01*
X105102289Y-97247738D01*
X105102291Y-97247729D01*
X105122818Y-97000005D01*
X105122818Y-96999994D01*
X105102291Y-96752270D01*
X105102289Y-96752261D01*
X105041264Y-96511282D01*
X104941408Y-96283630D01*
X104841111Y-96130116D01*
X104100639Y-96870589D01*
X104083602Y-96807007D01*
X104017776Y-96692993D01*
X103924684Y-96599901D01*
X103810670Y-96534075D01*
X103747087Y-96517037D01*
X104487734Y-95776390D01*
X104487733Y-95776389D01*
X104440906Y-95739943D01*
X104222291Y-95621635D01*
X104222280Y-95621630D01*
X103987170Y-95540916D01*
X103741970Y-95500000D01*
X103493384Y-95500000D01*
X103248183Y-95540916D01*
X103013073Y-95621630D01*
X103013067Y-95621632D01*
X102794438Y-95739949D01*
X102747619Y-95776388D01*
X102747619Y-95776390D01*
X103488267Y-96517037D01*
X103424684Y-96534075D01*
X103310670Y-96599901D01*
X103217578Y-96692993D01*
X103151752Y-96807007D01*
X103134714Y-96870589D01*
X102394241Y-96130116D01*
X102293944Y-96283632D01*
X102194089Y-96511282D01*
X102133064Y-96752261D01*
X102133062Y-96752270D01*
X102112536Y-96999994D01*
X94950500Y-96999994D01*
X94950500Y-67077155D01*
X103535000Y-67077155D01*
X103535000Y-67725000D01*
X104451988Y-67725000D01*
X104419075Y-67782007D01*
X104385000Y-67909174D01*
X104385000Y-68040826D01*
X104419075Y-68167993D01*
X104451988Y-68225000D01*
X103535000Y-68225000D01*
X103535000Y-68872844D01*
X103541401Y-68932372D01*
X103541403Y-68932379D01*
X103591645Y-69067086D01*
X103591649Y-69067093D01*
X103677809Y-69182187D01*
X103677811Y-69182189D01*
X103792906Y-69268350D01*
X103792913Y-69268354D01*
X103927620Y-69318596D01*
X103927627Y-69318598D01*
X103987155Y-69324999D01*
X103987172Y-69325000D01*
X104635000Y-69325000D01*
X104635000Y-68408012D01*
X104692007Y-68440925D01*
X104819174Y-68475000D01*
X104950826Y-68475000D01*
X105077993Y-68440925D01*
X105135000Y-68408012D01*
X105135000Y-69325000D01*
X105782828Y-69325000D01*
X105782844Y-69324999D01*
X105842372Y-69318598D01*
X105842379Y-69318596D01*
X105977086Y-69268354D01*
X105977093Y-69268350D01*
X106092189Y-69182189D01*
X106092190Y-69182187D01*
X106178350Y-69067093D01*
X106178354Y-69067086D01*
X106184318Y-69051097D01*
X106226189Y-68995163D01*
X106291653Y-68970746D01*
X106359926Y-68985597D01*
X106409332Y-69035002D01*
X106424500Y-69094430D01*
X106424500Y-70785730D01*
X106404815Y-70852769D01*
X106352011Y-70898524D01*
X106282853Y-70908468D01*
X106219297Y-70879443D01*
X106201234Y-70860042D01*
X106132187Y-70767809D01*
X106017093Y-70681649D01*
X106017086Y-70681645D01*
X105882379Y-70631403D01*
X105882372Y-70631401D01*
X105822844Y-70625000D01*
X105175000Y-70625000D01*
X105175000Y-71541988D01*
X105117993Y-71509075D01*
X104990826Y-71475000D01*
X104859174Y-71475000D01*
X104732007Y-71509075D01*
X104675000Y-71541988D01*
X104675000Y-70625000D01*
X104027155Y-70625000D01*
X103967627Y-70631401D01*
X103967620Y-70631403D01*
X103832913Y-70681645D01*
X103832906Y-70681649D01*
X103717812Y-70767809D01*
X103717809Y-70767812D01*
X103631649Y-70882906D01*
X103631645Y-70882913D01*
X103581403Y-71017620D01*
X103581401Y-71017627D01*
X103575000Y-71077155D01*
X103575000Y-71725000D01*
X104491988Y-71725000D01*
X104459075Y-71782007D01*
X104425000Y-71909174D01*
X104425000Y-72040826D01*
X104459075Y-72167993D01*
X104491988Y-72225000D01*
X103575000Y-72225000D01*
X103575000Y-72872844D01*
X103581401Y-72932372D01*
X103581403Y-72932379D01*
X103631645Y-73067086D01*
X103631649Y-73067093D01*
X103717809Y-73182187D01*
X103717812Y-73182190D01*
X103832906Y-73268350D01*
X103832913Y-73268354D01*
X103967620Y-73318596D01*
X103967627Y-73318598D01*
X104027155Y-73324999D01*
X104027172Y-73325000D01*
X104675000Y-73325000D01*
X104675000Y-72408012D01*
X104732007Y-72440925D01*
X104859174Y-72475000D01*
X104990826Y-72475000D01*
X105117993Y-72440925D01*
X105175000Y-72408012D01*
X105175000Y-73325000D01*
X105822828Y-73325000D01*
X105822844Y-73324999D01*
X105882372Y-73318598D01*
X105882379Y-73318596D01*
X106017086Y-73268354D01*
X106017093Y-73268350D01*
X106132187Y-73182190D01*
X106132190Y-73182187D01*
X106201234Y-73089958D01*
X106257168Y-73048087D01*
X106326859Y-73043103D01*
X106388182Y-73076589D01*
X106421666Y-73137912D01*
X106424500Y-73164269D01*
X106424500Y-74785730D01*
X106404815Y-74852769D01*
X106352011Y-74898524D01*
X106282853Y-74908468D01*
X106219297Y-74879443D01*
X106201234Y-74860042D01*
X106132187Y-74767809D01*
X106017093Y-74681649D01*
X106017086Y-74681645D01*
X105882379Y-74631403D01*
X105882372Y-74631401D01*
X105822844Y-74625000D01*
X105175000Y-74625000D01*
X105175000Y-75541988D01*
X105117993Y-75509075D01*
X104990826Y-75475000D01*
X104859174Y-75475000D01*
X104732007Y-75509075D01*
X104675000Y-75541988D01*
X104675000Y-74625000D01*
X104027155Y-74625000D01*
X103967627Y-74631401D01*
X103967620Y-74631403D01*
X103832913Y-74681645D01*
X103832906Y-74681649D01*
X103717812Y-74767809D01*
X103717809Y-74767812D01*
X103631649Y-74882906D01*
X103631645Y-74882913D01*
X103581403Y-75017620D01*
X103581401Y-75017627D01*
X103575000Y-75077155D01*
X103575000Y-75725000D01*
X104491988Y-75725000D01*
X104459075Y-75782007D01*
X104425000Y-75909174D01*
X104425000Y-76040826D01*
X104459075Y-76167993D01*
X104491988Y-76225000D01*
X103575000Y-76225000D01*
X103575000Y-76872844D01*
X103581401Y-76932372D01*
X103581403Y-76932379D01*
X103631645Y-77067086D01*
X103631649Y-77067093D01*
X103717809Y-77182187D01*
X103717812Y-77182190D01*
X103832906Y-77268350D01*
X103832913Y-77268354D01*
X103967620Y-77318596D01*
X103967627Y-77318598D01*
X104027155Y-77324999D01*
X104027172Y-77325000D01*
X104675000Y-77325000D01*
X104675000Y-76408012D01*
X104732007Y-76440925D01*
X104859174Y-76475000D01*
X104990826Y-76475000D01*
X105117993Y-76440925D01*
X105175000Y-76408012D01*
X105175000Y-77325000D01*
X105822828Y-77325000D01*
X105822844Y-77324999D01*
X105882372Y-77318598D01*
X105882379Y-77318596D01*
X106017086Y-77268354D01*
X106017093Y-77268350D01*
X106132187Y-77182190D01*
X106132190Y-77182187D01*
X106201234Y-77089958D01*
X106257168Y-77048087D01*
X106326859Y-77043103D01*
X106388182Y-77076589D01*
X106421666Y-77137912D01*
X106424500Y-77164269D01*
X106424500Y-78785730D01*
X106404815Y-78852769D01*
X106352011Y-78898524D01*
X106282853Y-78908468D01*
X106219297Y-78879443D01*
X106201234Y-78860042D01*
X106132187Y-78767809D01*
X106017093Y-78681649D01*
X106017086Y-78681645D01*
X105882379Y-78631403D01*
X105882372Y-78631401D01*
X105822844Y-78625000D01*
X105175000Y-78625000D01*
X105175000Y-79541988D01*
X105117993Y-79509075D01*
X104990826Y-79475000D01*
X104859174Y-79475000D01*
X104732007Y-79509075D01*
X104675000Y-79541988D01*
X104675000Y-78625000D01*
X104027155Y-78625000D01*
X103967627Y-78631401D01*
X103967620Y-78631403D01*
X103832913Y-78681645D01*
X103832906Y-78681649D01*
X103717812Y-78767809D01*
X103717809Y-78767812D01*
X103631649Y-78882906D01*
X103631645Y-78882913D01*
X103581403Y-79017620D01*
X103581401Y-79017627D01*
X103575000Y-79077155D01*
X103575000Y-79725000D01*
X104491988Y-79725000D01*
X104459075Y-79782007D01*
X104425000Y-79909174D01*
X104425000Y-80040826D01*
X104459075Y-80167993D01*
X104491988Y-80225000D01*
X103575000Y-80225000D01*
X103575000Y-80872844D01*
X103581401Y-80932372D01*
X103581403Y-80932379D01*
X103631645Y-81067086D01*
X103631649Y-81067093D01*
X103717809Y-81182187D01*
X103717812Y-81182190D01*
X103832906Y-81268350D01*
X103832913Y-81268354D01*
X103967620Y-81318596D01*
X103967627Y-81318598D01*
X104027155Y-81324999D01*
X104027172Y-81325000D01*
X104675000Y-81325000D01*
X104675000Y-80408012D01*
X104732007Y-80440925D01*
X104859174Y-80475000D01*
X104990826Y-80475000D01*
X105117993Y-80440925D01*
X105175000Y-80408012D01*
X105175000Y-81325000D01*
X105822828Y-81325000D01*
X105822844Y-81324999D01*
X105882372Y-81318598D01*
X105882379Y-81318596D01*
X106017086Y-81268354D01*
X106017093Y-81268350D01*
X106132187Y-81182190D01*
X106132190Y-81182187D01*
X106201234Y-81089958D01*
X106257168Y-81048087D01*
X106326859Y-81043103D01*
X106388182Y-81076589D01*
X106421666Y-81137912D01*
X106424500Y-81164269D01*
X106424500Y-82820397D01*
X106404815Y-82887436D01*
X106352011Y-82933191D01*
X106282853Y-82943135D01*
X106219297Y-82914110D01*
X106199421Y-82889447D01*
X106198669Y-82890011D01*
X106107190Y-82767812D01*
X106107187Y-82767809D01*
X105992093Y-82681649D01*
X105992086Y-82681645D01*
X105857379Y-82631403D01*
X105857372Y-82631401D01*
X105797844Y-82625000D01*
X105150000Y-82625000D01*
X105150000Y-83541988D01*
X105092993Y-83509075D01*
X104965826Y-83475000D01*
X104834174Y-83475000D01*
X104707007Y-83509075D01*
X104650000Y-83541988D01*
X104650000Y-82625000D01*
X104002155Y-82625000D01*
X103942627Y-82631401D01*
X103942620Y-82631403D01*
X103807913Y-82681645D01*
X103807906Y-82681649D01*
X103692812Y-82767809D01*
X103692809Y-82767812D01*
X103606649Y-82882906D01*
X103606645Y-82882913D01*
X103556403Y-83017620D01*
X103556401Y-83017627D01*
X103550000Y-83077155D01*
X103550000Y-83725000D01*
X104466988Y-83725000D01*
X104434075Y-83782007D01*
X104400000Y-83909174D01*
X104400000Y-84040826D01*
X104434075Y-84167993D01*
X104466988Y-84225000D01*
X103550000Y-84225000D01*
X103550000Y-84872844D01*
X103556401Y-84932372D01*
X103556403Y-84932379D01*
X103606645Y-85067086D01*
X103606649Y-85067093D01*
X103692809Y-85182187D01*
X103692812Y-85182190D01*
X103807906Y-85268350D01*
X103807913Y-85268354D01*
X103942620Y-85318596D01*
X103942627Y-85318598D01*
X104002155Y-85324999D01*
X104002172Y-85325000D01*
X104650000Y-85325000D01*
X104650000Y-84408012D01*
X104707007Y-84440925D01*
X104834174Y-84475000D01*
X104965826Y-84475000D01*
X105092993Y-84440925D01*
X105150000Y-84408012D01*
X105150000Y-85325000D01*
X105797828Y-85325000D01*
X105797844Y-85324999D01*
X105857372Y-85318598D01*
X105857379Y-85318596D01*
X105992086Y-85268354D01*
X105992093Y-85268350D01*
X106107187Y-85182190D01*
X106107190Y-85182187D01*
X106198669Y-85059989D01*
X106200491Y-85061353D01*
X106241068Y-85020773D01*
X106309340Y-85005917D01*
X106374806Y-85030331D01*
X106416680Y-85086263D01*
X106424500Y-85129602D01*
X106424500Y-86779051D01*
X106404815Y-86846090D01*
X106352011Y-86891845D01*
X106282853Y-86901789D01*
X106219297Y-86872764D01*
X106201234Y-86853363D01*
X106137187Y-86767809D01*
X106022093Y-86681649D01*
X106022086Y-86681645D01*
X105887379Y-86631403D01*
X105887372Y-86631401D01*
X105827844Y-86625000D01*
X105180000Y-86625000D01*
X105180000Y-87541988D01*
X105122993Y-87509075D01*
X104995826Y-87475000D01*
X104864174Y-87475000D01*
X104737007Y-87509075D01*
X104680000Y-87541988D01*
X104680000Y-86625000D01*
X104032155Y-86625000D01*
X103972627Y-86631401D01*
X103972620Y-86631403D01*
X103837913Y-86681645D01*
X103837906Y-86681649D01*
X103722812Y-86767809D01*
X103722809Y-86767812D01*
X103636649Y-86882906D01*
X103636645Y-86882913D01*
X103586403Y-87017620D01*
X103586401Y-87017627D01*
X103580000Y-87077155D01*
X103580000Y-87725000D01*
X104496988Y-87725000D01*
X104464075Y-87782007D01*
X104430000Y-87909174D01*
X104430000Y-88040826D01*
X104464075Y-88167993D01*
X104496988Y-88225000D01*
X103580000Y-88225000D01*
X103580000Y-88872844D01*
X103586401Y-88932372D01*
X103586403Y-88932379D01*
X103636645Y-89067086D01*
X103636649Y-89067093D01*
X103722809Y-89182187D01*
X103722812Y-89182190D01*
X103837906Y-89268350D01*
X103837913Y-89268354D01*
X103972620Y-89318596D01*
X103972627Y-89318598D01*
X104032155Y-89324999D01*
X104032172Y-89325000D01*
X104680000Y-89325000D01*
X104680000Y-88408012D01*
X104737007Y-88440925D01*
X104864174Y-88475000D01*
X104995826Y-88475000D01*
X105122993Y-88440925D01*
X105180000Y-88408012D01*
X105180000Y-89325000D01*
X105827828Y-89325000D01*
X105827844Y-89324999D01*
X105887372Y-89318598D01*
X105887379Y-89318596D01*
X106022086Y-89268354D01*
X106022093Y-89268350D01*
X106137187Y-89182190D01*
X106137190Y-89182187D01*
X106223350Y-89067093D01*
X106223354Y-89067086D01*
X106229318Y-89051097D01*
X106271189Y-88995163D01*
X106336653Y-88970746D01*
X106404926Y-88985597D01*
X106454332Y-89035002D01*
X106469500Y-89094430D01*
X106469500Y-90818541D01*
X106469500Y-90818543D01*
X106469499Y-90818543D01*
X106507947Y-91011829D01*
X106507950Y-91011839D01*
X106583364Y-91193907D01*
X106583371Y-91193920D01*
X106692859Y-91357780D01*
X106692860Y-91357781D01*
X106692861Y-91357782D01*
X106832218Y-91497139D01*
X106832219Y-91497139D01*
X106839286Y-91504206D01*
X106839285Y-91504206D01*
X106839289Y-91504209D01*
X107580858Y-92245778D01*
X107614343Y-92307101D01*
X107617177Y-92333459D01*
X107617177Y-95383023D01*
X107597492Y-95450062D01*
X107544688Y-95495817D01*
X107517542Y-95503266D01*
X107517745Y-95504124D01*
X107510197Y-95505907D01*
X107375348Y-95556202D01*
X107375341Y-95556206D01*
X107260132Y-95642452D01*
X107260129Y-95642455D01*
X107173883Y-95757664D01*
X107173879Y-95757671D01*
X107123585Y-95892517D01*
X107117178Y-95952116D01*
X107117178Y-95952123D01*
X107117177Y-95952135D01*
X107117177Y-98047870D01*
X107117178Y-98047876D01*
X107123585Y-98107483D01*
X107173879Y-98242328D01*
X107173883Y-98242335D01*
X107260129Y-98357544D01*
X107260132Y-98357547D01*
X107375341Y-98443793D01*
X107375348Y-98443797D01*
X107510194Y-98494091D01*
X107517739Y-98495874D01*
X107517200Y-98498151D01*
X107570964Y-98520408D01*
X107610824Y-98577793D01*
X107617177Y-98616975D01*
X107617177Y-116966221D01*
X107646330Y-117112782D01*
X107655623Y-117159504D01*
X107655626Y-117159514D01*
X107731041Y-117341584D01*
X107731048Y-117341597D01*
X107840537Y-117505458D01*
X107840540Y-117505462D01*
X107984214Y-117649136D01*
X107984236Y-117649156D01*
X117469735Y-127134655D01*
X117469764Y-127134686D01*
X117612217Y-127277139D01*
X117776080Y-127386628D01*
X117776086Y-127386632D01*
X117776088Y-127386633D01*
X117776092Y-127386635D01*
X117836108Y-127411493D01*
X117904410Y-127439785D01*
X117958164Y-127462051D01*
X118033574Y-127477051D01*
X118063045Y-127482913D01*
X118151456Y-127500500D01*
X118151459Y-127500500D01*
X118151460Y-127500500D01*
X118348540Y-127500500D01*
X120375501Y-127500500D01*
X120442540Y-127520185D01*
X120488295Y-127572989D01*
X120499501Y-127624500D01*
X120499501Y-128297876D01*
X120505908Y-128357483D01*
X120556202Y-128492328D01*
X120556206Y-128492335D01*
X120642452Y-128607544D01*
X120642455Y-128607547D01*
X120757664Y-128693793D01*
X120757671Y-128693797D01*
X120892517Y-128744091D01*
X120892516Y-128744091D01*
X120899444Y-128744835D01*
X120952127Y-128750500D01*
X124547872Y-128750499D01*
X124607483Y-128744091D01*
X124742331Y-128693796D01*
X124857546Y-128607546D01*
X124943796Y-128492331D01*
X124962012Y-128443491D01*
X125003880Y-128387560D01*
X125069344Y-128363141D01*
X125137617Y-128377991D01*
X125187024Y-128427396D01*
X125202018Y-128493401D01*
X125200001Y-128531374D01*
X125200000Y-128531421D01*
X125200000Y-129250000D01*
X126950000Y-129250000D01*
X126950000Y-129750000D01*
X125200001Y-129750000D01*
X125200001Y-130468588D01*
X125202794Y-130521191D01*
X125247237Y-130750987D01*
X125329879Y-130969975D01*
X125448339Y-131171841D01*
X125448344Y-131171848D01*
X125599211Y-131350786D01*
X125599213Y-131350788D01*
X125778151Y-131501655D01*
X125778158Y-131501660D01*
X125980024Y-131620120D01*
X126199012Y-131702762D01*
X126428809Y-131747205D01*
X126481382Y-131749998D01*
X126481421Y-131749999D01*
X127199999Y-131749999D01*
X127200000Y-131749998D01*
X127200000Y-130933012D01*
X127257007Y-130965925D01*
X127384174Y-131000000D01*
X127515826Y-131000000D01*
X127642993Y-130965925D01*
X127700000Y-130933012D01*
X127700000Y-131749999D01*
X128418576Y-131749999D01*
X128418588Y-131749998D01*
X128471191Y-131747205D01*
X128700987Y-131702762D01*
X128919975Y-131620120D01*
X129121841Y-131501660D01*
X129121848Y-131501655D01*
X129300786Y-131350788D01*
X129300788Y-131350786D01*
X129451655Y-131171848D01*
X129451660Y-131171841D01*
X129570120Y-130969975D01*
X129652762Y-130750987D01*
X129697205Y-130521191D01*
X129697205Y-130521190D01*
X129699998Y-130468617D01*
X129700000Y-130468578D01*
X129700000Y-129750000D01*
X127950000Y-129750000D01*
X127950000Y-129250000D01*
X129699999Y-129250000D01*
X129699999Y-128531423D01*
X129699998Y-128531411D01*
X129697205Y-128478808D01*
X129652762Y-128249012D01*
X129570120Y-128030024D01*
X129451660Y-127828158D01*
X129451655Y-127828151D01*
X129347342Y-127704429D01*
X129319178Y-127640487D01*
X129330055Y-127571469D01*
X129376519Y-127519288D01*
X129442143Y-127500500D01*
X140363336Y-127500500D01*
X140430375Y-127520185D01*
X140454565Y-127540517D01*
X140530020Y-127622482D01*
X140530256Y-127622738D01*
X140726491Y-127775474D01*
X140945190Y-127893828D01*
X141180386Y-127974571D01*
X141425665Y-128015500D01*
X141674335Y-128015500D01*
X141919614Y-127974571D01*
X142154810Y-127893828D01*
X142373509Y-127775474D01*
X142569744Y-127622738D01*
X142738164Y-127439785D01*
X142874173Y-127231607D01*
X142974063Y-127003881D01*
X143035108Y-126762821D01*
X143055643Y-126515000D01*
X143035108Y-126267179D01*
X142974063Y-126026119D01*
X142874173Y-125798393D01*
X142738166Y-125590217D01*
X142654655Y-125499500D01*
X142569744Y-125407262D01*
X142466253Y-125326712D01*
X142425442Y-125270003D01*
X142418655Y-125221176D01*
X142420056Y-125198609D01*
X141687575Y-124466128D01*
X141746853Y-124450245D01*
X141863147Y-124383102D01*
X141958102Y-124288147D01*
X142025245Y-124171853D01*
X142041127Y-124112575D01*
X142773434Y-124844882D01*
X142873731Y-124691369D01*
X142973587Y-124463717D01*
X143034612Y-124222738D01*
X143034614Y-124222729D01*
X143055141Y-123975005D01*
X143055141Y-123974994D01*
X143034614Y-123727270D01*
X143034612Y-123727261D01*
X142973587Y-123486282D01*
X142873731Y-123258630D01*
X142773434Y-123105116D01*
X142041127Y-123837423D01*
X142025245Y-123778147D01*
X141958102Y-123661853D01*
X141863147Y-123566898D01*
X141746853Y-123499755D01*
X141687575Y-123483872D01*
X142420056Y-122751390D01*
X142418655Y-122728825D01*
X142434147Y-122660694D01*
X142466250Y-122623290D01*
X142569744Y-122542738D01*
X142738164Y-122359785D01*
X142874173Y-122151607D01*
X142974063Y-121923881D01*
X143035108Y-121682821D01*
X143055643Y-121435000D01*
X143035108Y-121187179D01*
X142974063Y-120946119D01*
X142874173Y-120718393D01*
X142839460Y-120665261D01*
X142738166Y-120510217D01*
X142631625Y-120394483D01*
X142569744Y-120327262D01*
X142486991Y-120262852D01*
X142446179Y-120206143D01*
X142442504Y-120136370D01*
X142477136Y-120075687D01*
X142486985Y-120067151D01*
X142569744Y-120002738D01*
X142738164Y-119819785D01*
X142874173Y-119611607D01*
X142974063Y-119383881D01*
X143035108Y-119142821D01*
X143055643Y-118895000D01*
X143035108Y-118647179D01*
X142974063Y-118406119D01*
X142874173Y-118178393D01*
X142817512Y-118091666D01*
X142738166Y-117970217D01*
X142631625Y-117854483D01*
X142569744Y-117787262D01*
X142486991Y-117722852D01*
X142446179Y-117666143D01*
X142442504Y-117596370D01*
X142477136Y-117535687D01*
X142486985Y-117527151D01*
X142569744Y-117462738D01*
X142738164Y-117279785D01*
X142874173Y-117071607D01*
X142974063Y-116843881D01*
X143035108Y-116602821D01*
X143044492Y-116489576D01*
X143055643Y-116355005D01*
X143055643Y-116354994D01*
X143035109Y-116107187D01*
X143035107Y-116107175D01*
X142974063Y-115866118D01*
X142874173Y-115638393D01*
X142738166Y-115430217D01*
X142631625Y-115314483D01*
X142569744Y-115247262D01*
X142486991Y-115182852D01*
X142446179Y-115126143D01*
X142442504Y-115056370D01*
X142477136Y-114995687D01*
X142486985Y-114987151D01*
X142569744Y-114922738D01*
X142738164Y-114739785D01*
X142874173Y-114531607D01*
X142974063Y-114303881D01*
X143035108Y-114062821D01*
X143055643Y-113815000D01*
X143055163Y-113809209D01*
X143035109Y-113567187D01*
X143035107Y-113567175D01*
X142974063Y-113326118D01*
X142874173Y-113098393D01*
X142738166Y-112890217D01*
X142631625Y-112774483D01*
X142569744Y-112707262D01*
X142486991Y-112642852D01*
X142446179Y-112586143D01*
X142442504Y-112516370D01*
X142477136Y-112455687D01*
X142486985Y-112447151D01*
X142569744Y-112382738D01*
X142738164Y-112199785D01*
X142874173Y-111991607D01*
X142974063Y-111763881D01*
X143035108Y-111522821D01*
X143054880Y-111284209D01*
X143055643Y-111275005D01*
X143055643Y-111274994D01*
X143035109Y-111027187D01*
X143035107Y-111027175D01*
X142974063Y-110786118D01*
X142874173Y-110558393D01*
X142738166Y-110350217D01*
X142631625Y-110234483D01*
X142569744Y-110167262D01*
X142486991Y-110102852D01*
X142446179Y-110046143D01*
X142442504Y-109976370D01*
X142477136Y-109915687D01*
X142486985Y-109907151D01*
X142569744Y-109842738D01*
X142738164Y-109659785D01*
X142874173Y-109451607D01*
X142974063Y-109223881D01*
X143035108Y-108982821D01*
X143051792Y-108781479D01*
X143055643Y-108735005D01*
X143055643Y-108734994D01*
X143035109Y-108487187D01*
X143035107Y-108487175D01*
X142974063Y-108246118D01*
X142874173Y-108018393D01*
X142738166Y-107810217D01*
X142631625Y-107694483D01*
X142569744Y-107627262D01*
X142486991Y-107562852D01*
X142446179Y-107506143D01*
X142442504Y-107436370D01*
X142477136Y-107375687D01*
X142486985Y-107367151D01*
X142569744Y-107302738D01*
X142738164Y-107119785D01*
X142874173Y-106911607D01*
X142974063Y-106683881D01*
X143035108Y-106442821D01*
X143055643Y-106195000D01*
X143035108Y-105947179D01*
X142974063Y-105706119D01*
X142874173Y-105478393D01*
X142738166Y-105270217D01*
X142716557Y-105246744D01*
X142569744Y-105087262D01*
X142486991Y-105022852D01*
X142446179Y-104966143D01*
X142442504Y-104896370D01*
X142477136Y-104835687D01*
X142486985Y-104827151D01*
X142569744Y-104762738D01*
X142738164Y-104579785D01*
X142874173Y-104371607D01*
X142974063Y-104143881D01*
X143035108Y-103902821D01*
X143055643Y-103655000D01*
X143035108Y-103407179D01*
X142974063Y-103166119D01*
X142874173Y-102938393D01*
X142738166Y-102730217D01*
X142716557Y-102706744D01*
X142569744Y-102547262D01*
X142486991Y-102482852D01*
X142446179Y-102426143D01*
X142442504Y-102356370D01*
X142477136Y-102295687D01*
X142486985Y-102287151D01*
X142569744Y-102222738D01*
X142738164Y-102039785D01*
X142874173Y-101831607D01*
X142974063Y-101603881D01*
X143035108Y-101362821D01*
X143055643Y-101115000D01*
X143035108Y-100867179D01*
X142974063Y-100626119D01*
X142874173Y-100398393D01*
X142738166Y-100190217D01*
X142716557Y-100166744D01*
X142569744Y-100007262D01*
X142486991Y-99942852D01*
X142446179Y-99886143D01*
X142442504Y-99816370D01*
X142477136Y-99755687D01*
X142486985Y-99747151D01*
X142569744Y-99682738D01*
X142738164Y-99499785D01*
X142874173Y-99291607D01*
X142974063Y-99063881D01*
X143035108Y-98822821D01*
X143055643Y-98575000D01*
X143053566Y-98549937D01*
X143035109Y-98327187D01*
X143035107Y-98327175D01*
X142974063Y-98086118D01*
X142874173Y-97858393D01*
X142738166Y-97650217D01*
X142599881Y-97500000D01*
X142569744Y-97467262D01*
X142486991Y-97402852D01*
X142446179Y-97346143D01*
X142442504Y-97276370D01*
X142477136Y-97215687D01*
X142486985Y-97207151D01*
X142569744Y-97142738D01*
X142738164Y-96959785D01*
X142874173Y-96751607D01*
X142974063Y-96523881D01*
X143035108Y-96282821D01*
X143035109Y-96282812D01*
X143055643Y-96035005D01*
X143055643Y-96034994D01*
X143035109Y-95787187D01*
X143035107Y-95787175D01*
X142974063Y-95546118D01*
X142874173Y-95318393D01*
X142738166Y-95110217D01*
X142716557Y-95086744D01*
X142569744Y-94927262D01*
X142486991Y-94862852D01*
X142446179Y-94806143D01*
X142442504Y-94736370D01*
X142477136Y-94675687D01*
X142486985Y-94667151D01*
X142569744Y-94602738D01*
X142738164Y-94419785D01*
X142874173Y-94211607D01*
X142974063Y-93983881D01*
X143035108Y-93742821D01*
X143055643Y-93495000D01*
X143035108Y-93247179D01*
X142974063Y-93006119D01*
X142874173Y-92778393D01*
X142738166Y-92570217D01*
X142716557Y-92546744D01*
X142569744Y-92387262D01*
X142486991Y-92322852D01*
X142446179Y-92266143D01*
X142442504Y-92196370D01*
X142477136Y-92135687D01*
X142486985Y-92127151D01*
X142569744Y-92062738D01*
X142738164Y-91879785D01*
X142874173Y-91671607D01*
X142974063Y-91443881D01*
X143035108Y-91202821D01*
X143044412Y-91090537D01*
X143055643Y-90955005D01*
X143055643Y-90954994D01*
X143035109Y-90707187D01*
X143035107Y-90707175D01*
X142974063Y-90466118D01*
X142874173Y-90238393D01*
X142738166Y-90030217D01*
X142716557Y-90006744D01*
X142569744Y-89847262D01*
X142373509Y-89694526D01*
X142373507Y-89694525D01*
X142373506Y-89694524D01*
X142154811Y-89576172D01*
X142154802Y-89576169D01*
X141981812Y-89516781D01*
X141924797Y-89476395D01*
X141898666Y-89411596D01*
X141911718Y-89342956D01*
X141959806Y-89292268D01*
X142022075Y-89275500D01*
X142134727Y-89275500D01*
X142134734Y-89275500D01*
X142362238Y-89245548D01*
X142583887Y-89186158D01*
X142795888Y-89098344D01*
X142994612Y-88983611D01*
X143176661Y-88843919D01*
X143176665Y-88843914D01*
X143176670Y-88843911D01*
X143338911Y-88681670D01*
X143338914Y-88681665D01*
X143338919Y-88681661D01*
X143478611Y-88499612D01*
X143593344Y-88300888D01*
X143681158Y-88088887D01*
X143740548Y-87867238D01*
X143770500Y-87639734D01*
X143770500Y-87410266D01*
X143740548Y-87182762D01*
X143681158Y-86961113D01*
X143593344Y-86749112D01*
X143478611Y-86550388D01*
X143478608Y-86550385D01*
X143478607Y-86550382D01*
X143338918Y-86368338D01*
X143338911Y-86368330D01*
X143176670Y-86206089D01*
X143176661Y-86206081D01*
X142994617Y-86066392D01*
X142795890Y-85951657D01*
X142795876Y-85951650D01*
X142583887Y-85863842D01*
X142362238Y-85804452D01*
X142324215Y-85799446D01*
X142134741Y-85774500D01*
X142134734Y-85774500D01*
X141905266Y-85774500D01*
X141905258Y-85774500D01*
X141688715Y-85803009D01*
X141677762Y-85804452D01*
X141584076Y-85829554D01*
X141456112Y-85863842D01*
X141244123Y-85951650D01*
X141244109Y-85951657D01*
X141045382Y-86066392D01*
X140863338Y-86206081D01*
X140701081Y-86368338D01*
X140561392Y-86550382D01*
X140446657Y-86749109D01*
X140446650Y-86749123D01*
X140358842Y-86961112D01*
X140299453Y-87182759D01*
X140299451Y-87182770D01*
X140269500Y-87410258D01*
X140269500Y-87639741D01*
X140288231Y-87782007D01*
X140299452Y-87867238D01*
X140345964Y-88040826D01*
X140358842Y-88088887D01*
X140446650Y-88300876D01*
X140446657Y-88300890D01*
X140561392Y-88499617D01*
X140701081Y-88681661D01*
X140701089Y-88681670D01*
X140863330Y-88843911D01*
X140863338Y-88843918D01*
X141045382Y-88983607D01*
X141045385Y-88983608D01*
X141045388Y-88983611D01*
X141244112Y-89098344D01*
X141244117Y-89098346D01*
X141244123Y-89098349D01*
X141335480Y-89136190D01*
X141456113Y-89186158D01*
X141547802Y-89210725D01*
X141607462Y-89247090D01*
X141637991Y-89309937D01*
X141629696Y-89379312D01*
X141585211Y-89433190D01*
X141518659Y-89454465D01*
X141515708Y-89454500D01*
X141425665Y-89454500D01*
X141180383Y-89495429D01*
X140945197Y-89576169D01*
X140945188Y-89576172D01*
X140726493Y-89694524D01*
X140530257Y-89847261D01*
X140361833Y-90030217D01*
X140225826Y-90238393D01*
X140125936Y-90466118D01*
X140064892Y-90707175D01*
X140064890Y-90707187D01*
X140044357Y-90954994D01*
X140044357Y-90955005D01*
X140064890Y-91202812D01*
X140064892Y-91202824D01*
X140125936Y-91443881D01*
X140225826Y-91671606D01*
X140361833Y-91879782D01*
X140361836Y-91879785D01*
X140530256Y-92062738D01*
X140613008Y-92127147D01*
X140653821Y-92183857D01*
X140657496Y-92253630D01*
X140622864Y-92314313D01*
X140613014Y-92322848D01*
X140554400Y-92368469D01*
X140530257Y-92387261D01*
X140361833Y-92570217D01*
X140225826Y-92778393D01*
X140125936Y-93006118D01*
X140064892Y-93247175D01*
X140064890Y-93247187D01*
X140044357Y-93494994D01*
X140044357Y-93495005D01*
X140064890Y-93742812D01*
X140064892Y-93742824D01*
X140125936Y-93983881D01*
X140225826Y-94211606D01*
X140361833Y-94419782D01*
X140361836Y-94419785D01*
X140530256Y-94602738D01*
X140613008Y-94667147D01*
X140653821Y-94723857D01*
X140657496Y-94793630D01*
X140622864Y-94854313D01*
X140613014Y-94862848D01*
X140554400Y-94908469D01*
X140530257Y-94927261D01*
X140361833Y-95110217D01*
X140225826Y-95318393D01*
X140125936Y-95546118D01*
X140064892Y-95787175D01*
X140064890Y-95787187D01*
X140044357Y-96034994D01*
X140044357Y-96035005D01*
X140064890Y-96282812D01*
X140064892Y-96282824D01*
X140125936Y-96523881D01*
X140225826Y-96751606D01*
X140361833Y-96959782D01*
X140361836Y-96959785D01*
X140530256Y-97142738D01*
X140613008Y-97207147D01*
X140653821Y-97263857D01*
X140657496Y-97333630D01*
X140622864Y-97394313D01*
X140613014Y-97402848D01*
X140554400Y-97448469D01*
X140530257Y-97467261D01*
X140361833Y-97650217D01*
X140225826Y-97858393D01*
X140125936Y-98086118D01*
X140064892Y-98327175D01*
X140064890Y-98327187D01*
X140044357Y-98574994D01*
X140044357Y-98575005D01*
X140064890Y-98822812D01*
X140064892Y-98822824D01*
X140125936Y-99063881D01*
X140225826Y-99291606D01*
X140361833Y-99499782D01*
X140361836Y-99499785D01*
X140530256Y-99682738D01*
X140613008Y-99747147D01*
X140653821Y-99803857D01*
X140657496Y-99873630D01*
X140622864Y-99934313D01*
X140613014Y-99942848D01*
X140554400Y-99988469D01*
X140530257Y-100007261D01*
X140361833Y-100190217D01*
X140225826Y-100398393D01*
X140125936Y-100626118D01*
X140064892Y-100867175D01*
X140064890Y-100867187D01*
X140044357Y-101114994D01*
X140044357Y-101115005D01*
X140064890Y-101362812D01*
X140064892Y-101362824D01*
X140125936Y-101603881D01*
X140225826Y-101831606D01*
X140361833Y-102039782D01*
X140361836Y-102039785D01*
X140530256Y-102222738D01*
X140613008Y-102287147D01*
X140653821Y-102343857D01*
X140657496Y-102413630D01*
X140622864Y-102474313D01*
X140613014Y-102482848D01*
X140554400Y-102528469D01*
X140530257Y-102547261D01*
X140361833Y-102730217D01*
X140225826Y-102938393D01*
X140125936Y-103166118D01*
X140064892Y-103407175D01*
X140064890Y-103407187D01*
X140044357Y-103654994D01*
X140044357Y-103655005D01*
X140064890Y-103902812D01*
X140064892Y-103902824D01*
X140125936Y-104143881D01*
X140225826Y-104371606D01*
X140361833Y-104579782D01*
X140361836Y-104579785D01*
X140530256Y-104762738D01*
X140613008Y-104827147D01*
X140653821Y-104883857D01*
X140657496Y-104953630D01*
X140622864Y-105014313D01*
X140613014Y-105022848D01*
X140554400Y-105068469D01*
X140530257Y-105087261D01*
X140361833Y-105270217D01*
X140225826Y-105478393D01*
X140125936Y-105706118D01*
X140064892Y-105947175D01*
X140064890Y-105947187D01*
X140044357Y-106194994D01*
X140044357Y-106195005D01*
X140064890Y-106442812D01*
X140064892Y-106442824D01*
X140125936Y-106683881D01*
X140225826Y-106911606D01*
X140361833Y-107119782D01*
X140361836Y-107119785D01*
X140530256Y-107302738D01*
X140613008Y-107367147D01*
X140653821Y-107423857D01*
X140657496Y-107493630D01*
X140622864Y-107554313D01*
X140613014Y-107562848D01*
X140583809Y-107585580D01*
X140530255Y-107627262D01*
X140530252Y-107627265D01*
X140468374Y-107694483D01*
X140408487Y-107730474D01*
X140377145Y-107734500D01*
X138700782Y-107734500D01*
X138633743Y-107714815D01*
X138613101Y-107698181D01*
X138536819Y-107621899D01*
X138503334Y-107560576D01*
X138500500Y-107534218D01*
X138500500Y-85525000D01*
X145470000Y-85525000D01*
X145470000Y-92015000D01*
X163160000Y-92015000D01*
X163160000Y-85525000D01*
X163159999Y-85524999D01*
X157500008Y-85499999D01*
X145470000Y-85525000D01*
X138500500Y-85525000D01*
X138500500Y-70327498D01*
X159734532Y-70327498D01*
X159734532Y-70327501D01*
X159754364Y-70554186D01*
X159754366Y-70554197D01*
X159813258Y-70773988D01*
X159813261Y-70773997D01*
X159909431Y-70980232D01*
X159909432Y-70980234D01*
X160039954Y-71166641D01*
X160200858Y-71327545D01*
X160200861Y-71327547D01*
X160387266Y-71458068D01*
X160593504Y-71554239D01*
X160813308Y-71613135D01*
X160975230Y-71627301D01*
X161039998Y-71632968D01*
X161039999Y-71632968D01*
X161039999Y-71632967D01*
X161040000Y-71632968D01*
X161141839Y-71624057D01*
X161210336Y-71637823D01*
X161240326Y-71659904D01*
X172413181Y-82832759D01*
X172446666Y-82894082D01*
X172449500Y-82920440D01*
X172449500Y-111617060D01*
X172429815Y-111684099D01*
X172413181Y-111704741D01*
X168599741Y-115518181D01*
X168538418Y-115551666D01*
X168512060Y-115554500D01*
X168286469Y-115554500D01*
X168219430Y-115534815D01*
X168182660Y-115498321D01*
X168138166Y-115430217D01*
X168031625Y-115314483D01*
X167969744Y-115247262D01*
X167886991Y-115182852D01*
X167846179Y-115126143D01*
X167842504Y-115056370D01*
X167877136Y-114995687D01*
X167886985Y-114987151D01*
X167969744Y-114922738D01*
X168138164Y-114739785D01*
X168274173Y-114531607D01*
X168374063Y-114303881D01*
X168435108Y-114062821D01*
X168455643Y-113815000D01*
X168455163Y-113809209D01*
X168435109Y-113567187D01*
X168435107Y-113567175D01*
X168374063Y-113326118D01*
X168274173Y-113098393D01*
X168138166Y-112890217D01*
X168031625Y-112774483D01*
X167969744Y-112707262D01*
X167886991Y-112642852D01*
X167846179Y-112586143D01*
X167842504Y-112516370D01*
X167877136Y-112455687D01*
X167886985Y-112447151D01*
X167969744Y-112382738D01*
X168138164Y-112199785D01*
X168274173Y-111991607D01*
X168374063Y-111763881D01*
X168435108Y-111522821D01*
X168454880Y-111284209D01*
X168455643Y-111275005D01*
X168455643Y-111274994D01*
X168435109Y-111027187D01*
X168435107Y-111027175D01*
X168374063Y-110786118D01*
X168274173Y-110558393D01*
X168138166Y-110350217D01*
X168031625Y-110234483D01*
X167969744Y-110167262D01*
X167886991Y-110102852D01*
X167846179Y-110046143D01*
X167842504Y-109976370D01*
X167877136Y-109915687D01*
X167886985Y-109907151D01*
X167969744Y-109842738D01*
X168138164Y-109659785D01*
X168274173Y-109451607D01*
X168374063Y-109223881D01*
X168435108Y-108982821D01*
X168451792Y-108781479D01*
X168455643Y-108735005D01*
X168455643Y-108734994D01*
X168435109Y-108487187D01*
X168435107Y-108487175D01*
X168374063Y-108246118D01*
X168274173Y-108018393D01*
X168138166Y-107810217D01*
X168031625Y-107694483D01*
X167969744Y-107627262D01*
X167886991Y-107562852D01*
X167846179Y-107506143D01*
X167842504Y-107436370D01*
X167877136Y-107375687D01*
X167886985Y-107367151D01*
X167969744Y-107302738D01*
X168138164Y-107119785D01*
X168274173Y-106911607D01*
X168374063Y-106683881D01*
X168435108Y-106442821D01*
X168455643Y-106195000D01*
X168435108Y-105947179D01*
X168374063Y-105706119D01*
X168274173Y-105478393D01*
X168138166Y-105270217D01*
X168116557Y-105246744D01*
X167969744Y-105087262D01*
X167886991Y-105022852D01*
X167846179Y-104966143D01*
X167842504Y-104896370D01*
X167877136Y-104835687D01*
X167886985Y-104827151D01*
X167969744Y-104762738D01*
X168138164Y-104579785D01*
X168274173Y-104371607D01*
X168374063Y-104143881D01*
X168435108Y-103902821D01*
X168455643Y-103655000D01*
X168435108Y-103407179D01*
X168374063Y-103166119D01*
X168274173Y-102938393D01*
X168138166Y-102730217D01*
X168116557Y-102706744D01*
X167969744Y-102547262D01*
X167886991Y-102482852D01*
X167846179Y-102426143D01*
X167842504Y-102356370D01*
X167877136Y-102295687D01*
X167886985Y-102287151D01*
X167969744Y-102222738D01*
X168138164Y-102039785D01*
X168274173Y-101831607D01*
X168374063Y-101603881D01*
X168435108Y-101362821D01*
X168455643Y-101115000D01*
X168435108Y-100867179D01*
X168374063Y-100626119D01*
X168274173Y-100398393D01*
X168138166Y-100190217D01*
X168116557Y-100166744D01*
X167969744Y-100007262D01*
X167886991Y-99942852D01*
X167846179Y-99886143D01*
X167842504Y-99816370D01*
X167877136Y-99755687D01*
X167886985Y-99747151D01*
X167969744Y-99682738D01*
X168138164Y-99499785D01*
X168274173Y-99291607D01*
X168374063Y-99063881D01*
X168435108Y-98822821D01*
X168455643Y-98575000D01*
X168453566Y-98549937D01*
X168435109Y-98327187D01*
X168435107Y-98327175D01*
X168374063Y-98086118D01*
X168274173Y-97858393D01*
X168138166Y-97650217D01*
X167999881Y-97500000D01*
X167969744Y-97467262D01*
X167886991Y-97402852D01*
X167846179Y-97346143D01*
X167842504Y-97276370D01*
X167877136Y-97215687D01*
X167886985Y-97207151D01*
X167969744Y-97142738D01*
X168138164Y-96959785D01*
X168274173Y-96751607D01*
X168374063Y-96523881D01*
X168435108Y-96282821D01*
X168435109Y-96282812D01*
X168455643Y-96035005D01*
X168455643Y-96034994D01*
X168435109Y-95787187D01*
X168435107Y-95787175D01*
X168374063Y-95546118D01*
X168274173Y-95318393D01*
X168138166Y-95110217D01*
X168116557Y-95086744D01*
X167969744Y-94927262D01*
X167886991Y-94862852D01*
X167846179Y-94806143D01*
X167842504Y-94736370D01*
X167877136Y-94675687D01*
X167886985Y-94667151D01*
X167969744Y-94602738D01*
X168138164Y-94419785D01*
X168274173Y-94211607D01*
X168374063Y-93983881D01*
X168435108Y-93742821D01*
X168455643Y-93495000D01*
X168435108Y-93247179D01*
X168374063Y-93006119D01*
X168274173Y-92778393D01*
X168138166Y-92570217D01*
X168116557Y-92546744D01*
X167969744Y-92387262D01*
X167886991Y-92322852D01*
X167846179Y-92266143D01*
X167842504Y-92196370D01*
X167877136Y-92135687D01*
X167886985Y-92127151D01*
X167969744Y-92062738D01*
X168138164Y-91879785D01*
X168274173Y-91671607D01*
X168374063Y-91443881D01*
X168435108Y-91202821D01*
X168444412Y-91090537D01*
X168455643Y-90955005D01*
X168455643Y-90954994D01*
X168435109Y-90707187D01*
X168435107Y-90707175D01*
X168374063Y-90466118D01*
X168274173Y-90238393D01*
X168138166Y-90030217D01*
X168116557Y-90006744D01*
X167969744Y-89847262D01*
X167773509Y-89694526D01*
X167773507Y-89694525D01*
X167773506Y-89694524D01*
X167554811Y-89576172D01*
X167554802Y-89576169D01*
X167319616Y-89495429D01*
X167074335Y-89454500D01*
X167034292Y-89454500D01*
X166967253Y-89434815D01*
X166921498Y-89382011D01*
X166911554Y-89312853D01*
X166940579Y-89249297D01*
X166999357Y-89211523D01*
X167002164Y-89210734D01*
X167093887Y-89186158D01*
X167305888Y-89098344D01*
X167504612Y-88983611D01*
X167686661Y-88843919D01*
X167686665Y-88843914D01*
X167686670Y-88843911D01*
X167848911Y-88681670D01*
X167848914Y-88681665D01*
X167848919Y-88681661D01*
X167988611Y-88499612D01*
X168103344Y-88300888D01*
X168191158Y-88088887D01*
X168250548Y-87867238D01*
X168280500Y-87639734D01*
X168280500Y-87410266D01*
X168250548Y-87182762D01*
X168191158Y-86961113D01*
X168103344Y-86749112D01*
X167988611Y-86550388D01*
X167988608Y-86550385D01*
X167988607Y-86550382D01*
X167848918Y-86368338D01*
X167848911Y-86368330D01*
X167686670Y-86206089D01*
X167686661Y-86206081D01*
X167504617Y-86066392D01*
X167305890Y-85951657D01*
X167305876Y-85951650D01*
X167093887Y-85863842D01*
X166872238Y-85804452D01*
X166834215Y-85799446D01*
X166644741Y-85774500D01*
X166644734Y-85774500D01*
X166415266Y-85774500D01*
X166415258Y-85774500D01*
X166198715Y-85803009D01*
X166187762Y-85804452D01*
X166094076Y-85829554D01*
X165966112Y-85863842D01*
X165754123Y-85951650D01*
X165754109Y-85951657D01*
X165555382Y-86066392D01*
X165373338Y-86206081D01*
X165211081Y-86368338D01*
X165071392Y-86550382D01*
X164956657Y-86749109D01*
X164956650Y-86749123D01*
X164868842Y-86961112D01*
X164809453Y-87182759D01*
X164809451Y-87182770D01*
X164779500Y-87410258D01*
X164779500Y-87639741D01*
X164798231Y-87782007D01*
X164809452Y-87867238D01*
X164855964Y-88040826D01*
X164868842Y-88088887D01*
X164956650Y-88300876D01*
X164956657Y-88300890D01*
X165071392Y-88499617D01*
X165211081Y-88681661D01*
X165211089Y-88681670D01*
X165373330Y-88843911D01*
X165373338Y-88843918D01*
X165555382Y-88983607D01*
X165555385Y-88983608D01*
X165555388Y-88983611D01*
X165754112Y-89098344D01*
X165754117Y-89098346D01*
X165754123Y-89098349D01*
X165845480Y-89136190D01*
X165966113Y-89186158D01*
X166187762Y-89245548D01*
X166415266Y-89275500D01*
X166415273Y-89275500D01*
X166477925Y-89275500D01*
X166544964Y-89295185D01*
X166590719Y-89347989D01*
X166600663Y-89417147D01*
X166571638Y-89480703D01*
X166518188Y-89516781D01*
X166345197Y-89576169D01*
X166345188Y-89576172D01*
X166126493Y-89694524D01*
X165930257Y-89847261D01*
X165761833Y-90030217D01*
X165625826Y-90238393D01*
X165525936Y-90466118D01*
X165464892Y-90707175D01*
X165464890Y-90707187D01*
X165444357Y-90954994D01*
X165444357Y-90955005D01*
X165464890Y-91202812D01*
X165464892Y-91202824D01*
X165525936Y-91443881D01*
X165625826Y-91671606D01*
X165761833Y-91879782D01*
X165761836Y-91879785D01*
X165930256Y-92062738D01*
X166013008Y-92127147D01*
X166053821Y-92183857D01*
X166057496Y-92253630D01*
X166022864Y-92314313D01*
X166013014Y-92322848D01*
X165954400Y-92368469D01*
X165930257Y-92387261D01*
X165761833Y-92570217D01*
X165625826Y-92778393D01*
X165525936Y-93006118D01*
X165464892Y-93247175D01*
X165464890Y-93247187D01*
X165444357Y-93494994D01*
X165444357Y-93495005D01*
X165464890Y-93742812D01*
X165464892Y-93742824D01*
X165525936Y-93983881D01*
X165625826Y-94211606D01*
X165761833Y-94419782D01*
X165761836Y-94419785D01*
X165930256Y-94602738D01*
X166013008Y-94667147D01*
X166053821Y-94723857D01*
X166057496Y-94793630D01*
X166022864Y-94854313D01*
X166013014Y-94862848D01*
X165954400Y-94908469D01*
X165930257Y-94927261D01*
X165761833Y-95110217D01*
X165625826Y-95318393D01*
X165525936Y-95546118D01*
X165464892Y-95787175D01*
X165464890Y-95787187D01*
X165444357Y-96034994D01*
X165444357Y-96035005D01*
X165464890Y-96282812D01*
X165464892Y-96282824D01*
X165525936Y-96523881D01*
X165625826Y-96751606D01*
X165761833Y-96959782D01*
X165761836Y-96959785D01*
X165930256Y-97142738D01*
X166013008Y-97207147D01*
X166053821Y-97263857D01*
X166057496Y-97333630D01*
X166022864Y-97394313D01*
X166013014Y-97402848D01*
X165954400Y-97448469D01*
X165930257Y-97467261D01*
X165761833Y-97650217D01*
X165625826Y-97858393D01*
X165525936Y-98086118D01*
X165464892Y-98327175D01*
X165464890Y-98327187D01*
X165444357Y-98574994D01*
X165444357Y-98575005D01*
X165464890Y-98822812D01*
X165464892Y-98822824D01*
X165525936Y-99063881D01*
X165625826Y-99291606D01*
X165761833Y-99499782D01*
X165761836Y-99499785D01*
X165930256Y-99682738D01*
X166013008Y-99747147D01*
X166053821Y-99803857D01*
X166057496Y-99873630D01*
X166022864Y-99934313D01*
X166013014Y-99942848D01*
X165954400Y-99988469D01*
X165930257Y-100007261D01*
X165761833Y-100190217D01*
X165625826Y-100398393D01*
X165525936Y-100626118D01*
X165464892Y-100867175D01*
X165464890Y-100867187D01*
X165444357Y-101114994D01*
X165444357Y-101115005D01*
X165464890Y-101362812D01*
X165464892Y-101362824D01*
X165525936Y-101603881D01*
X165625826Y-101831606D01*
X165761833Y-102039782D01*
X165761836Y-102039785D01*
X165930256Y-102222738D01*
X166013008Y-102287147D01*
X166053821Y-102343857D01*
X166057496Y-102413630D01*
X166022864Y-102474313D01*
X166013014Y-102482848D01*
X165954400Y-102528469D01*
X165930257Y-102547261D01*
X165761833Y-102730217D01*
X165625826Y-102938393D01*
X165525936Y-103166118D01*
X165464892Y-103407175D01*
X165464890Y-103407187D01*
X165444357Y-103654994D01*
X165444357Y-103655005D01*
X165464890Y-103902812D01*
X165464892Y-103902824D01*
X165525936Y-104143881D01*
X165625826Y-104371606D01*
X165761833Y-104579782D01*
X165761836Y-104579785D01*
X165930256Y-104762738D01*
X166013008Y-104827147D01*
X166053821Y-104883857D01*
X166057496Y-104953630D01*
X166022864Y-105014313D01*
X166013014Y-105022848D01*
X165954400Y-105068469D01*
X165930257Y-105087261D01*
X165761833Y-105270217D01*
X165625826Y-105478393D01*
X165525936Y-105706118D01*
X165464892Y-105947175D01*
X165464890Y-105947187D01*
X165444357Y-106194994D01*
X165444357Y-106195005D01*
X165464890Y-106442812D01*
X165464892Y-106442824D01*
X165525936Y-106683881D01*
X165625826Y-106911606D01*
X165761833Y-107119782D01*
X165761836Y-107119785D01*
X165930256Y-107302738D01*
X166013008Y-107367147D01*
X166053821Y-107423857D01*
X166057496Y-107493630D01*
X166022864Y-107554313D01*
X166013014Y-107562848D01*
X165983809Y-107585580D01*
X165930257Y-107627261D01*
X165761833Y-107810217D01*
X165625826Y-108018393D01*
X165525936Y-108246118D01*
X165464892Y-108487175D01*
X165464890Y-108487187D01*
X165444357Y-108734994D01*
X165444357Y-108735005D01*
X165464890Y-108982812D01*
X165464892Y-108982824D01*
X165525936Y-109223881D01*
X165625826Y-109451606D01*
X165761833Y-109659782D01*
X165761836Y-109659785D01*
X165930256Y-109842738D01*
X166013008Y-109907147D01*
X166053821Y-109963857D01*
X166057496Y-110033630D01*
X166022864Y-110094313D01*
X166013014Y-110102848D01*
X165988540Y-110121898D01*
X165930257Y-110167261D01*
X165761833Y-110350217D01*
X165625826Y-110558393D01*
X165525936Y-110786118D01*
X165464892Y-111027175D01*
X165464890Y-111027187D01*
X165444357Y-111274994D01*
X165444357Y-111275005D01*
X165464890Y-111522812D01*
X165464892Y-111522824D01*
X165525936Y-111763881D01*
X165625826Y-111991606D01*
X165761833Y-112199782D01*
X165761836Y-112199785D01*
X165930256Y-112382738D01*
X166013008Y-112447147D01*
X166053821Y-112503857D01*
X166057496Y-112573630D01*
X166022864Y-112634313D01*
X166013014Y-112642848D01*
X165954400Y-112688469D01*
X165930257Y-112707261D01*
X165761833Y-112890217D01*
X165625826Y-113098393D01*
X165525936Y-113326118D01*
X165464892Y-113567175D01*
X165464890Y-113567187D01*
X165444357Y-113814994D01*
X165444357Y-113815005D01*
X165464890Y-114062812D01*
X165464892Y-114062824D01*
X165525936Y-114303881D01*
X165625826Y-114531606D01*
X165761833Y-114739782D01*
X165761836Y-114739785D01*
X165930256Y-114922738D01*
X166013008Y-114987147D01*
X166053821Y-115043857D01*
X166057496Y-115113630D01*
X166022864Y-115174313D01*
X166013014Y-115182848D01*
X165954400Y-115228469D01*
X165930257Y-115247261D01*
X165761833Y-115430217D01*
X165625826Y-115638393D01*
X165525936Y-115866118D01*
X165464892Y-116107175D01*
X165464890Y-116107187D01*
X165444357Y-116354994D01*
X165444357Y-116355005D01*
X165464890Y-116602812D01*
X165464892Y-116602824D01*
X165525936Y-116843881D01*
X165625826Y-117071606D01*
X165761833Y-117279782D01*
X165761836Y-117279785D01*
X165930256Y-117462738D01*
X166013008Y-117527147D01*
X166053821Y-117583857D01*
X166057496Y-117653630D01*
X166022864Y-117714313D01*
X166013014Y-117722848D01*
X165954400Y-117768469D01*
X165930257Y-117787261D01*
X165761833Y-117970217D01*
X165625826Y-118178393D01*
X165525936Y-118406118D01*
X165464892Y-118647175D01*
X165464890Y-118647187D01*
X165444357Y-118894994D01*
X165444357Y-118895005D01*
X165464890Y-119142812D01*
X165464892Y-119142824D01*
X165525936Y-119383881D01*
X165625826Y-119611606D01*
X165761833Y-119819782D01*
X165761836Y-119819785D01*
X165930256Y-120002738D01*
X166013008Y-120067147D01*
X166053821Y-120123857D01*
X166057496Y-120193630D01*
X166022864Y-120254313D01*
X166013014Y-120262848D01*
X165954400Y-120308469D01*
X165930257Y-120327261D01*
X165761833Y-120510217D01*
X165625826Y-120718393D01*
X165525936Y-120946118D01*
X165464892Y-121187175D01*
X165464890Y-121187187D01*
X165444357Y-121434994D01*
X165444357Y-121435005D01*
X165464890Y-121682812D01*
X165464892Y-121682824D01*
X165525936Y-121923881D01*
X165625826Y-122151606D01*
X165761833Y-122359782D01*
X165763535Y-122361631D01*
X165930256Y-122542738D01*
X165930259Y-122542740D01*
X165930262Y-122542743D01*
X166033743Y-122623286D01*
X166074556Y-122679996D01*
X166081343Y-122728823D01*
X166079941Y-122751389D01*
X166812424Y-123483871D01*
X166753147Y-123499755D01*
X166636853Y-123566898D01*
X166541898Y-123661853D01*
X166474755Y-123778147D01*
X166458871Y-123837424D01*
X165726564Y-123105116D01*
X165626267Y-123258632D01*
X165526412Y-123486282D01*
X165465387Y-123727261D01*
X165465385Y-123727270D01*
X165444859Y-123974994D01*
X165444859Y-123975005D01*
X165465385Y-124222729D01*
X165465387Y-124222738D01*
X165526412Y-124463717D01*
X165626267Y-124691367D01*
X165757182Y-124891748D01*
X165777369Y-124958637D01*
X165758189Y-125025823D01*
X165712806Y-125068398D01*
X165707667Y-125071204D01*
X165592455Y-125157452D01*
X165592452Y-125157455D01*
X165506206Y-125272664D01*
X165506202Y-125272671D01*
X165455908Y-125407517D01*
X165450322Y-125459483D01*
X165449501Y-125467123D01*
X165449500Y-125467135D01*
X165449500Y-127562870D01*
X165449501Y-127562876D01*
X165455908Y-127622483D01*
X165506202Y-127757328D01*
X165506206Y-127757335D01*
X165592452Y-127872544D01*
X165592455Y-127872547D01*
X165707664Y-127958793D01*
X165707671Y-127958797D01*
X165842517Y-128009091D01*
X165842516Y-128009091D01*
X165849444Y-128009835D01*
X165902127Y-128015500D01*
X167997872Y-128015499D01*
X168057483Y-128009091D01*
X168192331Y-127958796D01*
X168307546Y-127872546D01*
X168393796Y-127757331D01*
X168444091Y-127622483D01*
X168450500Y-127562873D01*
X168450499Y-125467128D01*
X168444091Y-125407517D01*
X168443995Y-125407260D01*
X168393797Y-125272671D01*
X168393793Y-125272664D01*
X168307547Y-125157455D01*
X168307544Y-125157452D01*
X168192333Y-125071204D01*
X168187197Y-125068400D01*
X168137793Y-125018994D01*
X168122942Y-124950721D01*
X168142817Y-124891747D01*
X168273733Y-124691364D01*
X168373587Y-124463717D01*
X168434612Y-124222738D01*
X168434614Y-124222729D01*
X168455141Y-123975005D01*
X168455141Y-123974994D01*
X168434614Y-123727270D01*
X168434612Y-123727261D01*
X168373587Y-123486282D01*
X168273731Y-123258630D01*
X168173434Y-123105116D01*
X167441127Y-123837423D01*
X167425245Y-123778147D01*
X167358102Y-123661853D01*
X167263147Y-123566898D01*
X167146853Y-123499755D01*
X167087575Y-123483872D01*
X167820056Y-122751390D01*
X167818655Y-122728825D01*
X167834147Y-122660694D01*
X167866250Y-122623290D01*
X167969744Y-122542738D01*
X168138164Y-122359785D01*
X168176897Y-122300500D01*
X168182660Y-122291679D01*
X168235806Y-122246322D01*
X168286469Y-122235500D01*
X175409183Y-122235500D01*
X175456633Y-122244938D01*
X175516503Y-122269737D01*
X175671153Y-122300499D01*
X175671156Y-122300500D01*
X175671158Y-122300500D01*
X178328844Y-122300500D01*
X178328845Y-122300499D01*
X178483497Y-122269737D01*
X178629179Y-122209394D01*
X178760289Y-122121789D01*
X188371789Y-112510289D01*
X188459394Y-112379179D01*
X188519737Y-112233497D01*
X188550500Y-112078842D01*
X188550500Y-111921157D01*
X188550500Y-82148658D01*
X188526343Y-82027211D01*
X188526343Y-82027208D01*
X188519739Y-81994010D01*
X188519738Y-81994003D01*
X188459394Y-81848321D01*
X188459392Y-81848318D01*
X188459390Y-81848314D01*
X188371789Y-81717211D01*
X188371786Y-81717207D01*
X176872404Y-70217826D01*
X176838919Y-70156503D01*
X176836557Y-70119342D01*
X176845468Y-70017500D01*
X176825635Y-69790808D01*
X176766739Y-69571004D01*
X176670568Y-69364766D01*
X176540047Y-69178361D01*
X176540045Y-69178358D01*
X176379141Y-69017454D01*
X176192734Y-68886932D01*
X176192732Y-68886931D01*
X175986497Y-68790761D01*
X175986488Y-68790758D01*
X175766697Y-68731866D01*
X175766693Y-68731865D01*
X175766692Y-68731865D01*
X175766691Y-68731864D01*
X175766686Y-68731864D01*
X175540002Y-68712032D01*
X175539998Y-68712032D01*
X175313313Y-68731864D01*
X175313302Y-68731866D01*
X175093511Y-68790758D01*
X175093502Y-68790761D01*
X174887267Y-68886931D01*
X174887265Y-68886932D01*
X174700858Y-69017454D01*
X174539954Y-69178358D01*
X174409432Y-69364765D01*
X174409431Y-69364767D01*
X174313261Y-69571002D01*
X174313258Y-69571011D01*
X174254366Y-69790802D01*
X174254364Y-69790813D01*
X174234532Y-70017498D01*
X174234532Y-70017501D01*
X174254364Y-70244186D01*
X174254366Y-70244197D01*
X174313258Y-70463988D01*
X174313261Y-70463997D01*
X174409431Y-70670232D01*
X174409432Y-70670234D01*
X174539954Y-70856641D01*
X174700858Y-71017545D01*
X174700861Y-71017547D01*
X174887266Y-71148068D01*
X175093504Y-71244239D01*
X175313308Y-71303135D01*
X175475230Y-71317301D01*
X175539998Y-71322968D01*
X175539999Y-71322968D01*
X175539999Y-71322967D01*
X175540000Y-71322968D01*
X175641839Y-71314057D01*
X175710336Y-71327823D01*
X175740326Y-71349904D01*
X186913181Y-82522759D01*
X186946666Y-82584082D01*
X186949500Y-82610440D01*
X186949500Y-111617060D01*
X186929815Y-111684099D01*
X186913181Y-111704741D01*
X177954741Y-120663181D01*
X177893418Y-120696666D01*
X177867060Y-120699500D01*
X176025817Y-120699500D01*
X175978366Y-120690061D01*
X175918497Y-120665263D01*
X175918489Y-120665261D01*
X175763845Y-120634500D01*
X175763842Y-120634500D01*
X168286469Y-120634500D01*
X168219430Y-120614815D01*
X168182660Y-120578321D01*
X168138166Y-120510217D01*
X168031625Y-120394483D01*
X167969744Y-120327262D01*
X167886991Y-120262852D01*
X167846179Y-120206143D01*
X167842504Y-120136370D01*
X167877136Y-120075687D01*
X167886985Y-120067151D01*
X167969744Y-120002738D01*
X168138164Y-119819785D01*
X168163089Y-119781635D01*
X168182660Y-119751679D01*
X168235806Y-119706322D01*
X168286469Y-119695500D01*
X173933844Y-119695500D01*
X173933845Y-119695499D01*
X174088497Y-119664737D01*
X174234179Y-119604394D01*
X174365289Y-119516789D01*
X181371789Y-112510289D01*
X181459394Y-112379179D01*
X181519738Y-112233497D01*
X181550500Y-112078842D01*
X181550500Y-111921157D01*
X181550500Y-82268658D01*
X181519738Y-82114003D01*
X181459394Y-81968321D01*
X181459392Y-81968318D01*
X181459390Y-81968314D01*
X181371789Y-81837211D01*
X181371786Y-81837207D01*
X169872404Y-70337826D01*
X169838919Y-70276503D01*
X169836557Y-70239342D01*
X169845468Y-70137500D01*
X169825635Y-69910808D01*
X169766739Y-69691004D01*
X169670568Y-69484766D01*
X169540047Y-69298361D01*
X169540045Y-69298358D01*
X169379141Y-69137454D01*
X169192734Y-69006932D01*
X169192732Y-69006931D01*
X168986497Y-68910761D01*
X168986488Y-68910758D01*
X168766697Y-68851866D01*
X168766693Y-68851865D01*
X168766692Y-68851865D01*
X168766691Y-68851864D01*
X168766686Y-68851864D01*
X168540002Y-68832032D01*
X168539998Y-68832032D01*
X168313313Y-68851864D01*
X168313302Y-68851866D01*
X168093511Y-68910758D01*
X168093502Y-68910761D01*
X167887267Y-69006931D01*
X167887265Y-69006932D01*
X167700858Y-69137454D01*
X167539954Y-69298358D01*
X167409432Y-69484765D01*
X167409431Y-69484767D01*
X167313261Y-69691002D01*
X167313258Y-69691011D01*
X167254366Y-69910802D01*
X167254364Y-69910813D01*
X167234532Y-70137498D01*
X167234532Y-70137501D01*
X167254364Y-70364186D01*
X167254366Y-70364197D01*
X167313258Y-70583988D01*
X167313261Y-70583997D01*
X167409431Y-70790232D01*
X167409432Y-70790234D01*
X167539954Y-70976641D01*
X167700858Y-71137545D01*
X167700861Y-71137547D01*
X167887266Y-71268068D01*
X168093504Y-71364239D01*
X168313308Y-71423135D01*
X168475230Y-71437301D01*
X168539998Y-71442968D01*
X168539999Y-71442968D01*
X168539999Y-71442967D01*
X168540000Y-71442968D01*
X168641839Y-71434057D01*
X168710336Y-71447823D01*
X168740326Y-71469904D01*
X179913181Y-82642759D01*
X179946666Y-82704082D01*
X179949500Y-82730440D01*
X179949500Y-111617060D01*
X179929815Y-111684099D01*
X179913181Y-111704741D01*
X173559741Y-118058181D01*
X173498418Y-118091666D01*
X173472060Y-118094500D01*
X168286469Y-118094500D01*
X168219430Y-118074815D01*
X168182660Y-118038321D01*
X168138166Y-117970217D01*
X168031625Y-117854483D01*
X167969744Y-117787262D01*
X167886991Y-117722852D01*
X167846179Y-117666143D01*
X167842504Y-117596370D01*
X167877136Y-117535687D01*
X167886985Y-117527151D01*
X167969744Y-117462738D01*
X168138164Y-117279785D01*
X168182660Y-117211679D01*
X168235806Y-117166322D01*
X168286469Y-117155500D01*
X168973844Y-117155500D01*
X168973845Y-117155499D01*
X169128497Y-117124737D01*
X169274179Y-117064394D01*
X169405289Y-116976789D01*
X173871789Y-112510289D01*
X173959394Y-112379179D01*
X174019737Y-112233497D01*
X174050500Y-112078842D01*
X174050500Y-111921158D01*
X174050500Y-111921157D01*
X174050500Y-82458658D01*
X174044072Y-82426343D01*
X174019738Y-82304003D01*
X173959394Y-82158321D01*
X173959392Y-82158318D01*
X173959390Y-82158314D01*
X173871789Y-82027211D01*
X173871786Y-82027207D01*
X162372404Y-70527826D01*
X162338919Y-70466503D01*
X162336557Y-70429342D01*
X162345468Y-70327500D01*
X162325635Y-70100808D01*
X162266739Y-69881004D01*
X162170568Y-69674766D01*
X162040047Y-69488361D01*
X162040045Y-69488358D01*
X161879141Y-69327454D01*
X161692734Y-69196932D01*
X161692732Y-69196931D01*
X161486497Y-69100761D01*
X161486488Y-69100758D01*
X161266697Y-69041866D01*
X161266693Y-69041865D01*
X161266692Y-69041865D01*
X161266691Y-69041864D01*
X161266686Y-69041864D01*
X161040002Y-69022032D01*
X161039998Y-69022032D01*
X160813313Y-69041864D01*
X160813302Y-69041866D01*
X160593511Y-69100758D01*
X160593502Y-69100761D01*
X160387267Y-69196931D01*
X160387265Y-69196932D01*
X160200858Y-69327454D01*
X160039954Y-69488358D01*
X159909432Y-69674765D01*
X159909431Y-69674767D01*
X159813261Y-69881002D01*
X159813258Y-69881011D01*
X159754366Y-70100802D01*
X159754364Y-70100813D01*
X159734532Y-70327498D01*
X138500500Y-70327498D01*
X138500500Y-67876456D01*
X138462052Y-67683170D01*
X138462051Y-67683169D01*
X138462051Y-67683165D01*
X138417207Y-67574901D01*
X138386635Y-67501092D01*
X138386628Y-67501079D01*
X138277139Y-67337218D01*
X138277136Y-67337214D01*
X138137785Y-67197863D01*
X138137781Y-67197860D01*
X137973920Y-67088371D01*
X137973907Y-67088364D01*
X137791839Y-67012950D01*
X137791829Y-67012947D01*
X137598543Y-66974500D01*
X137598541Y-66974500D01*
X110925758Y-66974500D01*
X110858719Y-66954815D01*
X110838077Y-66938181D01*
X110836402Y-66936506D01*
X110836395Y-66936501D01*
X110642834Y-66800967D01*
X110642830Y-66800965D01*
X110571727Y-66767809D01*
X110428663Y-66701097D01*
X110428659Y-66701096D01*
X110428655Y-66701094D01*
X110200413Y-66639938D01*
X110200403Y-66639936D01*
X109965001Y-66619341D01*
X109964999Y-66619341D01*
X109729596Y-66639936D01*
X109729586Y-66639938D01*
X109501344Y-66701094D01*
X109501335Y-66701098D01*
X109287171Y-66800964D01*
X109287169Y-66800965D01*
X109093597Y-66936505D01*
X108926505Y-67103597D01*
X108796575Y-67289158D01*
X108741998Y-67332783D01*
X108672500Y-67339977D01*
X108610145Y-67308454D01*
X108593425Y-67289158D01*
X108463494Y-67103597D01*
X108461819Y-67101922D01*
X108461315Y-67101000D01*
X108460014Y-67099449D01*
X108460325Y-67099187D01*
X108428334Y-67040599D01*
X108425500Y-67014241D01*
X108425500Y-64465782D01*
X108445185Y-64398743D01*
X108461819Y-64378101D01*
X109803101Y-63036819D01*
X109864424Y-63003334D01*
X109890782Y-63000500D01*
X114633023Y-63000500D01*
X114700062Y-63020185D01*
X114745817Y-63072989D01*
X114753266Y-63100134D01*
X114754124Y-63099932D01*
X114755907Y-63107479D01*
X114806202Y-63242328D01*
X114806206Y-63242335D01*
X114892452Y-63357544D01*
X114892455Y-63357547D01*
X115007664Y-63443793D01*
X115007671Y-63443797D01*
X115142517Y-63494091D01*
X115142516Y-63494091D01*
X115149444Y-63494835D01*
X115202127Y-63500500D01*
X117297872Y-63500499D01*
X117357483Y-63494091D01*
X117492331Y-63443796D01*
X117607546Y-63357546D01*
X117693796Y-63242331D01*
X117744091Y-63107483D01*
X117744091Y-63107481D01*
X117745874Y-63099938D01*
X117748146Y-63100474D01*
X117770429Y-63046688D01*
X117827823Y-63006843D01*
X117866976Y-63000500D01*
X129633023Y-63000500D01*
X129700062Y-63020185D01*
X129745817Y-63072989D01*
X129753266Y-63100134D01*
X129754124Y-63099932D01*
X129755907Y-63107479D01*
X129806202Y-63242328D01*
X129806206Y-63242335D01*
X129892452Y-63357544D01*
X129892455Y-63357547D01*
X130007664Y-63443793D01*
X130007671Y-63443797D01*
X130142517Y-63494091D01*
X130142516Y-63494091D01*
X130149444Y-63494835D01*
X130202127Y-63500500D01*
X132297872Y-63500499D01*
X132357483Y-63494091D01*
X132492331Y-63443796D01*
X132607546Y-63357546D01*
X132693796Y-63242331D01*
X132744091Y-63107483D01*
X132750500Y-63047873D01*
X132750500Y-62707498D01*
X159734532Y-62707498D01*
X159734532Y-62707501D01*
X159754364Y-62934186D01*
X159754366Y-62934197D01*
X159813258Y-63153988D01*
X159813261Y-63153997D01*
X159909431Y-63360232D01*
X159909432Y-63360234D01*
X160039954Y-63546641D01*
X160200858Y-63707545D01*
X160201746Y-63708167D01*
X160387266Y-63838068D01*
X160593504Y-63934239D01*
X160813308Y-63993135D01*
X160975230Y-64007301D01*
X161039998Y-64012968D01*
X161040000Y-64012968D01*
X161040002Y-64012968D01*
X161096673Y-64008009D01*
X161266692Y-63993135D01*
X161486496Y-63934239D01*
X161692734Y-63838068D01*
X161879139Y-63707547D01*
X162040047Y-63546639D01*
X162170568Y-63360234D01*
X162266739Y-63153996D01*
X162325635Y-62934192D01*
X162345468Y-62707500D01*
X162325635Y-62480808D01*
X162266739Y-62261004D01*
X162170568Y-62054766D01*
X162040047Y-61868361D01*
X162040045Y-61868358D01*
X161876819Y-61705132D01*
X161843334Y-61643809D01*
X161840500Y-61617451D01*
X161840500Y-59582494D01*
X162495202Y-59582494D01*
X162495202Y-59582505D01*
X162514361Y-59813718D01*
X162571317Y-60038635D01*
X162664515Y-60251106D01*
X162748812Y-60380133D01*
X163457861Y-59671084D01*
X163480667Y-59756194D01*
X163539910Y-59858806D01*
X163623694Y-59942590D01*
X163726306Y-60001833D01*
X163811414Y-60024638D01*
X163101201Y-60734851D01*
X163131649Y-60758550D01*
X163335697Y-60868976D01*
X163335706Y-60868979D01*
X163555139Y-60944311D01*
X163783993Y-60982500D01*
X164016007Y-60982500D01*
X164244860Y-60944311D01*
X164464293Y-60868979D01*
X164464301Y-60868976D01*
X164668355Y-60758547D01*
X164698797Y-60734851D01*
X164698798Y-60734850D01*
X163988585Y-60024637D01*
X164073694Y-60001833D01*
X164176306Y-59942590D01*
X164260090Y-59858806D01*
X164319333Y-59756194D01*
X164342138Y-59671084D01*
X165003181Y-60332127D01*
X165036666Y-60393450D01*
X165039500Y-60419807D01*
X165039500Y-60530369D01*
X165039501Y-60530376D01*
X165045908Y-60589983D01*
X165096202Y-60724828D01*
X165096206Y-60724835D01*
X165182452Y-60840044D01*
X165182455Y-60840047D01*
X165297664Y-60926293D01*
X165297671Y-60926297D01*
X165432517Y-60976591D01*
X165432516Y-60976591D01*
X165439444Y-60977335D01*
X165492127Y-60983000D01*
X167387872Y-60982999D01*
X167447483Y-60976591D01*
X167513072Y-60952128D01*
X167572167Y-60930087D01*
X167641859Y-60925103D01*
X167703182Y-60958588D01*
X167736666Y-61019911D01*
X167739500Y-61046269D01*
X167739500Y-61427451D01*
X167719815Y-61494490D01*
X167703181Y-61515132D01*
X167539954Y-61678358D01*
X167409432Y-61864765D01*
X167409431Y-61864767D01*
X167313261Y-62071002D01*
X167313258Y-62071011D01*
X167254366Y-62290802D01*
X167254364Y-62290813D01*
X167234532Y-62517498D01*
X167234532Y-62517501D01*
X167254364Y-62744186D01*
X167254366Y-62744197D01*
X167313258Y-62963988D01*
X167313261Y-62963997D01*
X167409431Y-63170232D01*
X167409432Y-63170234D01*
X167539954Y-63356641D01*
X167700858Y-63517545D01*
X167700861Y-63517547D01*
X167887266Y-63648068D01*
X168093504Y-63744239D01*
X168313308Y-63803135D01*
X168475230Y-63817301D01*
X168539998Y-63822968D01*
X168540000Y-63822968D01*
X168540002Y-63822968D01*
X168596673Y-63818009D01*
X168766692Y-63803135D01*
X168986496Y-63744239D01*
X169192734Y-63648068D01*
X169379139Y-63517547D01*
X169540047Y-63356639D01*
X169670568Y-63170234D01*
X169766739Y-62963996D01*
X169825635Y-62744192D01*
X169845468Y-62517500D01*
X169825635Y-62290808D01*
X169766739Y-62071004D01*
X169670568Y-61864766D01*
X169540047Y-61678361D01*
X169540045Y-61678358D01*
X169376819Y-61515132D01*
X169343334Y-61453809D01*
X169340500Y-61427451D01*
X169340500Y-59582494D01*
X169595202Y-59582494D01*
X169595202Y-59582505D01*
X169614361Y-59813718D01*
X169671317Y-60038635D01*
X169764515Y-60251106D01*
X169848812Y-60380133D01*
X170557861Y-59671084D01*
X170580667Y-59756194D01*
X170639910Y-59858806D01*
X170723694Y-59942590D01*
X170826306Y-60001833D01*
X170911414Y-60024638D01*
X170201201Y-60734851D01*
X170231649Y-60758550D01*
X170435697Y-60868976D01*
X170435706Y-60868979D01*
X170655139Y-60944311D01*
X170883993Y-60982500D01*
X171116007Y-60982500D01*
X171344860Y-60944311D01*
X171564293Y-60868979D01*
X171564301Y-60868976D01*
X171768355Y-60758547D01*
X171798797Y-60734851D01*
X171798798Y-60734850D01*
X171088585Y-60024637D01*
X171173694Y-60001833D01*
X171276306Y-59942590D01*
X171360090Y-59858806D01*
X171419333Y-59756194D01*
X171442138Y-59671084D01*
X172103181Y-60332127D01*
X172136666Y-60393450D01*
X172139500Y-60419807D01*
X172139500Y-60530369D01*
X172139501Y-60530376D01*
X172145908Y-60589983D01*
X172196202Y-60724828D01*
X172196206Y-60724835D01*
X172282452Y-60840044D01*
X172282455Y-60840047D01*
X172397664Y-60926293D01*
X172397671Y-60926297D01*
X172532517Y-60976591D01*
X172532516Y-60976591D01*
X172539444Y-60977335D01*
X172592127Y-60983000D01*
X174487872Y-60982999D01*
X174547483Y-60976591D01*
X174572165Y-60967384D01*
X174641856Y-60962399D01*
X174703180Y-60995884D01*
X174736666Y-61057206D01*
X174739500Y-61083566D01*
X174739500Y-61307451D01*
X174719815Y-61374490D01*
X174703181Y-61395132D01*
X174539954Y-61558358D01*
X174409432Y-61744765D01*
X174409431Y-61744767D01*
X174313261Y-61951002D01*
X174313258Y-61951011D01*
X174254366Y-62170802D01*
X174254364Y-62170813D01*
X174234532Y-62397498D01*
X174234532Y-62397501D01*
X174254364Y-62624186D01*
X174254366Y-62624197D01*
X174313258Y-62843988D01*
X174313261Y-62843997D01*
X174409431Y-63050232D01*
X174409432Y-63050234D01*
X174539954Y-63236641D01*
X174700858Y-63397545D01*
X174700861Y-63397547D01*
X174887266Y-63528068D01*
X175093504Y-63624239D01*
X175313308Y-63683135D01*
X175475230Y-63697301D01*
X175539998Y-63702968D01*
X175540000Y-63702968D01*
X175540002Y-63702968D01*
X175596673Y-63698009D01*
X175766692Y-63683135D01*
X175986496Y-63624239D01*
X176192734Y-63528068D01*
X176379139Y-63397547D01*
X176540047Y-63236639D01*
X176670568Y-63050234D01*
X176766739Y-62843996D01*
X176825635Y-62624192D01*
X176845468Y-62397500D01*
X176825635Y-62170808D01*
X176766739Y-61951004D01*
X176670568Y-61744766D01*
X176540047Y-61558361D01*
X176540045Y-61558358D01*
X176376819Y-61395132D01*
X176343334Y-61333809D01*
X176340500Y-61307451D01*
X176340500Y-59582494D01*
X176595202Y-59582494D01*
X176595202Y-59582505D01*
X176614361Y-59813718D01*
X176671317Y-60038635D01*
X176764515Y-60251106D01*
X176848812Y-60380133D01*
X177557861Y-59671084D01*
X177580667Y-59756194D01*
X177639910Y-59858806D01*
X177723694Y-59942590D01*
X177826306Y-60001833D01*
X177911414Y-60024638D01*
X177201201Y-60734851D01*
X177231649Y-60758550D01*
X177435697Y-60868976D01*
X177435706Y-60868979D01*
X177655139Y-60944311D01*
X177883993Y-60982500D01*
X178116007Y-60982500D01*
X178344860Y-60944311D01*
X178564293Y-60868979D01*
X178564301Y-60868976D01*
X178768355Y-60758547D01*
X178798797Y-60734851D01*
X178798798Y-60734850D01*
X178088585Y-60024637D01*
X178173694Y-60001833D01*
X178276306Y-59942590D01*
X178360090Y-59858806D01*
X178419333Y-59756194D01*
X178442138Y-59671084D01*
X179103181Y-60332127D01*
X179136666Y-60393450D01*
X179139500Y-60419807D01*
X179139500Y-60530369D01*
X179139501Y-60530376D01*
X179145908Y-60589983D01*
X179196202Y-60724828D01*
X179196206Y-60724835D01*
X179282452Y-60840044D01*
X179282455Y-60840047D01*
X179397664Y-60926293D01*
X179397671Y-60926297D01*
X179532517Y-60976591D01*
X179532516Y-60976591D01*
X179539444Y-60977335D01*
X179592127Y-60983000D01*
X181487872Y-60982999D01*
X181547483Y-60976591D01*
X181682331Y-60926296D01*
X181797546Y-60840046D01*
X181883796Y-60724831D01*
X181934091Y-60589983D01*
X181940500Y-60530373D01*
X181940499Y-58634628D01*
X181934091Y-58575017D01*
X181906111Y-58500000D01*
X181883797Y-58440171D01*
X181883793Y-58440164D01*
X181797547Y-58324955D01*
X181797544Y-58324952D01*
X181682335Y-58238706D01*
X181682328Y-58238702D01*
X181547482Y-58188408D01*
X181547483Y-58188408D01*
X181487883Y-58182001D01*
X181487881Y-58182000D01*
X181487873Y-58182000D01*
X181487864Y-58182000D01*
X179592129Y-58182000D01*
X179592123Y-58182001D01*
X179532516Y-58188408D01*
X179397671Y-58238702D01*
X179397664Y-58238706D01*
X179282455Y-58324952D01*
X179282452Y-58324955D01*
X179196206Y-58440164D01*
X179196202Y-58440171D01*
X179145908Y-58575017D01*
X179139501Y-58634616D01*
X179139501Y-58634623D01*
X179139500Y-58634635D01*
X179139500Y-58745191D01*
X179119815Y-58812230D01*
X179103181Y-58832872D01*
X178442138Y-59493914D01*
X178419333Y-59408806D01*
X178360090Y-59306194D01*
X178276306Y-59222410D01*
X178173694Y-59163167D01*
X178088584Y-59140361D01*
X178798797Y-58430147D01*
X178798797Y-58430145D01*
X178768360Y-58406455D01*
X178768354Y-58406451D01*
X178564302Y-58296023D01*
X178564293Y-58296020D01*
X178344860Y-58220688D01*
X178116007Y-58182500D01*
X177883993Y-58182500D01*
X177655139Y-58220688D01*
X177435706Y-58296020D01*
X177435697Y-58296023D01*
X177231650Y-58406449D01*
X177201200Y-58430147D01*
X177911415Y-59140361D01*
X177826306Y-59163167D01*
X177723694Y-59222410D01*
X177639910Y-59306194D01*
X177580667Y-59408806D01*
X177557861Y-59493915D01*
X176848811Y-58784865D01*
X176764516Y-58913890D01*
X176671317Y-59126364D01*
X176614361Y-59351281D01*
X176595202Y-59582494D01*
X176340500Y-59582494D01*
X176340500Y-57563655D01*
X176340499Y-57563653D01*
X176328565Y-57503658D01*
X176309737Y-57409003D01*
X176286769Y-57353553D01*
X176249397Y-57263327D01*
X176249390Y-57263314D01*
X176161789Y-57132211D01*
X176161786Y-57132207D01*
X176050292Y-57020713D01*
X176050288Y-57020710D01*
X175919185Y-56933109D01*
X175919172Y-56933102D01*
X175773501Y-56872764D01*
X175773489Y-56872761D01*
X175618845Y-56842000D01*
X175618842Y-56842000D01*
X175618746Y-56842000D01*
X175618649Y-56841980D01*
X175612782Y-56841403D01*
X175612838Y-56840824D01*
X175571294Y-56832561D01*
X175523498Y-56812763D01*
X175523488Y-56812760D01*
X175368845Y-56782000D01*
X175368842Y-56782000D01*
X175211158Y-56782000D01*
X175211155Y-56782000D01*
X175056510Y-56812761D01*
X175056498Y-56812764D01*
X174910827Y-56873102D01*
X174910814Y-56873109D01*
X174779711Y-56960710D01*
X174779707Y-56960713D01*
X174668213Y-57072207D01*
X174668210Y-57072211D01*
X174580609Y-57203314D01*
X174580602Y-57203327D01*
X174520264Y-57348998D01*
X174520261Y-57349010D01*
X174489500Y-57503653D01*
X174489500Y-57661346D01*
X174520261Y-57815989D01*
X174520264Y-57816001D01*
X174580602Y-57961672D01*
X174580609Y-57961685D01*
X174599106Y-57989367D01*
X174619984Y-58056044D01*
X174601500Y-58123425D01*
X174549521Y-58170115D01*
X174491194Y-58181715D01*
X174491194Y-58182000D01*
X174489764Y-58182000D01*
X174489362Y-58182080D01*
X174487875Y-58182000D01*
X174487873Y-58182000D01*
X174487870Y-58182000D01*
X172592129Y-58182000D01*
X172592123Y-58182001D01*
X172532516Y-58188408D01*
X172397671Y-58238702D01*
X172397664Y-58238706D01*
X172282455Y-58324952D01*
X172282452Y-58324955D01*
X172196206Y-58440164D01*
X172196202Y-58440171D01*
X172145908Y-58575017D01*
X172139501Y-58634616D01*
X172139501Y-58634623D01*
X172139500Y-58634635D01*
X172139500Y-58745191D01*
X172119815Y-58812230D01*
X172103181Y-58832872D01*
X171442138Y-59493914D01*
X171419333Y-59408806D01*
X171360090Y-59306194D01*
X171276306Y-59222410D01*
X171173694Y-59163167D01*
X171088584Y-59140361D01*
X171798797Y-58430147D01*
X171798797Y-58430145D01*
X171768360Y-58406455D01*
X171768354Y-58406451D01*
X171564302Y-58296023D01*
X171564293Y-58296020D01*
X171344860Y-58220688D01*
X171116007Y-58182500D01*
X170883993Y-58182500D01*
X170655139Y-58220688D01*
X170435706Y-58296020D01*
X170435697Y-58296023D01*
X170231650Y-58406449D01*
X170201200Y-58430147D01*
X170911415Y-59140361D01*
X170826306Y-59163167D01*
X170723694Y-59222410D01*
X170639910Y-59306194D01*
X170580667Y-59408806D01*
X170557861Y-59493915D01*
X169848811Y-58784865D01*
X169764516Y-58913890D01*
X169671317Y-59126364D01*
X169614361Y-59351281D01*
X169595202Y-59582494D01*
X169340500Y-59582494D01*
X169340500Y-57563655D01*
X169340499Y-57563653D01*
X169328565Y-57503658D01*
X169309737Y-57409003D01*
X169286769Y-57353553D01*
X169249397Y-57263327D01*
X169249390Y-57263314D01*
X169161789Y-57132211D01*
X169161786Y-57132207D01*
X169050292Y-57020713D01*
X169050288Y-57020710D01*
X168919185Y-56933109D01*
X168919172Y-56933102D01*
X168773501Y-56872764D01*
X168773489Y-56872761D01*
X168618845Y-56842000D01*
X168618842Y-56842000D01*
X168618746Y-56842000D01*
X168618649Y-56841980D01*
X168612782Y-56841403D01*
X168612838Y-56840824D01*
X168571294Y-56832561D01*
X168523498Y-56812763D01*
X168523488Y-56812760D01*
X168368845Y-56782000D01*
X168368842Y-56782000D01*
X168211158Y-56782000D01*
X168211155Y-56782000D01*
X168056510Y-56812761D01*
X168056498Y-56812764D01*
X167910827Y-56873102D01*
X167910814Y-56873109D01*
X167779711Y-56960710D01*
X167779707Y-56960713D01*
X167668213Y-57072207D01*
X167668210Y-57072211D01*
X167580609Y-57203314D01*
X167580602Y-57203327D01*
X167520264Y-57348998D01*
X167520261Y-57349010D01*
X167489500Y-57503653D01*
X167489500Y-57661346D01*
X167520261Y-57815989D01*
X167520264Y-57816001D01*
X167580602Y-57961672D01*
X167580612Y-57961690D01*
X167613259Y-58010550D01*
X167634137Y-58077227D01*
X167615652Y-58144607D01*
X167563673Y-58191297D01*
X167494703Y-58202473D01*
X167466826Y-58195623D01*
X167447481Y-58188408D01*
X167447483Y-58188408D01*
X167387883Y-58182001D01*
X167387881Y-58182000D01*
X167387873Y-58182000D01*
X167387864Y-58182000D01*
X165492129Y-58182000D01*
X165492123Y-58182001D01*
X165432516Y-58188408D01*
X165297671Y-58238702D01*
X165297664Y-58238706D01*
X165182455Y-58324952D01*
X165182452Y-58324955D01*
X165096206Y-58440164D01*
X165096202Y-58440171D01*
X165045908Y-58575017D01*
X165039501Y-58634616D01*
X165039501Y-58634623D01*
X165039500Y-58634635D01*
X165039500Y-58745191D01*
X165019815Y-58812230D01*
X165003181Y-58832872D01*
X164342138Y-59493914D01*
X164319333Y-59408806D01*
X164260090Y-59306194D01*
X164176306Y-59222410D01*
X164073694Y-59163167D01*
X163988584Y-59140361D01*
X164698797Y-58430147D01*
X164698797Y-58430145D01*
X164668360Y-58406455D01*
X164668354Y-58406451D01*
X164464302Y-58296023D01*
X164464293Y-58296020D01*
X164244860Y-58220688D01*
X164016007Y-58182500D01*
X163783993Y-58182500D01*
X163555139Y-58220688D01*
X163335706Y-58296020D01*
X163335697Y-58296023D01*
X163131650Y-58406449D01*
X163101200Y-58430147D01*
X163811415Y-59140361D01*
X163726306Y-59163167D01*
X163623694Y-59222410D01*
X163539910Y-59306194D01*
X163480667Y-59408806D01*
X163457861Y-59493915D01*
X162748811Y-58784865D01*
X162664516Y-58913890D01*
X162571317Y-59126364D01*
X162514361Y-59351281D01*
X162495202Y-59582494D01*
X161840500Y-59582494D01*
X161840500Y-58087435D01*
X161860185Y-58020396D01*
X161861366Y-58018590D01*
X161899394Y-57961679D01*
X161959737Y-57815997D01*
X161990500Y-57661342D01*
X161990500Y-57503658D01*
X161990500Y-57503655D01*
X161990499Y-57503653D01*
X161971671Y-57408998D01*
X161959737Y-57349003D01*
X161959735Y-57348998D01*
X161899397Y-57203327D01*
X161899390Y-57203314D01*
X161811789Y-57072211D01*
X161811786Y-57072207D01*
X161700292Y-56960713D01*
X161700288Y-56960710D01*
X161569185Y-56873109D01*
X161569172Y-56873102D01*
X161423501Y-56812764D01*
X161423491Y-56812761D01*
X161332681Y-56794698D01*
X161309421Y-56787642D01*
X161273502Y-56772764D01*
X161273494Y-56772761D01*
X161118845Y-56742000D01*
X161118842Y-56742000D01*
X160961158Y-56742000D01*
X160961155Y-56742000D01*
X160806510Y-56772761D01*
X160806498Y-56772764D01*
X160660827Y-56833102D01*
X160660814Y-56833109D01*
X160529711Y-56920710D01*
X160529707Y-56920713D01*
X160418213Y-57032207D01*
X160418210Y-57032211D01*
X160330609Y-57163314D01*
X160330602Y-57163327D01*
X160270264Y-57308998D01*
X160270261Y-57309010D01*
X160239500Y-57463653D01*
X160239500Y-61617451D01*
X160219815Y-61684490D01*
X160203181Y-61705132D01*
X160039954Y-61868358D01*
X159909432Y-62054765D01*
X159909431Y-62054767D01*
X159813261Y-62261002D01*
X159813258Y-62261011D01*
X159754366Y-62480802D01*
X159754364Y-62480813D01*
X159734532Y-62707498D01*
X132750500Y-62707498D01*
X132750499Y-60952128D01*
X132744091Y-60892517D01*
X132694123Y-60758547D01*
X132693797Y-60757671D01*
X132693793Y-60757664D01*
X132607547Y-60642455D01*
X132607544Y-60642452D01*
X132492335Y-60556206D01*
X132492328Y-60556202D01*
X132357482Y-60505908D01*
X132357483Y-60505908D01*
X132297883Y-60499501D01*
X132297881Y-60499500D01*
X132297873Y-60499500D01*
X132297864Y-60499500D01*
X130202129Y-60499500D01*
X130202123Y-60499501D01*
X130142516Y-60505908D01*
X130007671Y-60556202D01*
X130007664Y-60556206D01*
X129892455Y-60642452D01*
X129892452Y-60642455D01*
X129806206Y-60757664D01*
X129806202Y-60757671D01*
X129755908Y-60892517D01*
X129754126Y-60900062D01*
X129751853Y-60899525D01*
X129729571Y-60953312D01*
X129672177Y-60993157D01*
X129633024Y-60999500D01*
X117866977Y-60999500D01*
X117799938Y-60979815D01*
X117754183Y-60927011D01*
X117746733Y-60899865D01*
X117745876Y-60900068D01*
X117744092Y-60892520D01*
X117740727Y-60883499D01*
X117694125Y-60758550D01*
X117693797Y-60757671D01*
X117693793Y-60757664D01*
X117607547Y-60642455D01*
X117607544Y-60642452D01*
X117492335Y-60556206D01*
X117492328Y-60556202D01*
X117357482Y-60505908D01*
X117357483Y-60505908D01*
X117297883Y-60499501D01*
X117297881Y-60499500D01*
X117297873Y-60499500D01*
X117297864Y-60499500D01*
X115202129Y-60499500D01*
X115202123Y-60499501D01*
X115142516Y-60505908D01*
X115007671Y-60556202D01*
X115007664Y-60556206D01*
X114892455Y-60642452D01*
X114892452Y-60642455D01*
X114806206Y-60757664D01*
X114806202Y-60757671D01*
X114755908Y-60892517D01*
X114754126Y-60900062D01*
X114751853Y-60899525D01*
X114729571Y-60953312D01*
X114672177Y-60993157D01*
X114633024Y-60999500D01*
X109326455Y-60999500D01*
X109229812Y-61018724D01*
X109133167Y-61037947D01*
X109133161Y-61037949D01*
X109079834Y-61060037D01*
X109079834Y-61060038D01*
X109034315Y-61078892D01*
X108951089Y-61113366D01*
X108951079Y-61113371D01*
X108787219Y-61222859D01*
X108717540Y-61292538D01*
X108647861Y-61362218D01*
X108647858Y-61362221D01*
X106787221Y-63222858D01*
X106787218Y-63222861D01*
X106717538Y-63292540D01*
X106647859Y-63362219D01*
X106538371Y-63526079D01*
X106538364Y-63526092D01*
X106497712Y-63624238D01*
X106497712Y-63624239D01*
X106465102Y-63702968D01*
X106463357Y-63707178D01*
X106462948Y-63708167D01*
X106462946Y-63708173D01*
X106424500Y-63901454D01*
X106424500Y-66855569D01*
X106404815Y-66922608D01*
X106352011Y-66968363D01*
X106282853Y-66978307D01*
X106219297Y-66949282D01*
X106184319Y-66898903D01*
X106178356Y-66882917D01*
X106178350Y-66882906D01*
X106092190Y-66767812D01*
X106092187Y-66767809D01*
X105977093Y-66681649D01*
X105977086Y-66681645D01*
X105842379Y-66631403D01*
X105842372Y-66631401D01*
X105782844Y-66625000D01*
X105135000Y-66625000D01*
X105135000Y-67541988D01*
X105077993Y-67509075D01*
X104950826Y-67475000D01*
X104819174Y-67475000D01*
X104692007Y-67509075D01*
X104635000Y-67541988D01*
X104635000Y-66625000D01*
X103987155Y-66625000D01*
X103927627Y-66631401D01*
X103927620Y-66631403D01*
X103792913Y-66681645D01*
X103792906Y-66681649D01*
X103677812Y-66767809D01*
X103677809Y-66767812D01*
X103591649Y-66882906D01*
X103591645Y-66882913D01*
X103541403Y-67017620D01*
X103541401Y-67017627D01*
X103535000Y-67077155D01*
X94950500Y-67077155D01*
X94950500Y-56999994D01*
X114744859Y-56999994D01*
X114744859Y-57000005D01*
X114765385Y-57247729D01*
X114765387Y-57247738D01*
X114826412Y-57488717D01*
X114926266Y-57716364D01*
X115026564Y-57869882D01*
X115767037Y-57129409D01*
X115784075Y-57192993D01*
X115849901Y-57307007D01*
X115942993Y-57400099D01*
X116057007Y-57465925D01*
X116120590Y-57482962D01*
X115379942Y-58223609D01*
X115426768Y-58260055D01*
X115426770Y-58260056D01*
X115645385Y-58378364D01*
X115645396Y-58378369D01*
X115880506Y-58459083D01*
X116125707Y-58500000D01*
X116374293Y-58500000D01*
X116619493Y-58459083D01*
X116854603Y-58378369D01*
X116854614Y-58378364D01*
X117073228Y-58260057D01*
X117073231Y-58260055D01*
X117120056Y-58223609D01*
X116379409Y-57482962D01*
X116442993Y-57465925D01*
X116557007Y-57400099D01*
X116650099Y-57307007D01*
X116715925Y-57192993D01*
X116732962Y-57129410D01*
X117473434Y-57869882D01*
X117573731Y-57716369D01*
X117673587Y-57488717D01*
X117734612Y-57247738D01*
X117734614Y-57247729D01*
X117755141Y-57000005D01*
X117755141Y-56999994D01*
X129744859Y-56999994D01*
X129744859Y-57000005D01*
X129765385Y-57247729D01*
X129765387Y-57247738D01*
X129826412Y-57488717D01*
X129926266Y-57716364D01*
X130026564Y-57869882D01*
X130767037Y-57129409D01*
X130784075Y-57192993D01*
X130849901Y-57307007D01*
X130942993Y-57400099D01*
X131057007Y-57465925D01*
X131120590Y-57482962D01*
X130379942Y-58223609D01*
X130426768Y-58260055D01*
X130426770Y-58260056D01*
X130645385Y-58378364D01*
X130645396Y-58378369D01*
X130880506Y-58459083D01*
X131125707Y-58500000D01*
X131374293Y-58500000D01*
X131619493Y-58459083D01*
X131854603Y-58378369D01*
X131854614Y-58378364D01*
X132073228Y-58260057D01*
X132073231Y-58260055D01*
X132120056Y-58223609D01*
X131379409Y-57482962D01*
X131442993Y-57465925D01*
X131557007Y-57400099D01*
X131650099Y-57307007D01*
X131715925Y-57192993D01*
X131732962Y-57129410D01*
X132473434Y-57869882D01*
X132573731Y-57716369D01*
X132673587Y-57488717D01*
X132734612Y-57247738D01*
X132734614Y-57247729D01*
X132755141Y-57000005D01*
X132755141Y-56999994D01*
X132734614Y-56752270D01*
X132734612Y-56752261D01*
X132673587Y-56511282D01*
X132573731Y-56283630D01*
X132473434Y-56130116D01*
X131732962Y-56870589D01*
X131715925Y-56807007D01*
X131650099Y-56692993D01*
X131557007Y-56599901D01*
X131442993Y-56534075D01*
X131379410Y-56517037D01*
X132120057Y-55776390D01*
X132120056Y-55776389D01*
X132073229Y-55739943D01*
X131854614Y-55621635D01*
X131854603Y-55621630D01*
X131619493Y-55540916D01*
X131374293Y-55500000D01*
X131125707Y-55500000D01*
X130880506Y-55540916D01*
X130645396Y-55621630D01*
X130645390Y-55621632D01*
X130426761Y-55739949D01*
X130379942Y-55776388D01*
X130379942Y-55776390D01*
X131120590Y-56517037D01*
X131057007Y-56534075D01*
X130942993Y-56599901D01*
X130849901Y-56692993D01*
X130784075Y-56807007D01*
X130767037Y-56870589D01*
X130026564Y-56130116D01*
X129926267Y-56283632D01*
X129826412Y-56511282D01*
X129765387Y-56752261D01*
X129765385Y-56752270D01*
X129744859Y-56999994D01*
X117755141Y-56999994D01*
X117734614Y-56752270D01*
X117734612Y-56752261D01*
X117673587Y-56511282D01*
X117573731Y-56283630D01*
X117473434Y-56130116D01*
X116732962Y-56870589D01*
X116715925Y-56807007D01*
X116650099Y-56692993D01*
X116557007Y-56599901D01*
X116442993Y-56534075D01*
X116379410Y-56517037D01*
X117120057Y-55776390D01*
X117120056Y-55776389D01*
X117073229Y-55739943D01*
X116854614Y-55621635D01*
X116854603Y-55621630D01*
X116619493Y-55540916D01*
X116374293Y-55500000D01*
X116125707Y-55500000D01*
X115880506Y-55540916D01*
X115645396Y-55621630D01*
X115645390Y-55621632D01*
X115426761Y-55739949D01*
X115379942Y-55776388D01*
X115379942Y-55776390D01*
X116120590Y-56517037D01*
X116057007Y-56534075D01*
X115942993Y-56599901D01*
X115849901Y-56692993D01*
X115784075Y-56807007D01*
X115767037Y-56870589D01*
X115026564Y-56130116D01*
X114926267Y-56283632D01*
X114826412Y-56511282D01*
X114765387Y-56752261D01*
X114765385Y-56752270D01*
X114744859Y-56999994D01*
X94950500Y-56999994D01*
X94950500Y-51393713D01*
X97899500Y-51393713D01*
X97899500Y-51606286D01*
X97932753Y-51816239D01*
X97998444Y-52018414D01*
X98094951Y-52207820D01*
X98219890Y-52379786D01*
X98370213Y-52530109D01*
X98542179Y-52655048D01*
X98542181Y-52655049D01*
X98542184Y-52655051D01*
X98731588Y-52751557D01*
X98933757Y-52817246D01*
X99143713Y-52850500D01*
X99143714Y-52850500D01*
X99356286Y-52850500D01*
X99356287Y-52850500D01*
X99566243Y-52817246D01*
X99768412Y-52751557D01*
X99957816Y-52655051D01*
X99979789Y-52639086D01*
X100129786Y-52530109D01*
X100129788Y-52530106D01*
X100129792Y-52530104D01*
X100280104Y-52379792D01*
X100280106Y-52379788D01*
X100280109Y-52379786D01*
X100405048Y-52207820D01*
X100405047Y-52207820D01*
X100405051Y-52207816D01*
X100501557Y-52018412D01*
X100567246Y-51816243D01*
X100600500Y-51606287D01*
X100600500Y-51393713D01*
X187899500Y-51393713D01*
X187899500Y-51606286D01*
X187932753Y-51816239D01*
X187998444Y-52018414D01*
X188094951Y-52207820D01*
X188219890Y-52379786D01*
X188370213Y-52530109D01*
X188542179Y-52655048D01*
X188542181Y-52655049D01*
X188542184Y-52655051D01*
X188731588Y-52751557D01*
X188933757Y-52817246D01*
X189143713Y-52850500D01*
X189143714Y-52850500D01*
X189356286Y-52850500D01*
X189356287Y-52850500D01*
X189566243Y-52817246D01*
X189768412Y-52751557D01*
X189957816Y-52655051D01*
X189979789Y-52639086D01*
X190129786Y-52530109D01*
X190129788Y-52530106D01*
X190129792Y-52530104D01*
X190280104Y-52379792D01*
X190280106Y-52379788D01*
X190280109Y-52379786D01*
X190405048Y-52207820D01*
X190405047Y-52207820D01*
X190405051Y-52207816D01*
X190501557Y-52018412D01*
X190567246Y-51816243D01*
X190600500Y-51606287D01*
X190600500Y-51393713D01*
X190567246Y-51183757D01*
X190501557Y-50981588D01*
X190405051Y-50792184D01*
X190405049Y-50792181D01*
X190405048Y-50792179D01*
X190280109Y-50620213D01*
X190129786Y-50469890D01*
X189957820Y-50344951D01*
X189768414Y-50248444D01*
X189768413Y-50248443D01*
X189768412Y-50248443D01*
X189566243Y-50182754D01*
X189566241Y-50182753D01*
X189566240Y-50182753D01*
X189404957Y-50157208D01*
X189356287Y-50149500D01*
X189143713Y-50149500D01*
X189095042Y-50157208D01*
X188933760Y-50182753D01*
X188731585Y-50248444D01*
X188542179Y-50344951D01*
X188370213Y-50469890D01*
X188219890Y-50620213D01*
X188094951Y-50792179D01*
X187998444Y-50981585D01*
X187932753Y-51183760D01*
X187899500Y-51393713D01*
X100600500Y-51393713D01*
X100567246Y-51183757D01*
X100501557Y-50981588D01*
X100405051Y-50792184D01*
X100405049Y-50792181D01*
X100405048Y-50792179D01*
X100280109Y-50620213D01*
X100129786Y-50469890D01*
X99957820Y-50344951D01*
X99768414Y-50248444D01*
X99768413Y-50248443D01*
X99768412Y-50248443D01*
X99566243Y-50182754D01*
X99566241Y-50182753D01*
X99566240Y-50182753D01*
X99404957Y-50157208D01*
X99356287Y-50149500D01*
X99143713Y-50149500D01*
X99095042Y-50157208D01*
X98933760Y-50182753D01*
X98731585Y-50248444D01*
X98542179Y-50344951D01*
X98370213Y-50469890D01*
X98219890Y-50620213D01*
X98094951Y-50792179D01*
X97998444Y-50981585D01*
X97932753Y-51183760D01*
X97899500Y-51393713D01*
X94950500Y-51393713D01*
X94950500Y-48099500D01*
X94970185Y-48032461D01*
X95022989Y-47986706D01*
X95074500Y-47975500D01*
X193825500Y-47975500D01*
X193892539Y-47995185D01*
G37*
%TD.AperFunction*%
%TD*%
M02*
