M48
; DRILL file {KiCad 8.0.4} date 2024-09-01T22:05:12-0500
; FORMAT={-:-/ absolute / metric / decimal}
; #@! TF.CreationDate,2024-09-01T22:05:13-05:00
; #@! TF.GenerationSoftware,Kicad,Pcbnew,8.0.4
; #@! TF.FileFunction,Plated,1,2,PTH
FMAT,2
METRIC
; #@! TA.AperFunction,Plated,PTH,ViaDrill
T1C0.650
; #@! TA.AperFunction,Plated,PTH,ComponentDrill
T2C0.800
; #@! TA.AperFunction,Plated,PTH,ComponentDrill
T3C0.900
; #@! TA.AperFunction,Plated,PTH,ComponentDrill
T4C1.000
; #@! TA.AperFunction,Plated,PTH,ComponentDrill
T5C1.020
%
G90
G05
T1
X116.0Y-70.0
X116.0Y-74.0
X116.0Y-78.0
X116.0Y-82.0
X116.0Y-86.0
X116.0Y-91.5
T2
X161.04Y-62.707
X161.04Y-70.328
X168.54Y-62.517
X168.54Y-70.138
X175.54Y-62.397
X175.54Y-70.017
T3
X163.9Y-59.582
X166.44Y-59.582
X171.0Y-59.582
X173.54Y-59.582
X178.0Y-59.582
X180.54Y-59.582
T4
X103.618Y-97.0
X104.885Y-67.975
X104.9Y-83.975
X104.925Y-71.975
X104.925Y-75.975
X104.925Y-79.975
X104.93Y-87.975
X107.425Y-67.975
X107.44Y-83.975
X107.465Y-71.975
X107.465Y-75.975
X107.465Y-79.975
X107.47Y-87.975
X108.618Y-97.0
X109.965Y-67.975
X109.98Y-83.975
X110.005Y-71.975
X110.005Y-75.975
X110.005Y-79.975
X110.01Y-87.975
X116.25Y-57.0
X116.25Y-62.0
X131.25Y-57.0
X131.25Y-62.0
T5
X141.55Y-90.955
X141.55Y-93.495
X141.55Y-96.035
X141.55Y-98.575
X141.55Y-101.115
X141.55Y-103.655
X141.55Y-106.195
X141.55Y-108.735
X141.55Y-111.275
X141.55Y-113.815
X141.55Y-116.355
X141.55Y-118.895
X141.55Y-121.435
X141.55Y-123.975
X141.55Y-126.515
X166.95Y-90.955
X166.95Y-93.495
X166.95Y-96.035
X166.95Y-98.575
X166.95Y-101.115
X166.95Y-103.655
X166.95Y-106.195
X166.95Y-108.735
X166.95Y-111.275
X166.95Y-113.815
X166.95Y-116.355
X166.95Y-118.895
X166.95Y-121.435
X166.95Y-123.975
X166.95Y-126.515
T4
G00X121.75Y-126.5
M15
G01X123.75Y-126.5
M16
G05
G00X121.75Y-132.5
M15
G01X123.75Y-132.5
M16
G05
G00X127.45Y-130.5
M15
G01X127.45Y-128.5
M16
G05
M30
